<svg width="930" height="541" viewBox="0 0 930 541" fill="none" xmlns="http://www.w3.org/2000/svg">
<path d="M151.681 687.269C193.482 673.729 207.558 720.64 249.366 707.098C291.175 693.555 277.098 646.643 318.899 633.103C360.699 619.563 374.783 666.472 416.591 652.929C458.399 639.387 444.315 592.478 486.123 578.935C527.931 565.392 542.008 612.304 583.808 598.764C625.609 585.223 611.54 538.309 653.348 524.767C695.156 511.224 709.233 558.136 751.041 544.593C792.849 531.05 778.772 484.139 820.58 470.596" stroke="white" stroke-opacity="0.08" stroke-width="2" stroke-miterlimit="10"/>
<path d="M109.472 546.604C151.273 533.063 165.349 579.975 207.157 566.432C248.966 552.89 234.889 505.978 276.69 492.438C318.49 478.898 332.574 525.807 374.382 512.264C416.19 498.722 402.106 451.812 443.914 438.27C485.722 424.727 499.799 471.639 541.599 458.098C583.4 444.558 569.331 397.644 611.139 384.102C652.947 370.559 667.024 417.47 708.832 403.928C750.64 390.385 736.563 343.474 778.372 329.931" stroke="white" stroke-opacity="0.08" stroke-width="2" stroke-miterlimit="10"/>
<path d="M46.1599 335.607C87.9604 322.066 102.037 368.978 143.845 355.435C185.653 341.893 171.577 294.981 213.377 281.441C255.178 267.901 269.262 314.81 311.07 301.267C352.878 287.724 338.794 240.815 380.602 227.273C422.41 213.73 436.486 260.641 478.287 247.101C520.087 233.561 506.019 186.647 547.827 173.104C589.635 159.562 603.711 206.473 645.519 192.931C687.327 179.388 673.251 132.476 715.059 118.934" stroke="white" stroke-opacity="0.08" stroke-width="2" stroke-miterlimit="10"/>
<path d="M130.576 616.937C172.376 603.396 186.453 650.308 228.261 636.765C270.069 623.223 255.993 576.311 297.793 562.771C339.594 549.231 353.678 596.14 395.486 582.597C437.294 569.054 423.21 522.145 465.018 508.603C506.826 495.06 520.902 541.972 562.703 528.431C604.504 514.891 590.435 467.977 632.243 454.434C674.051 440.892 688.127 487.803 729.935 474.261C771.743 460.718 757.667 413.806 799.475 400.264" stroke="white" stroke-opacity="0.08" stroke-width="2" stroke-miterlimit="10"/>
<path d="M67.2634 405.939C109.064 392.399 123.14 439.31 164.948 425.768C206.757 412.225 192.68 365.313 234.481 351.773C276.281 338.233 290.365 385.142 332.173 371.599C373.981 358.057 359.897 311.148 401.705 297.605C443.513 284.062 457.59 330.974 499.39 317.434C541.191 303.893 527.122 256.979 568.93 243.437C610.738 229.894 624.815 276.806 666.623 263.263C708.431 249.72 694.354 202.809 736.163 189.266" stroke="white" stroke-opacity="0.08" stroke-width="2" stroke-miterlimit="10"/>
<path d="M172.785 757.602C214.585 744.062 228.662 790.973 270.47 777.431C312.278 763.888 298.202 716.976 340.002 703.436C381.803 689.896 395.887 736.805 437.695 723.262C479.503 709.72 465.419 662.811 507.227 649.268C549.035 635.725 563.111 682.637 604.912 669.097C646.712 655.556 632.644 608.642 674.452 595.1C716.26 581.557 730.336 628.469 772.144 614.926C813.952 601.383 799.876 554.472 841.684 540.929" stroke="white" stroke-opacity="0.08" stroke-width="2" stroke-miterlimit="10"/>
<path d="M88.3669 476.271C130.167 462.731 144.244 509.643 186.052 496.1C227.86 482.557 213.784 435.646 255.584 422.106C297.385 408.565 311.469 455.474 353.277 441.932C395.085 428.389 381.001 381.48 422.809 367.937C464.617 354.395 478.693 401.306 520.494 387.766C562.295 374.226 548.226 327.312 590.034 313.769C631.842 300.226 645.918 347.138 687.726 333.595C729.534 320.053 715.458 273.141 757.266 259.598" stroke="white" stroke-opacity="0.08" stroke-width="2" stroke-miterlimit="10"/>
<path d="M25.0544 265.274C66.855 251.733 80.9314 298.645 122.739 285.102C164.548 271.56 150.471 224.648 192.272 211.108C234.072 197.568 248.156 244.477 289.964 230.934C331.772 217.391 317.688 170.482 359.496 156.94C401.305 143.397 415.381 190.309 457.181 176.768C498.982 163.228 484.913 116.314 526.721 102.772C568.529 89.2288 582.606 136.14 624.414 122.598C666.222 109.055 652.145 62.1435 693.954 48.6009" stroke="white" stroke-opacity="0.08" stroke-width="2" stroke-miterlimit="10"/>
<path d="M144.652 663.848C186.453 650.308 200.529 697.219 242.337 683.677C284.145 670.134 270.069 623.222 311.869 609.682C353.67 596.142 367.754 643.051 409.562 629.508C451.37 615.966 437.286 569.057 479.094 555.514C520.902 541.971 534.979 588.883 576.779 575.343C618.58 561.802 604.511 514.888 646.319 501.346C688.127 487.803 702.203 534.715 744.011 521.172C785.82 507.629 771.743 460.718 813.551 447.175" stroke="white" stroke-opacity="0.08" stroke-width="2" stroke-miterlimit="10"/>
<path d="M102.445 523.183C144.246 509.643 158.322 556.554 200.13 543.012C241.938 529.469 227.862 482.557 269.662 469.017C311.463 455.477 325.547 502.386 367.355 488.844C409.163 475.301 395.079 428.392 436.887 414.849C478.695 401.306 492.772 448.218 534.572 434.678C576.373 421.138 562.304 374.224 604.112 360.681C645.92 347.138 659.996 394.05 701.804 380.507C743.613 366.964 729.536 320.053 771.344 306.51" stroke="white" stroke-opacity="0.08" stroke-width="2" stroke-miterlimit="10"/>
<path d="M39.1306 312.185C80.9311 298.645 95.0076 345.557 136.816 332.014C178.624 318.471 164.547 271.56 206.348 258.02C248.148 244.479 262.232 291.389 304.04 277.846C345.849 264.303 331.765 217.394 373.573 203.851C415.381 190.309 429.457 237.22 471.258 223.68C513.058 210.14 498.989 163.226 540.797 149.683C582.605 136.141 596.682 183.052 638.49 169.509C680.298 155.967 666.222 109.055 708.03 95.5126" stroke="white" stroke-opacity="0.08" stroke-width="2" stroke-miterlimit="10"/>
<path d="M123.549 593.515C165.349 579.975 179.426 626.887 221.234 613.344C263.042 599.801 248.965 552.89 290.766 539.35C332.566 525.809 346.65 572.719 388.458 559.176C430.266 545.633 416.182 498.724 457.991 485.181C499.799 471.639 513.875 518.55 555.676 505.01C597.476 491.47 583.407 444.556 625.215 431.013C667.023 417.471 681.1 464.382 722.908 450.84C764.716 437.297 750.64 390.385 792.448 376.843" stroke="white" stroke-opacity="0.08" stroke-width="2" stroke-miterlimit="10"/>
<path d="M60.2361 382.518C102.037 368.978 116.113 415.89 157.921 402.347C199.729 388.804 185.653 341.893 227.453 328.353C269.254 314.812 283.338 361.721 325.146 348.179C366.954 334.636 352.87 287.727 394.678 274.184C436.486 260.642 450.563 307.553 492.363 294.013C534.164 280.473 520.095 233.559 561.903 220.016C603.711 206.473 617.787 253.385 659.595 239.842C701.404 226.3 687.327 179.388 729.135 165.845" stroke="white" stroke-opacity="0.08" stroke-width="2" stroke-miterlimit="10"/>
<path d="M165.758 734.181C207.558 720.641 221.635 767.552 263.443 754.009C305.251 740.467 291.174 693.555 332.975 680.015C374.775 666.475 388.859 713.384 430.667 699.841C472.475 686.299 458.391 639.389 500.2 625.847C542.008 612.304 556.084 659.216 597.885 645.675C639.685 632.135 625.616 585.221 667.424 571.679C709.232 558.136 723.309 605.047 765.117 591.505C806.925 577.962 792.849 531.051 834.657 517.508" stroke="white" stroke-opacity="0.08" stroke-width="2" stroke-miterlimit="10"/>
<path d="M81.3396 452.851C123.14 439.31 137.217 486.222 179.025 472.679C220.833 459.137 206.756 412.225 248.557 398.685C290.357 385.145 304.441 432.054 346.249 418.511C388.057 404.969 373.974 358.059 415.782 344.517C457.59 330.974 471.666 377.886 513.467 364.345C555.267 350.805 541.198 303.891 583.006 290.349C624.814 276.806 638.891 323.717 680.699 310.175C722.507 296.632 708.431 249.721 750.239 236.178" stroke="white" stroke-opacity="0.08" stroke-width="2" stroke-miterlimit="10"/>
<path d="M18.0271 241.854C59.8276 228.313 73.9041 275.225 115.712 261.682C157.52 248.14 143.444 201.228 185.244 187.688C227.045 174.148 241.129 221.057 282.937 207.514C324.745 193.971 310.661 147.062 352.469 133.52C394.277 119.977 408.354 166.888 450.154 153.348C491.955 139.808 477.886 92.894 519.694 79.3514C561.502 65.8087 575.578 112.72 617.386 99.1776C659.195 85.6349 645.118 38.7234 686.926 25.1807" stroke="white" stroke-opacity="0.08" stroke-width="2" stroke-miterlimit="10"/>
<path d="M144.652 663.848C186.453 650.308 200.529 697.219 242.337 683.677C284.145 670.134 270.069 623.222 311.869 609.682C353.67 596.142 367.754 643.051 409.562 629.508C451.37 615.966 437.286 569.057 479.094 555.514C520.902 541.971 534.979 588.883 576.779 575.343C618.58 561.802 604.511 514.888 646.319 501.346C688.127 487.803 702.203 534.715 744.011 521.172C785.82 507.629 771.743 460.718 813.551 447.175" stroke="white" stroke-opacity="0.08" stroke-width="2" stroke-miterlimit="10"/>
<path d="M102.445 523.183C144.246 509.643 158.322 556.554 200.13 543.012C241.938 529.469 227.862 482.557 269.662 469.017C311.463 455.477 325.547 502.386 367.355 488.844C409.163 475.301 395.079 428.392 436.887 414.849C478.695 401.306 492.772 448.218 534.572 434.678C576.373 421.138 562.304 374.224 604.112 360.681C645.92 347.138 659.996 394.05 701.804 380.507C743.613 366.964 729.536 320.053 771.344 306.51" stroke="white" stroke-opacity="0.08" stroke-width="2" stroke-miterlimit="10"/>
<path d="M39.1306 312.185C80.9311 298.645 95.0076 345.557 136.816 332.014C178.624 318.471 164.547 271.56 206.348 258.02C248.148 244.479 262.232 291.389 304.04 277.846C345.849 264.303 331.765 217.394 373.573 203.851C415.381 190.309 429.457 237.22 471.258 223.68C513.058 210.14 498.989 163.226 540.797 149.683C582.605 136.141 596.682 183.052 638.49 169.509C680.298 155.967 666.222 109.055 708.03 95.5126" stroke="white" stroke-opacity="0.08" stroke-width="2" stroke-miterlimit="10"/>
<path d="M123.549 593.515C165.349 579.975 179.426 626.887 221.234 613.344C263.042 599.801 248.965 552.89 290.766 539.35C332.566 525.809 346.65 572.719 388.458 559.176C430.266 545.633 416.182 498.724 457.991 485.181C499.799 471.639 513.875 518.55 555.676 505.01C597.476 491.47 583.407 444.556 625.215 431.013C667.023 417.471 681.1 464.382 722.908 450.84C764.716 437.297 750.64 390.385 792.448 376.843" stroke="white" stroke-opacity="0.08" stroke-width="2" stroke-miterlimit="10"/>
<path d="M60.2361 382.518C102.037 368.978 116.113 415.89 157.921 402.347C199.729 388.804 185.653 341.893 227.453 328.353C269.254 314.812 283.338 361.721 325.146 348.179C366.954 334.636 352.87 287.727 394.678 274.184C436.486 260.642 450.563 307.553 492.363 294.013C534.164 280.473 520.095 233.559 561.903 220.016C603.711 206.473 617.787 253.385 659.595 239.842C701.404 226.3 687.327 179.388 729.135 165.845" stroke="white" stroke-opacity="0.08" stroke-width="2" stroke-miterlimit="10"/>
<path d="M165.758 734.181C207.558 720.641 221.635 767.552 263.443 754.009C305.251 740.467 291.174 693.555 332.975 680.015C374.775 666.475 388.859 713.384 430.667 699.841C472.475 686.299 458.391 639.389 500.2 625.847C542.008 612.304 556.084 659.216 597.885 645.675C639.685 632.135 625.616 585.221 667.424 571.679C709.232 558.136 723.309 605.047 765.117 591.505C806.925 577.962 792.849 531.051 834.657 517.508" stroke="white" stroke-opacity="0.08" stroke-width="2" stroke-miterlimit="10"/>
<path d="M81.3396 452.851C123.14 439.31 137.217 486.222 179.025 472.679C220.833 459.137 206.756 412.225 248.557 398.685C290.357 385.145 304.441 432.054 346.249 418.511C388.057 404.969 373.974 358.059 415.782 344.517C457.59 330.974 471.666 377.886 513.467 364.345C555.267 350.805 541.198 303.891 583.006 290.349C624.814 276.806 638.891 323.717 680.699 310.175C722.507 296.632 708.431 249.721 750.239 236.178" stroke="white" stroke-opacity="0.08" stroke-width="2" stroke-miterlimit="10"/>
<path d="M18.0271 241.854C59.8276 228.313 73.9041 275.225 115.712 261.682C157.52 248.14 143.444 201.228 185.244 187.688C227.045 174.148 241.129 221.057 282.937 207.514C324.745 193.971 310.661 147.062 352.469 133.52C394.277 119.977 408.354 166.888 450.154 153.348C491.955 139.808 477.886 92.894 519.694 79.3514C561.502 65.8087 575.578 112.72 617.386 99.1776C659.195 85.6349 645.118 38.7234 686.926 25.1807" stroke="white" stroke-opacity="0.08" stroke-width="2" stroke-miterlimit="10"/>
<path d="M137.625 640.427C179.425 626.887 193.502 673.799 235.31 660.256C277.118 646.713 263.041 599.802 304.842 586.261C346.643 572.721 360.726 619.63 402.535 606.088C444.343 592.545 430.259 545.636 472.067 532.093C513.875 518.551 527.951 565.462 569.752 551.922C611.552 538.382 597.483 491.468 639.292 477.925C681.1 464.382 695.176 511.294 736.984 497.751C778.792 484.209 764.716 437.297 806.524 423.754" stroke="white" stroke-opacity="0.08" stroke-width="2" stroke-miterlimit="10"/>
<path d="M95.4158 499.762C137.216 486.222 151.293 533.133 193.101 519.591C234.909 506.048 220.832 459.136 262.633 445.596C304.434 432.056 318.518 478.965 360.326 465.422C402.134 451.88 388.05 404.971 429.858 391.428C471.666 377.885 485.742 424.797 527.543 411.257C569.343 397.716 555.274 350.802 597.083 337.26C638.891 323.717 652.967 370.629 694.775 357.086C736.583 343.543 722.507 296.632 764.315 283.089" stroke="white" stroke-opacity="0.08" stroke-width="2" stroke-miterlimit="10"/>
<path d="M32.1033 288.764C73.9038 275.224 87.9802 322.135 129.788 308.592C171.596 295.05 157.52 248.138 199.32 234.598C241.121 221.058 255.205 267.967 297.013 254.424C338.821 240.882 324.737 193.972 366.545 180.43C408.353 166.887 422.43 213.799 464.23 200.259C506.031 186.718 491.962 139.804 533.77 126.262C575.578 112.719 589.655 159.631 631.463 146.088C673.271 132.545 659.194 85.6336 701.002 72.091" stroke="white" stroke-opacity="0.08" stroke-width="2" stroke-miterlimit="10"/>
<path d="M116.521 570.094C158.322 556.554 172.398 603.466 214.206 589.923C256.014 576.38 241.938 529.469 283.738 515.929C325.539 502.388 339.623 549.297 381.431 535.755C423.239 522.212 409.155 475.303 450.963 461.76C492.771 448.218 506.848 495.129 548.648 481.589C590.449 468.049 576.38 421.135 618.188 407.592C659.996 394.049 674.073 440.961 715.881 427.418C757.689 413.876 743.612 366.964 785.42 353.421" stroke="white" stroke-opacity="0.08" stroke-width="2" stroke-miterlimit="10"/>
<path d="M53.2087 359.097C95.0093 345.556 109.086 392.468 150.894 378.925C192.702 365.383 178.625 318.471 220.426 304.931C262.226 291.391 276.31 338.3 318.119 324.757C359.927 311.214 345.843 264.305 387.651 250.763C429.459 237.22 443.535 284.132 485.336 270.591C527.136 257.051 513.067 210.137 554.876 196.595C596.684 183.052 610.76 229.963 652.568 216.421C694.376 202.878 680.3 155.967 722.108 142.424" stroke="white" stroke-opacity="0.08" stroke-width="2" stroke-miterlimit="10"/>
<path d="M158.728 710.76C200.529 697.219 214.605 744.131 256.413 730.588C298.221 717.046 284.145 670.134 325.945 656.594C367.746 643.054 381.83 689.963 423.638 676.42C465.446 662.877 451.362 615.968 493.17 602.426C534.978 588.883 549.055 635.795 590.855 622.254C632.656 608.714 618.587 561.8 660.395 548.257C702.203 534.715 716.28 581.626 758.088 568.084C799.896 554.541 785.819 507.629 827.627 494.087" stroke="white" stroke-opacity="0.08" stroke-width="2" stroke-miterlimit="10"/>
<path d="M74.3122 429.429C116.113 415.889 130.189 462.8 171.997 449.258C213.805 435.715 199.729 388.804 241.529 375.263C283.33 361.723 297.414 408.632 339.222 395.09C381.03 381.547 366.946 334.638 408.754 321.095C450.562 307.552 464.639 354.464 506.439 340.924C548.24 327.384 534.171 280.47 575.979 266.927C617.787 253.384 631.864 300.296 673.672 286.753C715.48 273.211 701.403 226.299 743.211 212.756" stroke="white" stroke-opacity="0.08" stroke-width="2" stroke-miterlimit="10"/>
<path d="M10.9997 218.432C52.8003 204.892 66.8767 251.803 108.685 238.261C150.493 224.718 136.416 177.806 178.217 164.266C220.018 150.726 234.101 197.635 275.91 184.092C317.718 170.55 303.634 123.641 345.442 110.098C387.25 96.5553 401.326 143.467 443.127 129.927C484.927 116.386 470.858 69.4724 512.667 55.9298C554.475 42.3871 568.551 89.2987 610.359 75.756C652.167 62.2133 638.091 15.3018 679.899 1.7591" stroke="white" stroke-opacity="0.08" stroke-width="2" stroke-miterlimit="10"/>
</svg>
