<svg width="132" height="308" viewBox="0 0 132 308" fill="none" xmlns="http://www.w3.org/2000/svg">
<mask id="mask0_1_311" style="mask-type:luminance" maskUnits="userSpaceOnUse" x="-146" y="30" width="247" height="247">
<path d="M-58.6784 36.5775C-123.475 56.7791 -159.626 125.683 -139.424 190.479C-119.222 255.276 -50.3181 291.427 14.478 271.225C79.2742 251.023 115.425 182.119 95.2236 117.323C75.022 52.5269 6.11772 16.3759 -58.6784 36.5775Z" fill="white"/>
</mask>
<g mask="url(#mask0_1_311)">
<path d="M14.2301 269.663C78.4845 249.631 114.334 181.303 94.3012 117.048C74.2689 52.794 5.94099 16.945 -58.3134 36.9773C-122.568 57.0096 -158.417 125.337 -138.385 189.592C-118.352 253.846 -50.0243 289.695 14.2301 269.663Z" fill="#407BFF"/>
<path d="M-132.021 214.226C-117.358 209.654 -112.42 225.493 -97.7538 220.92C-83.0877 216.348 -88.0259 200.509 -73.3622 195.937C-58.6985 191.366 -53.7579 207.204 -39.0918 202.631C-24.4256 198.059 -29.3663 182.221 -14.7001 177.649C-0.0339966 173.076 4.90382 188.915 19.5675 184.344C34.2308 179.772 29.2955 163.932 43.962 159.36C58.6281 154.788 63.5659 170.626 78.232 166.054C92.8981 161.481 87.9603 145.643 102.626 141.07" stroke="white" stroke-opacity="0.08" stroke-width="2" stroke-miterlimit="10"/>
<path d="M-117.213 261.718C-102.55 257.147 -97.6114 272.986 -82.9453 268.413C-68.2791 263.841 -73.2173 248.002 -58.5536 243.43C-43.8899 238.859 -38.9497 254.697 -24.2832 250.124C-9.61703 245.552 -14.5577 229.714 0.108464 225.142C14.7746 220.569 19.7124 236.408 34.3761 231.836C49.0394 227.265 44.1041 211.425 58.7705 206.853C73.4367 202.28 78.3745 218.119 93.0406 213.547C107.707 208.974 102.769 193.136 117.435 188.563" stroke="white" stroke-opacity="0.08" stroke-width="2" stroke-miterlimit="10"/>
<path d="M-146.826 166.733C-132.163 162.161 -127.225 178 -112.558 173.428C-97.8923 168.855 -102.831 153.016 -88.1668 148.445C-73.5032 143.873 -68.5629 159.711 -53.8964 155.139C-39.2303 150.566 -44.1709 134.728 -29.5048 130.156C-14.8386 125.584 -9.90081 141.422 4.76287 136.851C19.4262 132.279 14.4908 116.439 29.1573 111.867C43.8234 107.295 48.7613 123.133 63.4274 118.561C78.0935 113.989 73.1557 98.1499 87.8218 93.5776" stroke="white" stroke-opacity="0.08" stroke-width="2" stroke-miterlimit="10"/>
<path d="M-169.037 95.4937C-154.374 90.9221 -149.436 106.761 -134.77 102.188C-120.104 97.616 -125.042 81.7772 -110.378 77.2056C-95.7145 72.634 -90.7739 88.4721 -76.1078 83.8995C-61.4416 79.3272 -66.3822 63.4894 -51.7161 58.9168C-37.05 54.3445 -32.1118 70.1833 -17.4485 65.6117C-2.78481 61.0401 -7.72018 45.2006 6.94595 40.628C21.6121 36.0557 26.5503 51.8945 41.2164 47.3222C55.8825 42.7496 50.9443 26.9109 65.6105 22.3385" stroke="white" stroke-opacity="0.08" stroke-width="2" stroke-miterlimit="10"/>
<path d="M-109.811 285.465C-95.1469 280.893 -90.209 296.732 -75.5429 292.159C-60.8768 287.587 -65.8146 271.748 -51.1513 267.177C-36.4876 262.605 -31.547 278.443 -16.8808 273.871C-2.2147 269.298 -7.15534 253.461 7.5108 248.888C22.1769 244.316 27.1151 260.154 41.7784 255.583C56.4421 251.011 51.5068 235.172 66.1729 230.599C80.839 226.027 85.7772 241.866 100.443 237.293C115.109 232.721 110.171 216.882 124.837 212.31" stroke="white" stroke-opacity="0.08" stroke-width="2" stroke-miterlimit="10"/>
<path d="M-139.424 190.479C-124.76 185.908 -119.822 201.746 -105.156 197.174C-90.4901 192.602 -95.4279 176.763 -80.7646 172.191C-66.1009 167.62 -61.1603 183.458 -46.4941 178.885C-31.828 174.313 -36.7686 158.475 -22.1025 153.903C-7.43634 149.33 -2.49817 165.169 12.1652 160.597C26.8288 156.026 21.8935 140.186 36.5596 135.614C51.2257 131.041 56.1639 146.88 70.8301 142.308C85.4962 137.735 80.558 121.897 95.2241 117.324" stroke="white" stroke-opacity="0.08" stroke-width="2" stroke-miterlimit="10"/>
<path d="M-161.635 119.24C-146.971 114.669 -142.033 130.507 -127.367 125.935C-112.701 121.363 -117.639 105.524 -102.975 100.952C-88.3118 96.3805 -83.3711 112.219 -68.705 107.646C-54.0389 103.074 -58.9795 87.2359 -44.3134 82.6633C-29.6472 78.091 -24.7094 93.9298 -10.0457 89.3583C4.61761 84.7867 -0.317753 68.9471 14.3487 64.3745C29.0149 59.8022 33.9527 75.641 48.6188 71.0684C63.2849 66.4961 58.3471 50.6573 73.0133 46.085" stroke="white" stroke-opacity="0.08" stroke-width="2" stroke-miterlimit="10"/>
<path d="M-124.617 237.972C-109.954 233.401 -105.016 249.239 -90.3498 244.667C-75.6837 240.094 -80.6215 224.256 -65.9582 219.684C-51.2945 215.112 -46.3539 230.95 -31.6877 226.378C-17.0216 221.806 -21.9622 205.968 -7.29608 201.395C7.37006 196.823 12.3082 212.662 26.9715 208.09C41.6352 203.519 36.6999 187.679 51.366 183.106C66.0321 178.534 70.9703 194.373 85.6364 189.8C100.303 185.228 95.3644 169.389 110.031 164.817" stroke="white" stroke-opacity="0.08" stroke-width="2" stroke-miterlimit="10"/>
<path d="M-154.23 142.986C-139.567 138.415 -134.629 154.254 -119.963 149.681C-105.297 145.109 -110.235 129.27 -95.5713 124.699C-80.9076 120.127 -75.967 135.965 -61.3009 131.393C-46.6347 126.82 -51.5754 110.982 -36.9092 106.41C-22.2431 101.837 -17.3049 117.676 -2.64161 113.104C12.0221 108.533 7.08671 92.6933 21.7528 88.121C36.419 83.5484 41.3572 99.3873 56.0233 94.815C70.6894 90.2423 65.7512 74.4038 80.4174 69.8312" stroke="white" stroke-opacity="0.08" stroke-width="2" stroke-miterlimit="10"/>
<path d="M-176.439 71.7476C-161.776 67.176 -156.838 83.0145 -142.172 78.4422C-127.506 73.8699 -132.444 58.0311 -117.78 53.4595C-103.116 48.8879 -98.1758 64.7257 -83.5097 60.1534C-68.8435 55.5811 -73.7842 39.743 -59.118 35.1707C-44.4519 30.5983 -39.5141 46.4369 -24.8504 41.8653C-10.1871 37.2937 -15.1224 21.4543 -0.455958 16.8819C14.2102 12.3095 19.148 28.1482 33.8141 23.5758C48.4802 19.0034 43.5424 3.16469 58.2086 -1.40771" stroke="white" stroke-opacity="0.08" stroke-width="2" stroke-miterlimit="10"/>
<path d="M-134.486 206.318C-119.823 201.746 -114.885 217.585 -100.219 213.012C-85.5522 208.44 -90.4904 192.601 -75.8267 188.03C-61.1634 183.458 -56.2228 199.296 -41.5566 194.724C-26.8905 190.151 -31.8311 174.314 -17.165 169.741C-2.49886 165.169 2.43932 181.007 17.1026 176.436C31.7663 171.864 26.8309 156.025 41.4971 151.452C56.1632 146.88 61.1014 162.719 75.7675 158.146C90.4336 153.574 85.4955 137.735 100.162 133.163" stroke="white" stroke-opacity="0.08" stroke-width="2" stroke-miterlimit="10"/>
<path d="M-119.68 253.811C-105.016 249.239 -100.078 265.078 -85.4121 260.505C-70.7456 255.933 -75.6837 240.094 -61.0201 235.523C-46.3567 230.951 -41.4161 246.789 -26.75 242.217C-12.0839 237.644 -17.0245 221.806 -2.35834 217.234C12.3081 212.661 17.246 228.5 31.9093 223.929C46.573 219.357 41.6376 203.517 56.3037 198.945C70.9699 194.372 75.908 210.211 90.5742 205.639C105.24 201.066 100.302 185.228 114.969 180.655" stroke="white" stroke-opacity="0.08" stroke-width="2" stroke-miterlimit="10"/>
<path d="M-149.293 158.825C-134.629 154.254 -129.692 170.092 -115.025 165.52C-100.359 160.948 -105.297 145.109 -90.6335 140.537C-75.9702 135.966 -71.0295 151.804 -56.3634 147.231C-41.6973 142.659 -46.6379 126.821 -31.9718 122.249C-17.3053 117.676 -12.3675 133.515 2.29587 128.943C16.9595 124.372 12.0242 108.532 26.6903 103.96C41.3564 99.3871 46.2946 115.226 60.9607 110.654C75.6269 106.081 70.6887 90.2426 85.3552 85.6699" stroke="white" stroke-opacity="0.08" stroke-width="2" stroke-miterlimit="10"/>
<path d="M-171.502 87.5859C-156.838 83.0143 -151.9 98.8531 -137.234 94.2805C-122.568 89.7082 -127.506 73.8693 -112.843 69.2977C-98.179 64.7262 -93.2383 80.5643 -78.5722 75.9917C-63.9061 71.4194 -68.8467 55.5816 -54.1806 51.0089C-39.5144 46.4366 -34.5766 62.2755 -19.9129 57.7039C-5.24927 53.1323 -10.1846 37.2928 4.4815 32.7203C19.1476 28.1479 24.0855 43.9867 38.7516 39.4144C53.4177 34.8418 48.4799 19.0031 63.146 14.4307" stroke="white" stroke-opacity="0.08" stroke-width="2" stroke-miterlimit="10"/>
<path d="M-112.275 277.557C-97.6121 272.986 -92.6739 288.824 -78.0078 284.252C-63.3416 279.679 -68.2794 263.841 -53.6161 259.269C-38.9524 254.697 -34.0118 270.536 -19.3457 265.963C-4.67954 261.391 -9.62017 245.553 5.04596 240.98C19.7121 236.408 24.6499 252.247 39.3136 247.675C53.9773 243.104 49.0419 227.264 63.708 222.691C78.3742 218.119 83.312 233.958 97.9781 229.386C112.644 224.813 107.706 208.974 122.373 204.402" stroke="white" stroke-opacity="0.08" stroke-width="2" stroke-miterlimit="10"/>
<path d="M-141.889 182.571C-127.225 178 -122.287 193.839 -107.621 189.266C-92.9549 184.694 -97.8927 168.855 -83.2294 164.284C-68.5657 159.712 -63.6251 175.55 -48.9589 170.978C-34.2928 166.405 -39.2334 150.567 -24.5673 145.995C-9.90117 141.423 -4.96333 157.261 9.70035 152.689C24.364 148.118 19.4286 132.278 34.0948 127.706C48.7609 123.134 53.6987 138.972 68.3649 134.4C83.031 129.828 78.0932 113.989 92.7593 109.417" stroke="white" stroke-opacity="0.08" stroke-width="2" stroke-miterlimit="10"/>
<path d="M-164.1 111.332C-149.436 106.761 -144.498 122.6 -129.832 118.027C-115.166 113.455 -120.104 97.616 -105.44 93.0444C-90.7768 88.4728 -85.8362 104.311 -71.1701 99.7383C-56.5039 95.166 -61.4445 79.3282 -46.7784 74.7556C-32.1119 70.1833 -27.1741 86.0221 -12.5108 81.4505C2.15289 76.8789 -2.78247 61.0394 11.8837 56.4668C26.5498 51.8945 31.488 67.7333 46.1541 63.1607C60.8202 58.5884 55.8821 42.7495 70.5485 38.1772" stroke="white" stroke-opacity="0.08" stroke-width="2" stroke-miterlimit="10"/>
<path d="M-127.082 230.064C-112.419 225.493 -107.481 241.331 -92.8144 236.759C-78.1483 232.187 -83.0861 216.348 -68.4228 211.776C-53.7591 207.205 -48.8185 223.043 -34.1523 218.47C-19.4862 213.898 -24.4268 198.06 -9.76068 193.488C4.90546 188.915 9.84328 204.754 24.507 200.182C39.1706 195.611 34.2353 179.771 48.9014 175.199C63.5675 170.626 68.5054 186.465 83.1715 181.893C97.8376 177.32 92.8998 161.481 107.566 156.909" stroke="white" stroke-opacity="0.08" stroke-width="2" stroke-miterlimit="10"/>
<path d="M-156.695 135.079C-142.032 130.507 -137.094 146.346 -122.428 141.774C-107.762 137.201 -112.699 121.362 -98.036 116.791C-83.3723 112.219 -78.4317 128.057 -63.7656 123.485C-49.0994 118.912 -54.0401 103.074 -39.3739 98.502C-24.7078 93.9294 -19.77 109.768 -5.10631 105.197C9.55737 100.625 4.62201 84.7855 19.2881 80.2132C33.9543 75.6406 38.8921 91.4794 53.5582 86.9071C68.2244 82.3345 63.2865 66.496 77.9527 61.9233" stroke="white" stroke-opacity="0.08" stroke-width="2" stroke-miterlimit="10"/>
<path d="M-178.906 63.8399C-164.243 59.2683 -159.305 75.1068 -144.639 70.5345C-129.972 65.9622 -134.91 50.1234 -120.247 45.5518C-105.583 40.9802 -100.643 56.818 -85.9767 52.2457C-71.3106 47.6734 -76.2512 31.8354 -61.5851 27.263C-46.9186 22.6906 -41.9808 38.5292 -27.3174 33.9577C-12.6538 29.3862 -17.5891 13.5466 -2.92301 8.97419C11.7431 4.4018 16.6813 20.2405 31.3474 15.6681C46.0136 11.0957 41.0754 -4.74303 55.7419 -9.31543" stroke="white" stroke-opacity="0.08" stroke-width="2" stroke-miterlimit="10"/>
<path d="M-104.873 301.303C-90.2094 296.732 -85.2715 312.571 -70.6054 307.998C-55.9389 303.426 -60.8771 287.587 -46.2134 283.016C-31.5501 278.444 -26.6095 294.282 -11.9433 289.71C2.72279 285.137 -2.21783 269.299 12.4483 264.727C27.1144 260.154 32.0526 275.993 46.7159 271.421C61.3796 266.85 56.4442 251.01 71.1104 246.438C85.7765 241.866 90.7147 257.704 105.381 253.132C120.047 248.56 115.109 232.721 129.775 228.148" stroke="white" stroke-opacity="0.08" stroke-width="2" stroke-miterlimit="10"/>
<path d="M-134.486 206.318C-119.823 201.746 -114.885 217.585 -100.219 213.012C-85.5522 208.44 -90.4904 192.601 -75.8267 188.03C-61.1634 183.458 -56.2228 199.296 -41.5566 194.724C-26.8905 190.151 -31.8311 174.314 -17.165 169.741C-2.49886 165.169 2.43932 181.007 17.1026 176.436C31.7663 171.864 26.8309 156.025 41.4971 151.452C56.1632 146.88 61.1014 162.719 75.7675 158.146C90.4336 153.574 85.4955 137.735 100.162 133.163" stroke="white" stroke-opacity="0.08" stroke-width="2" stroke-miterlimit="10"/>
<path d="M-119.68 253.811C-105.016 249.239 -100.078 265.078 -85.4121 260.505C-70.7456 255.933 -75.6837 240.094 -61.0201 235.523C-46.3567 230.951 -41.4161 246.789 -26.75 242.217C-12.0839 237.644 -17.0245 221.806 -2.35834 217.234C12.3081 212.661 17.246 228.5 31.9093 223.929C46.573 219.357 41.6376 203.517 56.3037 198.945C70.9699 194.372 75.908 210.211 90.5742 205.639C105.24 201.066 100.302 185.228 114.969 180.655" stroke="white" stroke-opacity="0.08" stroke-width="2" stroke-miterlimit="10"/>
<path d="M-149.293 158.825C-134.629 154.254 -129.692 170.092 -115.025 165.52C-100.359 160.948 -105.297 145.109 -90.6335 140.537C-75.9702 135.966 -71.0295 151.804 -56.3634 147.231C-41.6973 142.659 -46.6379 126.821 -31.9718 122.249C-17.3053 117.676 -12.3675 133.515 2.29587 128.943C16.9595 124.372 12.0242 108.532 26.6903 103.96C41.3564 99.3871 46.2946 115.226 60.9607 110.654C75.6269 106.081 70.6887 90.2426 85.3552 85.6699" stroke="white" stroke-opacity="0.08" stroke-width="2" stroke-miterlimit="10"/>
<path d="M-171.502 87.5859C-156.838 83.0143 -151.9 98.8531 -137.234 94.2805C-122.568 89.7082 -127.506 73.8693 -112.843 69.2977C-98.179 64.7262 -93.2383 80.5643 -78.5722 75.9917C-63.9061 71.4194 -68.8467 55.5816 -54.1806 51.0089C-39.5144 46.4366 -34.5766 62.2755 -19.9129 57.7039C-5.24927 53.1323 -10.1846 37.2928 4.4815 32.7203C19.1476 28.1479 24.0855 43.9867 38.7516 39.4144C53.4177 34.8418 48.4799 19.0031 63.146 14.4307" stroke="white" stroke-opacity="0.08" stroke-width="2" stroke-miterlimit="10"/>
<path d="M-112.275 277.557C-97.6121 272.986 -92.6739 288.824 -78.0078 284.252C-63.3416 279.679 -68.2794 263.841 -53.6161 259.269C-38.9524 254.697 -34.0118 270.536 -19.3457 265.963C-4.67954 261.391 -9.62017 245.553 5.04596 240.98C19.7121 236.408 24.6499 252.247 39.3136 247.675C53.9773 243.104 49.0419 227.264 63.708 222.691C78.3742 218.119 83.312 233.958 97.9781 229.386C112.644 224.813 107.706 208.974 122.373 204.402" stroke="white" stroke-opacity="0.08" stroke-width="2" stroke-miterlimit="10"/>
<path d="M-141.889 182.571C-127.225 178 -122.287 193.839 -107.621 189.266C-92.9549 184.694 -97.8927 168.855 -83.2294 164.284C-68.5657 159.712 -63.6251 175.55 -48.9589 170.978C-34.2928 166.405 -39.2334 150.567 -24.5673 145.995C-9.90117 141.423 -4.96333 157.261 9.70035 152.689C24.364 148.118 19.4286 132.278 34.0948 127.706C48.7609 123.134 53.6987 138.972 68.3649 134.4C83.031 129.828 78.0932 113.989 92.7593 109.417" stroke="white" stroke-opacity="0.08" stroke-width="2" stroke-miterlimit="10"/>
<path d="M-164.1 111.332C-149.436 106.761 -144.498 122.6 -129.832 118.027C-115.166 113.455 -120.104 97.616 -105.44 93.0444C-90.7768 88.4728 -85.8362 104.311 -71.1701 99.7383C-56.5039 95.166 -61.4445 79.3282 -46.7784 74.7556C-32.1119 70.1833 -27.1741 86.0221 -12.5108 81.4505C2.15289 76.8789 -2.78247 61.0394 11.8837 56.4668C26.5498 51.8945 31.488 67.7333 46.1541 63.1607C60.8202 58.5884 55.8821 42.7495 70.5485 38.1772" stroke="white" stroke-opacity="0.08" stroke-width="2" stroke-miterlimit="10"/>
<path d="M-127.082 230.064C-112.419 225.493 -107.481 241.331 -92.8144 236.759C-78.1483 232.187 -83.0861 216.348 -68.4228 211.776C-53.7591 207.205 -48.8185 223.043 -34.1523 218.47C-19.4862 213.898 -24.4268 198.06 -9.76068 193.488C4.90546 188.915 9.84328 204.754 24.507 200.182C39.1706 195.611 34.2353 179.771 48.9014 175.199C63.5675 170.626 68.5054 186.465 83.1715 181.893C97.8376 177.32 92.8998 161.481 107.566 156.909" stroke="white" stroke-opacity="0.08" stroke-width="2" stroke-miterlimit="10"/>
<path d="M-156.695 135.079C-142.032 130.507 -137.094 146.346 -122.428 141.774C-107.762 137.201 -112.699 121.362 -98.036 116.791C-83.3723 112.219 -78.4317 128.057 -63.7656 123.485C-49.0994 118.912 -54.0401 103.074 -39.3739 98.502C-24.7078 93.9294 -19.77 109.768 -5.10631 105.197C9.55737 100.625 4.62201 84.7855 19.2881 80.2132C33.9543 75.6406 38.8921 91.4794 53.5582 86.9071C68.2244 82.3345 63.2865 66.496 77.9527 61.9233" stroke="white" stroke-opacity="0.08" stroke-width="2" stroke-miterlimit="10"/>
<path d="M-178.906 63.8399C-164.243 59.2683 -159.305 75.1068 -144.639 70.5345C-129.972 65.9622 -134.91 50.1234 -120.247 45.5518C-105.583 40.9802 -100.643 56.818 -85.9767 52.2457C-71.3106 47.6734 -76.2512 31.8354 -61.5851 27.263C-46.9186 22.6906 -41.9808 38.5292 -27.3174 33.9577C-12.6538 29.3862 -17.5891 13.5466 -2.92301 8.97419C11.7431 4.4018 16.6813 20.2405 31.3474 15.6681C46.0136 11.0957 41.0754 -4.74303 55.7419 -9.31543" stroke="white" stroke-opacity="0.08" stroke-width="2" stroke-miterlimit="10"/>
<path d="M-107.338 293.396C-92.6742 288.824 -87.7364 304.663 -73.0703 300.091C-58.4041 295.518 -63.3419 279.679 -48.6786 275.108C-34.0149 270.536 -29.0743 286.374 -14.4082 281.802C0.257944 277.229 -4.68267 261.391 9.98346 256.819C24.6496 252.247 29.5878 268.085 44.2511 263.514C58.9148 258.942 53.9794 243.103 68.6455 238.53C83.3117 233.958 88.2495 249.796 102.916 245.224C117.582 240.652 112.644 224.813 127.31 220.241" stroke="white" stroke-opacity="0.08" stroke-width="2" stroke-miterlimit="10"/>
<path d="M-136.951 198.41C-122.287 193.839 -117.35 209.678 -102.684 205.105C-88.0174 200.533 -92.9552 184.694 -78.2919 180.123C-63.6282 175.551 -58.6876 191.389 -44.0215 186.816C-29.3553 182.244 -34.2959 166.406 -19.6298 161.834C-4.96368 157.261 -0.0255107 173.1 14.6378 168.528C29.3015 163.957 24.3661 148.117 39.0323 143.545C53.6984 138.973 58.6362 154.811 73.3023 150.239C87.9688 145.667 83.0307 129.828 97.6968 125.255" stroke="white" stroke-opacity="0.08" stroke-width="2" stroke-miterlimit="10"/>
<path d="M-122.145 245.903C-107.481 241.331 -102.543 257.17 -87.8769 252.598C-73.2108 248.025 -78.1486 232.186 -63.4853 227.615C-48.8216 223.044 -43.8809 238.881 -29.2148 234.309C-14.5487 229.736 -19.4893 213.899 -4.82318 209.326C9.84296 204.754 14.7811 220.593 29.4445 216.021C44.1081 211.449 39.1728 195.61 53.8389 191.038C68.505 186.465 73.4429 202.304 88.109 197.731C102.775 193.159 97.8373 177.32 112.503 172.748" stroke="white" stroke-opacity="0.08" stroke-width="2" stroke-miterlimit="10"/>
<path d="M-151.758 150.918C-137.094 146.346 -132.156 162.185 -117.49 157.612C-102.824 153.04 -107.762 137.201 -93.0986 132.629C-78.4349 128.058 -73.4943 143.896 -58.8282 139.324C-44.162 134.751 -49.1026 118.913 -34.4365 114.341C-19.7704 109.768 -14.8322 125.607 -0.16888 121.036C14.4948 116.464 9.55942 100.624 24.2256 96.0522C38.8917 91.4796 43.8295 107.318 58.4956 102.746C73.1621 98.1735 68.2239 82.335 82.8901 77.7623" stroke="white" stroke-opacity="0.08" stroke-width="2" stroke-miterlimit="10"/>
<path d="M-173.967 79.6781C-159.303 75.1065 -154.365 90.9454 -139.699 86.3728C-125.033 81.8005 -129.971 65.9616 -115.307 61.39C-100.644 56.8184 -95.7034 72.6566 -81.0373 68.0839C-66.3712 63.5116 -71.3114 47.6739 -56.6453 43.1012C-41.9792 38.5289 -37.0414 54.3678 -22.3777 49.7962C-7.71436 45.2246 -12.6497 29.385 2.01641 24.8126C16.6825 20.2402 21.6207 36.079 36.2868 31.5065C50.953 26.9341 46.0152 11.0953 60.6813 6.52295" stroke="white" stroke-opacity="0.08" stroke-width="2" stroke-miterlimit="10"/>
<path d="M-114.742 269.649C-100.079 265.078 -95.1407 280.917 -80.4745 276.344C-65.8084 271.772 -70.7466 255.933 -56.0829 251.361C-41.4196 246.79 -36.479 262.628 -21.8128 258.055C-7.1467 253.483 -12.087 237.645 2.57917 233.072C17.2453 228.5 22.1831 244.339 36.8468 239.767C51.5101 235.196 46.5748 219.356 61.2409 214.784C75.907 210.211 80.8452 226.05 95.5113 221.478C110.177 216.905 105.24 201.067 119.906 196.494" stroke="white" stroke-opacity="0.08" stroke-width="2" stroke-miterlimit="10"/>
<path d="M-144.355 174.664C-129.692 170.092 -124.754 185.931 -110.088 181.359C-95.4216 176.786 -100.36 160.948 -85.6961 156.376C-71.0327 151.804 -66.0921 167.642 -51.426 163.07C-36.7595 158.498 -41.7001 142.659 -27.034 138.087C-12.3678 133.515 -7.43002 149.353 7.23366 144.782C21.897 140.21 16.9616 124.371 31.6278 119.798C46.2939 115.226 51.232 131.065 65.8982 126.492C80.5643 121.92 75.6265 106.081 90.2926 101.509" stroke="white" stroke-opacity="0.08" stroke-width="2" stroke-miterlimit="10"/>
<path d="M-166.565 103.425C-151.901 98.8533 -146.963 114.692 -132.297 110.119C-117.631 105.547 -122.569 89.7084 -107.905 85.1368C-93.2418 80.5652 -88.3012 96.4033 -73.635 91.8307C-58.9689 87.2584 -63.9095 71.4206 -49.2434 66.848C-34.5773 62.2757 -29.6391 78.1145 -14.9758 73.5429C-0.312078 68.9713 -5.24745 53.1318 9.41868 48.5591C24.0848 43.9868 29.0226 59.8257 43.6888 55.2531C58.3552 50.6808 53.4171 34.8421 68.0832 30.2697" stroke="white" stroke-opacity="0.08" stroke-width="2" stroke-miterlimit="10"/>
<path d="M-129.547 222.157C-114.884 217.585 -109.945 233.424 -95.2792 228.851C-80.6131 224.279 -85.5513 208.44 -70.8876 203.869C-56.2243 199.297 -51.2836 215.135 -36.6175 210.563C-21.9514 205.99 -26.8917 190.152 -12.2255 185.58C2.4406 181.008 7.37842 196.846 22.0421 192.275C36.7054 187.703 31.7701 171.864 46.4362 167.291C61.1023 162.719 66.0405 178.558 80.7066 173.985C95.3728 169.413 90.435 153.574 105.101 149.001" stroke="white" stroke-opacity="0.08" stroke-width="2" stroke-miterlimit="10"/>
<path d="M-159.162 127.171C-144.499 122.599 -139.56 138.438 -124.894 133.866C-110.228 129.293 -115.166 113.455 -100.503 108.883C-85.8394 104.312 -80.8987 120.149 -66.2326 115.577C-51.5665 111.004 -56.5068 95.1666 -41.8406 90.5943C-27.1745 86.0217 -22.2367 101.861 -7.57301 97.2889C7.09032 92.7173 2.15495 76.8778 16.8211 72.3055C31.4872 67.7329 36.4254 83.5717 51.0915 78.9994C65.7577 74.4268 60.8198 58.5883 75.486 54.0156" stroke="white" stroke-opacity="0.08" stroke-width="2" stroke-miterlimit="10"/>
<path d="M-181.371 55.9322C-166.708 51.3606 -161.77 67.1991 -147.103 62.6268C-132.437 58.0545 -137.375 42.2157 -122.712 37.6441C-108.048 33.0725 -103.108 48.9103 -88.4414 44.338C-73.7753 39.7657 -78.7159 23.9277 -64.0498 19.3553C-49.3837 14.7829 -44.4455 30.6216 -29.7822 26.05C-15.1185 21.4785 -20.0539 5.63887 -5.38773 1.06648C9.2784 -3.50593 14.2162 12.3328 28.8824 7.76039C43.5488 3.188 38.6107 -12.6507 53.2768 -17.2231" stroke="white" stroke-opacity="0.08" stroke-width="2" stroke-miterlimit="10"/>
<path d="M-102.408 309.211C-87.7449 304.639 -82.8067 320.478 -68.1406 315.906C-53.4744 311.333 -58.4126 295.495 -43.7489 290.923C-29.0853 286.352 -24.145 302.189 -9.4785 297.617C5.18763 293.045 0.246998 277.207 14.9131 272.634C29.5793 268.062 34.5171 283.901 49.1808 279.329C63.8441 274.757 58.9087 258.918 73.5752 254.346C88.2414 249.773 93.1792 265.612 107.845 261.04C122.511 256.467 117.574 240.628 132.24 236.056" stroke="white" stroke-opacity="0.08" stroke-width="2" stroke-miterlimit="10"/>
<path d="M-104.873 301.303C-90.2094 296.732 -85.2715 312.571 -70.6054 307.998C-55.9389 303.426 -60.8771 287.587 -46.2134 283.016C-31.5501 278.444 -26.6095 294.282 -11.9433 289.71C2.72279 285.137 -2.21783 269.299 12.4483 264.727C27.1144 260.154 32.0526 275.993 46.7159 271.421C61.3796 266.85 56.4442 251.01 71.1104 246.438C85.7765 241.866 90.7147 257.704 105.381 253.132C120.047 248.56 115.109 232.721 129.775 228.148" stroke="white" stroke-opacity="0.08" stroke-width="2" stroke-miterlimit="10"/>
</g>
</svg>
