<svg width="152" height="334" viewBox="0 0 152 334" fill="none" xmlns="http://www.w3.org/2000/svg">
<mask id="mask0_304_1130" style="mask-type:luminance" maskUnits="userSpaceOnUse" x="33" y="33" width="268" height="268">
<path d="M127.309 39.6913C56.9981 61.6121 17.7704 136.381 39.6913 206.691C61.6122 277.002 136.381 316.23 206.691 294.309C277.002 272.388 316.23 197.619 294.309 127.309C272.388 56.9981 197.619 17.7704 127.309 39.6913Z" fill="white"/>
</mask>
<g mask="url(#mask0_304_1130)">
<path d="M206.422 292.614C276.145 270.876 315.045 196.733 293.308 127.011C271.571 57.2878 197.428 18.3877 127.705 40.125C57.9821 61.8622 19.0821 136.005 40.8193 205.728C62.5565 275.451 136.699 314.351 206.422 292.614Z" fill="#407BFF"/>
<path d="M47.7238 232.458C63.635 227.497 68.9935 244.684 84.9078 239.722C100.822 234.761 95.4636 217.574 111.375 212.613C127.287 207.653 132.648 224.839 148.562 219.877C164.477 214.916 159.116 197.73 175.03 192.768C190.944 187.807 196.302 204.993 212.214 200.033C228.125 195.072 222.77 177.885 238.684 172.923C254.599 167.961 259.957 185.148 275.871 180.186C291.785 175.225 286.427 158.038 302.342 153.077" stroke="white" stroke-opacity="0.08" stroke-width="2" stroke-miterlimit="10"/>
<path d="M63.7927 283.992C79.704 279.032 85.0624 296.218 100.977 291.257C116.891 286.295 111.533 269.108 127.444 264.148C143.356 259.188 148.717 276.373 164.631 271.412C180.546 266.45 175.185 249.264 191.099 244.303C207.013 239.341 212.371 256.528 228.283 251.567C244.194 246.607 238.839 229.419 254.753 224.458C270.668 219.496 276.026 236.683 291.94 231.721C307.854 226.759 302.496 209.573 318.411 204.611" stroke="white" stroke-opacity="0.08" stroke-width="2" stroke-miterlimit="10"/>
<path d="M31.6592 180.924C47.5705 175.963 52.929 193.15 68.8433 188.188C84.7576 183.227 79.3991 166.04 95.3108 161.079C111.222 156.119 116.583 173.304 132.498 168.343C148.412 163.381 143.051 146.195 158.965 141.234C174.88 136.272 180.238 153.459 196.149 148.498C212.061 143.538 206.705 126.35 222.62 121.389C238.534 116.427 243.892 133.614 259.807 128.652C275.721 123.691 270.363 106.504 286.277 101.542" stroke="white" stroke-opacity="0.08" stroke-width="2" stroke-miterlimit="10"/>
<path d="M7.55762 103.621C23.4691 98.6605 28.8273 115.847 44.7415 110.886C60.6558 105.924 55.2978 88.7373 71.2094 83.7766C87.1207 78.8159 92.4818 96.002 108.396 91.0402C124.31 86.0788 118.949 68.8931 134.864 63.9313C150.778 58.9699 156.136 76.1567 172.048 71.196C187.959 66.2354 182.604 49.0478 198.518 44.086C214.432 39.1246 219.791 56.3114 235.705 51.35C251.62 46.3882 246.261 29.2015 262.175 24.24" stroke="white" stroke-opacity="0.08" stroke-width="2" stroke-miterlimit="10"/>
<path d="M71.8251 309.76C87.7367 304.799 93.0948 321.986 109.009 317.024C124.923 312.063 119.565 294.876 135.477 289.915C151.388 284.955 156.749 302.141 172.664 297.179C188.578 292.218 183.217 275.032 199.131 270.07C215.046 265.109 220.404 282.295 236.315 277.335C252.227 272.374 246.871 255.187 262.786 250.225C278.7 245.263 284.059 262.45 299.973 257.489C315.887 252.527 310.529 235.34 326.443 230.379" stroke="white" stroke-opacity="0.08" stroke-width="2" stroke-miterlimit="10"/>
<path d="M39.6914 206.691C55.6031 201.73 60.9611 218.917 76.8754 213.956C92.7897 208.994 87.4317 191.807 103.343 186.847C119.255 181.886 124.616 199.072 140.53 194.11C156.444 189.149 151.083 171.963 166.998 167.001C182.912 162.04 188.27 179.226 204.182 174.266C220.093 169.305 214.738 152.118 230.652 147.156C246.566 142.195 251.925 159.381 267.839 154.42C283.754 149.458 278.395 132.271 294.309 127.31" stroke="white" stroke-opacity="0.08" stroke-width="2" stroke-miterlimit="10"/>
<path d="M15.5902 129.389C31.5017 124.428 36.8599 141.615 52.7743 136.653C68.6886 131.692 63.3302 114.505 79.2418 109.544C95.1535 104.584 100.515 121.77 116.429 116.808C132.343 111.847 126.982 94.661 142.896 89.6992C158.811 84.7378 164.169 101.925 180.08 96.9639C195.992 92.0033 190.636 74.8157 206.551 69.8539C222.465 64.8925 227.823 82.0793 243.738 77.1175C259.652 72.1561 254.294 54.9692 270.208 50.0078" stroke="white" stroke-opacity="0.08" stroke-width="2" stroke-miterlimit="10"/>
<path d="M55.7581 258.226C71.6697 253.265 77.0278 270.451 92.9421 265.49C108.856 260.529 103.498 243.342 119.41 238.381C135.321 233.421 140.682 250.606 156.597 245.645C172.511 240.683 167.15 223.497 183.064 218.536C198.979 213.574 204.337 230.761 220.248 225.801C236.16 220.84 230.804 203.652 246.719 198.691C262.633 193.729 267.992 210.916 283.906 205.954C299.82 200.993 294.462 183.806 310.376 178.844" stroke="white" stroke-opacity="0.08" stroke-width="2" stroke-miterlimit="10"/>
<path d="M23.6246 155.156C39.5362 150.195 44.8942 167.382 60.8085 162.42C76.7229 157.459 71.3648 140.272 87.2761 135.311C103.188 130.351 108.549 147.537 124.463 142.575C140.377 137.613 135.016 120.428 150.931 115.466C166.845 110.504 172.203 127.691 188.115 122.731C204.026 117.77 198.671 100.582 214.585 95.6209C230.5 90.6591 235.858 107.846 251.772 102.884C267.687 97.9227 262.328 80.7362 278.242 75.7744" stroke="white" stroke-opacity="0.08" stroke-width="2" stroke-miterlimit="10"/>
<path d="M-0.474365 77.8544C15.4371 72.8938 20.7953 90.0802 36.7097 85.1188C52.6241 80.1574 47.2656 62.9706 63.1773 58.0099C79.0889 53.0492 84.45 70.2349 100.364 65.2735C116.279 60.3121 110.918 43.126 126.832 38.1646C142.746 33.2031 148.104 50.3896 164.016 45.429C179.927 40.4683 174.572 23.2809 190.486 18.3193C206.401 13.3578 211.759 30.5445 227.673 25.5829C243.587 20.6214 238.229 3.43469 254.144 -1.52686" stroke="white" stroke-opacity="0.08" stroke-width="2" stroke-miterlimit="10"/>
<path d="M45.0492 223.877C60.9608 218.917 66.3189 236.103 82.2332 231.142C98.1479 226.18 92.7895 208.993 108.701 204.033C124.612 199.072 129.973 216.258 145.888 211.296C161.802 206.335 156.441 189.149 172.355 184.187C188.27 179.226 193.628 196.413 209.539 191.452C225.451 186.492 220.096 169.304 236.01 164.342C251.924 159.381 257.283 176.568 273.197 171.606C289.111 166.644 283.753 149.458 299.667 144.496" stroke="white" stroke-opacity="0.08" stroke-width="2" stroke-miterlimit="10"/>
<path d="M61.116 275.412C77.0276 270.451 82.3857 287.638 98.3 282.676C114.215 277.715 108.856 260.528 124.768 255.568C140.679 250.607 146.04 267.793 161.955 262.831C177.869 257.869 172.508 240.684 188.422 235.722C204.337 230.76 209.695 247.947 225.606 242.987C241.518 238.026 236.162 220.838 252.077 215.877C267.991 210.915 273.349 228.102 289.264 223.141C305.178 218.179 299.82 200.992 315.734 196.031" stroke="white" stroke-opacity="0.08" stroke-width="2" stroke-miterlimit="10"/>
<path d="M28.9824 172.343C44.8939 167.382 50.252 184.569 66.1663 179.607C82.081 174.646 76.7225 157.459 92.6342 152.498C108.545 147.538 113.907 164.724 129.821 159.762C145.735 154.801 140.374 137.615 156.288 132.653C172.203 127.692 177.561 144.878 193.472 139.918C209.384 134.957 204.029 117.77 219.943 112.808C235.857 107.846 241.216 125.033 257.13 120.072C273.044 115.11 267.686 97.9235 283.601 92.9617" stroke="white" stroke-opacity="0.08" stroke-width="2" stroke-miterlimit="10"/>
<path d="M4.8833 95.0406C20.7948 90.0799 26.153 107.267 42.0674 102.305C57.9817 97.3435 52.6236 80.1567 68.5349 75.196C84.4465 70.2354 89.8076 87.4214 105.722 82.4596C121.636 77.4982 116.275 60.3125 132.189 55.3507C148.104 50.3893 153.462 67.5761 169.373 62.6155C185.285 57.6548 179.93 40.4672 195.844 35.5056C211.758 30.5441 217.116 47.7308 233.031 42.7694C248.945 37.8077 243.587 20.621 259.501 15.6594" stroke="white" stroke-opacity="0.08" stroke-width="2" stroke-miterlimit="10"/>
<path d="M69.1504 301.179C85.0617 296.219 90.4201 313.406 106.334 308.444C122.249 303.482 116.891 286.295 132.802 281.335C148.714 276.374 154.075 293.56 169.989 288.598C185.903 283.637 180.542 266.451 196.457 261.489C212.371 256.528 217.729 273.715 233.641 268.754C249.552 263.794 244.197 246.606 260.111 241.644C276.025 236.683 281.383 253.87 297.298 248.908C313.212 243.946 307.854 226.76 323.768 221.798" stroke="white" stroke-opacity="0.08" stroke-width="2" stroke-miterlimit="10"/>
<path d="M37.0168 198.11C52.9281 193.149 58.2866 210.336 74.2009 205.374C90.1152 200.413 84.7572 183.226 100.668 178.265C116.58 173.305 121.941 190.49 137.855 185.529C153.77 180.568 148.409 163.382 164.323 158.42C180.237 153.459 185.595 170.645 201.507 165.685C217.419 160.724 212.063 143.536 227.978 138.575C243.892 133.613 249.25 150.8 265.164 145.838C281.079 140.877 275.721 123.69 291.635 118.729" stroke="white" stroke-opacity="0.08" stroke-width="2" stroke-miterlimit="10"/>
<path d="M12.9156 120.808C28.8271 115.847 34.1854 133.034 50.0995 128.072C66.0142 123.111 60.6558 105.924 76.5674 100.963C92.4787 96.0028 97.8398 113.189 113.754 108.227C129.668 103.266 124.307 86.0799 140.222 81.1181C156.136 76.1567 161.494 93.3435 177.406 88.3829C193.317 83.4222 187.962 66.2346 203.876 61.2728C219.79 56.3114 225.149 73.4982 241.063 68.5364C256.978 63.575 251.619 46.3882 267.534 41.4268" stroke="white" stroke-opacity="0.08" stroke-width="2" stroke-miterlimit="10"/>
<path d="M53.0836 249.645C68.9949 244.684 74.3533 261.87 90.2676 256.909C106.182 251.948 100.824 234.761 116.735 229.8C132.647 224.839 138.008 242.025 153.922 237.064C169.837 232.102 164.475 214.917 180.39 209.955C196.304 204.993 201.662 222.18 217.574 217.22C233.485 212.259 228.13 195.071 244.044 190.109C259.959 185.148 265.317 202.335 281.231 197.373C297.145 192.412 291.787 175.225 307.702 170.263" stroke="white" stroke-opacity="0.08" stroke-width="2" stroke-miterlimit="10"/>
<path d="M20.9501 146.575C36.8616 141.615 42.2198 158.801 58.1341 153.84C74.0484 148.878 68.6904 131.692 84.6016 126.731C100.513 121.77 105.874 138.956 121.789 133.995C137.703 129.033 132.342 111.847 148.256 106.886C164.171 101.924 169.529 119.111 185.44 114.15C201.352 109.19 195.997 92.002 211.911 87.0405C227.825 82.0787 233.183 99.2656 249.098 94.3041C265.012 89.3423 259.654 72.1559 275.568 67.1941" stroke="white" stroke-opacity="0.08" stroke-width="2" stroke-miterlimit="10"/>
<path d="M-3.15112 69.2736C12.7604 64.313 18.1186 81.4994 34.0329 76.538C49.9474 71.5766 44.589 54.3898 60.5006 49.4291C76.4119 44.4684 81.773 61.6541 97.6873 56.6927C113.602 51.7313 108.24 34.5454 124.155 29.5838C140.069 24.6222 145.428 41.8088 161.339 36.8483C177.25 31.8877 171.895 14.7 187.809 9.73851C203.724 4.77698 209.082 21.9637 224.996 17.0021C240.911 12.0406 235.552 -5.14613 251.467 -10.1077" stroke="white" stroke-opacity="0.08" stroke-width="2" stroke-miterlimit="10"/>
<path d="M77.1827 326.946C93.0944 321.986 98.4524 339.172 114.367 334.211C130.281 329.249 124.923 312.063 140.835 307.102C156.746 302.141 162.107 319.327 178.021 314.366C193.936 309.404 188.575 292.218 204.489 287.257C220.403 282.295 225.762 299.482 241.673 294.521C257.585 289.561 252.229 272.373 268.143 267.412C284.058 262.45 289.416 279.637 305.33 274.675C321.245 269.714 315.886 252.527 331.801 247.565" stroke="white" stroke-opacity="0.08" stroke-width="2" stroke-miterlimit="10"/>
<path d="M45.0492 223.877C60.9608 218.917 66.3189 236.103 82.2332 231.142C98.1479 226.18 92.7895 208.993 108.701 204.033C124.612 199.072 129.973 216.258 145.888 211.296C161.802 206.335 156.441 189.149 172.355 184.187C188.27 179.226 193.628 196.413 209.539 191.452C225.451 186.492 220.096 169.304 236.01 164.342C251.924 159.381 257.283 176.568 273.197 171.606C289.111 166.644 283.753 149.458 299.667 144.496" stroke="white" stroke-opacity="0.08" stroke-width="2" stroke-miterlimit="10"/>
<path d="M61.116 275.412C77.0276 270.451 82.3857 287.638 98.3 282.676C114.215 277.715 108.856 260.528 124.768 255.568C140.679 250.607 146.04 267.793 161.955 262.831C177.869 257.869 172.508 240.684 188.422 235.722C204.337 230.76 209.695 247.947 225.606 242.987C241.518 238.026 236.162 220.838 252.077 215.877C267.991 210.915 273.349 228.102 289.264 223.141C305.178 218.179 299.82 200.992 315.734 196.031" stroke="white" stroke-opacity="0.08" stroke-width="2" stroke-miterlimit="10"/>
<path d="M28.9824 172.343C44.8939 167.382 50.252 184.569 66.1663 179.607C82.081 174.646 76.7225 157.459 92.6342 152.498C108.545 147.538 113.907 164.724 129.821 159.762C145.735 154.801 140.374 137.615 156.288 132.653C172.203 127.692 177.561 144.878 193.472 139.918C209.384 134.957 204.029 117.77 219.943 112.808C235.857 107.846 241.216 125.033 257.13 120.072C273.044 115.11 267.686 97.9235 283.601 92.9617" stroke="white" stroke-opacity="0.08" stroke-width="2" stroke-miterlimit="10"/>
<path d="M4.8833 95.0406C20.7948 90.0799 26.153 107.267 42.0674 102.305C57.9817 97.3435 52.6236 80.1567 68.5349 75.196C84.4465 70.2354 89.8076 87.4214 105.722 82.4596C121.636 77.4982 116.275 60.3125 132.189 55.3507C148.104 50.3893 153.462 67.5761 169.373 62.6155C185.285 57.6548 179.93 40.4672 195.844 35.5056C211.758 30.5441 217.116 47.7308 233.031 42.7694C248.945 37.8077 243.587 20.621 259.501 15.6594" stroke="white" stroke-opacity="0.08" stroke-width="2" stroke-miterlimit="10"/>
<path d="M69.1504 301.179C85.0617 296.219 90.4201 313.406 106.334 308.444C122.249 303.482 116.891 286.295 132.802 281.335C148.714 276.374 154.075 293.56 169.989 288.598C185.903 283.637 180.542 266.451 196.457 261.489C212.371 256.528 217.729 273.715 233.641 268.754C249.552 263.794 244.197 246.606 260.111 241.644C276.025 236.683 281.383 253.87 297.298 248.908C313.212 243.946 307.854 226.76 323.768 221.798" stroke="white" stroke-opacity="0.08" stroke-width="2" stroke-miterlimit="10"/>
<path d="M37.0168 198.11C52.9281 193.149 58.2866 210.336 74.2009 205.374C90.1152 200.413 84.7572 183.226 100.668 178.265C116.58 173.305 121.941 190.49 137.855 185.529C153.77 180.568 148.409 163.382 164.323 158.42C180.237 153.459 185.595 170.645 201.507 165.685C217.419 160.724 212.063 143.536 227.978 138.575C243.892 133.613 249.25 150.8 265.164 145.838C281.079 140.877 275.721 123.69 291.635 118.729" stroke="white" stroke-opacity="0.08" stroke-width="2" stroke-miterlimit="10"/>
<path d="M12.9156 120.808C28.8271 115.847 34.1854 133.034 50.0995 128.072C66.0142 123.111 60.6558 105.924 76.5674 100.963C92.4787 96.0028 97.8398 113.189 113.754 108.227C129.668 103.266 124.307 86.0799 140.222 81.1181C156.136 76.1567 161.494 93.3435 177.406 88.3829C193.317 83.4222 187.962 66.2346 203.876 61.2728C219.79 56.3114 225.149 73.4982 241.063 68.5364C256.978 63.575 251.619 46.3882 267.534 41.4268" stroke="white" stroke-opacity="0.08" stroke-width="2" stroke-miterlimit="10"/>
<path d="M53.0836 249.645C68.9949 244.684 74.3533 261.87 90.2676 256.909C106.182 251.948 100.824 234.761 116.735 229.8C132.647 224.839 138.008 242.025 153.922 237.064C169.837 232.102 164.475 214.917 180.39 209.955C196.304 204.993 201.662 222.18 217.574 217.22C233.485 212.259 228.13 195.071 244.044 190.109C259.959 185.148 265.317 202.335 281.231 197.373C297.145 192.412 291.787 175.225 307.702 170.263" stroke="white" stroke-opacity="0.08" stroke-width="2" stroke-miterlimit="10"/>
<path d="M20.9501 146.575C36.8616 141.615 42.2198 158.801 58.1341 153.84C74.0484 148.878 68.6904 131.692 84.6016 126.731C100.513 121.77 105.874 138.956 121.789 133.995C137.703 129.033 132.342 111.847 148.256 106.886C164.171 101.924 169.529 119.111 185.44 114.15C201.352 109.19 195.997 92.002 211.911 87.0405C227.825 82.0787 233.183 99.2656 249.098 94.3041C265.012 89.3423 259.654 72.1559 275.568 67.1941" stroke="white" stroke-opacity="0.08" stroke-width="2" stroke-miterlimit="10"/>
<path d="M-3.15112 69.2736C12.7604 64.313 18.1186 81.4994 34.0329 76.538C49.9474 71.5766 44.589 54.3898 60.5006 49.4291C76.4119 44.4684 81.773 61.6541 97.6873 56.6927C113.602 51.7313 108.24 34.5454 124.155 29.5838C140.069 24.6222 145.428 41.8088 161.339 36.8483C177.25 31.8877 171.895 14.7 187.809 9.73851C203.724 4.77698 209.082 21.9637 224.996 17.0021C240.911 12.0406 235.552 -5.14613 251.467 -10.1077" stroke="white" stroke-opacity="0.08" stroke-width="2" stroke-miterlimit="10"/>
<path d="M74.5081 318.366C90.4197 313.406 95.7778 330.592 111.692 325.631C127.606 320.669 122.248 303.483 138.16 298.522C154.071 293.561 159.432 310.747 175.347 305.786C191.261 300.824 185.9 283.638 201.814 278.677C217.728 273.715 223.087 290.902 238.998 285.941C254.91 280.98 249.554 263.793 265.469 258.831C281.383 253.87 286.741 271.056 302.655 266.095C318.57 261.134 313.212 243.947 329.126 238.985" stroke="white" stroke-opacity="0.08" stroke-width="2" stroke-miterlimit="10"/>
<path d="M42.3745 215.297C58.2862 210.336 63.6442 227.523 79.5585 222.561C95.4728 217.6 90.1148 200.413 106.026 195.452C121.938 190.492 127.299 207.677 143.213 202.716C159.127 197.754 153.766 180.569 169.681 175.607C185.595 170.645 190.953 187.832 206.865 182.872C222.776 177.911 217.421 160.723 233.335 155.762C249.25 150.8 254.608 167.987 270.522 163.025C286.437 158.064 281.078 140.877 296.992 135.916" stroke="white" stroke-opacity="0.08" stroke-width="2" stroke-miterlimit="10"/>
<path d="M58.4412 266.831C74.3528 261.87 79.7109 279.057 95.6252 274.095C111.54 269.134 106.181 251.947 122.093 246.987C138.004 242.026 143.365 259.212 159.28 254.25C175.194 249.289 169.833 232.103 185.747 227.141C201.662 222.18 207.02 239.366 222.931 234.406C238.843 229.445 233.488 212.258 249.402 207.296C265.316 202.334 270.674 219.521 286.589 214.56C302.503 209.598 297.145 192.412 313.059 187.45" stroke="white" stroke-opacity="0.08" stroke-width="2" stroke-miterlimit="10"/>
<path d="M26.3077 163.762C42.2193 158.801 47.5774 175.988 63.4917 171.026C79.406 166.065 74.048 148.878 89.9592 143.917C105.871 138.957 111.232 156.142 127.146 151.181C143.061 146.219 137.699 129.034 153.614 124.072C169.528 119.11 174.887 136.297 190.798 131.336C206.709 126.376 201.354 109.188 217.268 104.227C233.183 99.265 238.541 116.452 254.455 111.49C270.37 106.529 265.011 89.3422 280.926 84.3804" stroke="white" stroke-opacity="0.08" stroke-width="2" stroke-miterlimit="10"/>
<path d="M2.20874 86.4595C18.1202 81.4989 23.4784 98.6857 39.3929 93.7239C55.3072 88.7625 49.9488 71.5756 65.8604 66.615C81.7717 61.6543 87.1328 78.8404 103.047 73.8786C118.961 68.9172 113.601 51.7315 129.515 46.7697C145.429 41.8082 150.787 58.9951 166.699 54.0344C182.61 49.0738 177.255 31.8861 193.169 26.9246C209.083 21.963 214.442 39.1498 230.356 34.1882C246.271 29.2266 240.912 12.0399 256.827 7.07837" stroke="white" stroke-opacity="0.08" stroke-width="2" stroke-miterlimit="10"/>
<path d="M66.4736 292.599C82.3849 287.638 87.7433 304.825 103.658 299.863C119.572 294.902 114.214 277.715 130.125 272.754C146.036 267.794 151.398 284.98 167.312 280.018C183.226 275.057 177.865 257.871 193.78 252.909C209.694 247.948 215.052 265.135 230.964 260.174C246.875 255.213 241.52 238.026 257.434 233.064C273.348 228.102 278.707 245.289 294.621 240.328C310.535 235.366 305.177 218.18 321.092 213.218" stroke="white" stroke-opacity="0.08" stroke-width="2" stroke-miterlimit="10"/>
<path d="M34.3401 189.529C50.2515 184.568 55.6099 201.755 71.5243 196.794C87.4386 191.832 82.0801 174.646 97.9918 169.685C113.903 164.724 119.264 181.91 135.178 176.948C151.093 171.987 145.732 154.801 161.646 149.84C177.561 144.878 182.919 162.065 198.83 157.104C214.742 152.143 209.386 134.956 225.301 129.994C241.215 125.033 246.573 142.219 262.488 137.258C278.402 132.296 273.044 115.11 288.958 110.148" stroke="white" stroke-opacity="0.08" stroke-width="2" stroke-miterlimit="10"/>
<path d="M10.2407 112.227C26.1522 107.266 31.5104 124.453 47.4247 119.492C63.339 114.53 57.9809 97.3433 73.8922 92.3826C89.8039 87.4219 95.165 104.608 111.079 99.6462C126.994 94.6848 121.632 77.4991 137.547 72.5373C153.461 67.5759 158.82 84.7627 174.731 79.802C190.642 74.8414 185.287 57.6538 201.201 52.692C217.116 47.7306 222.474 64.9174 238.388 59.9556C254.303 54.9942 248.944 37.8075 264.859 32.8459" stroke="white" stroke-opacity="0.08" stroke-width="2" stroke-miterlimit="10"/>
<path d="M50.4089 241.064C66.3202 236.103 71.6786 253.29 87.593 248.328C103.507 243.367 98.1488 226.18 114.06 221.219C129.972 216.259 135.333 233.444 151.247 228.483C167.161 223.521 161.801 206.336 177.715 201.374C193.629 196.413 198.987 213.599 214.899 208.639C230.81 203.678 225.455 186.49 241.369 181.529C257.284 176.567 262.642 193.754 278.556 188.792C294.471 183.831 289.113 166.644 305.027 161.683" stroke="white" stroke-opacity="0.08" stroke-width="2" stroke-miterlimit="10"/>
<path d="M18.2733 137.994C34.1848 133.034 39.5432 150.22 55.4575 145.259C71.3718 140.297 66.0134 123.111 81.925 118.15C97.8363 113.189 103.197 130.375 119.112 125.414C135.026 120.452 129.665 103.266 145.58 98.3048C161.494 93.343 166.852 110.53 182.764 105.569C198.675 100.609 193.319 83.4209 209.234 78.4595C225.148 73.4977 230.507 90.6845 246.421 85.7231C262.335 80.7613 256.977 63.5748 272.891 58.613" stroke="white" stroke-opacity="0.08" stroke-width="2" stroke-miterlimit="10"/>
<path d="M-5.82581 60.6931C10.0856 55.7324 15.4439 72.9189 31.3582 67.9574C47.2725 62.996 41.9144 45.8092 57.8257 40.8485C73.7373 35.8879 79.0984 53.0736 95.0127 48.1121C110.927 43.1507 105.566 25.9648 121.48 21.0032C137.395 16.0417 142.753 33.2284 158.664 28.2677C174.576 23.3071 169.221 6.11949 185.135 1.15795C201.049 -3.80359 206.407 13.3831 222.322 8.42156C238.236 3.46003 232.878 -13.7267 248.792 -18.6882" stroke="white" stroke-opacity="0.08" stroke-width="2" stroke-miterlimit="10"/>
<path d="M79.8573 335.527C95.7686 330.567 101.127 347.753 117.041 342.792C132.956 337.83 127.597 320.644 143.509 315.683C159.42 310.722 164.781 327.908 180.696 322.947C196.61 317.985 191.249 300.799 207.163 295.838C223.078 290.876 228.436 308.063 244.347 303.102C260.259 298.142 254.903 280.954 270.818 275.993C286.732 271.031 292.09 288.218 308.005 283.256C323.919 278.295 318.561 261.108 334.475 256.146" stroke="white" stroke-opacity="0.08" stroke-width="2" stroke-miterlimit="10"/>
<path d="M77.1827 326.946C93.0944 321.986 98.4524 339.172 114.367 334.211C130.281 329.249 124.923 312.063 140.835 307.102C156.746 302.141 162.107 319.327 178.021 314.366C193.936 309.404 188.575 292.218 204.489 287.257C220.403 282.295 225.762 299.482 241.673 294.521C257.585 289.561 252.229 272.373 268.143 267.412C284.058 262.45 289.416 279.637 305.33 274.675C321.245 269.714 315.886 252.527 331.801 247.565" stroke="white" stroke-opacity="0.08" stroke-width="2" stroke-miterlimit="10"/>
</g>
</svg>
