<svg width="24" height="24" viewBox="0 0 36 38" fill="none" xmlns="http://www.w3.org/2000/svg">
<g id="Icon">
<circle id="Oval" opacity="0.15" cx="18" cy="18.4526" r="18" fill="#36B37E"/>
<path id="Icon_2" d="M15.5976 24.1889L10.7051 19.3257C10.5684 19.189 10.5 19.0132 10.5 18.7983C10.5 18.5835 10.5684 18.4077 10.7051 18.271L11.7891 17.2163C11.9258 17.06 12.0967 16.9819 12.3018 16.9819C12.5068 16.9819 12.6875 17.06 12.8437 17.2163L16.125 20.4975L23.1562 13.4663C23.3125 13.3101 23.4931 13.2319 23.6982 13.2319C23.9033 13.2319 24.0742 13.3101 24.2109 13.4663L25.2949 14.521C25.4316 14.6577 25.5 14.8335 25.5 15.0483C25.5 15.2632 25.4316 15.439 25.2949 15.5757L16.6523 24.1889C16.5156 24.3452 16.3398 24.4233 16.125 24.4233C15.9101 24.4233 15.7344 24.3452 15.5976 24.1889Z" fill="#36B37E"/>
</g>
</svg>
