<svg width="238" height="159" viewBox="0 0 238 159" fill="none" xmlns="http://www.w3.org/2000/svg">
<path d="M-189.484 76.4823C-173.576 92.3901 -190.759 109.573 -174.848 125.483C-158.937 141.394 -141.755 124.211 -125.847 140.119C-109.939 156.027 -127.119 173.212 -111.208 189.123C-95.2977 205.034 -78.1178 187.848 -62.2072 203.759C-46.2966 219.669 -63.4793 236.852 -47.5715 252.76C-31.6638 268.667 -14.4782 251.488 1.43239 267.398C17.343 283.309 0.160313 300.492 16.0709 316.402C31.9816 332.313 49.1642 315.13 65.0749 331.041" stroke="white" stroke-opacity="0.08" stroke-width="2" stroke-miterlimit="10"/>
<path d="M-241.005 128.005C-225.097 143.913 -242.28 161.095 -226.369 177.006C-210.459 192.916 -193.276 175.734 -177.368 191.642C-161.461 207.549 -178.64 224.735 -162.73 240.645C-146.819 256.556 -129.639 239.371 -113.729 255.281C-97.8181 271.192 -115.001 288.374 -99.093 304.282C-83.1853 320.19 -65.9997 303.01 -50.0891 318.921C-34.1785 334.831 -51.3612 352.014 -35.4506 367.925C-19.5399 383.835 -2.35724 366.653 13.5534 382.563" stroke="white" stroke-opacity="0.08" stroke-width="2" stroke-miterlimit="10"/>
<path d="M-137.96 24.9594C-122.052 40.8671 -139.235 58.0498 -123.324 73.9605C-107.414 89.8711 -90.2311 72.6884 -74.3234 88.5961C-58.4156 104.504 -75.5955 121.689 -59.6848 137.6C-43.7742 153.511 -26.5944 136.325 -10.6838 152.236C5.22683 168.146 -11.9559 185.329 3.95189 201.237C19.8596 217.145 37.0452 199.965 52.9558 215.875C68.8664 231.786 51.6838 248.969 67.5944 264.879C83.505 280.79 100.688 263.607 116.598 279.518" stroke="white" stroke-opacity="0.08" stroke-width="2" stroke-miterlimit="10"/>
<path d="M-60.6769 -52.3243C-44.7692 -36.4165 -61.9519 -19.2339 -46.0413 -3.32323C-30.1306 12.5874 -12.9479 -4.59531 2.95981 11.3124C18.8676 27.2202 1.68774 44.4058 17.5984 60.3164C33.509 76.227 50.6888 59.0414 66.5994 74.952C82.51 90.8627 65.3273 108.045 81.2351 123.953C97.1428 139.861 114.328 122.681 130.239 138.592C146.15 154.502 128.967 171.685 144.878 187.596C160.788 203.506 177.971 186.324 193.882 202.234" stroke="white" stroke-opacity="0.08" stroke-width="2" stroke-miterlimit="10"/>
<path d="M-163.722 50.7211C-147.814 66.6289 -164.997 83.8116 -149.086 99.7222C-133.176 115.633 -115.993 98.4501 -100.085 114.358C-84.1774 130.266 -101.357 147.451 -85.4466 163.362C-69.5359 179.272 -52.3561 162.087 -36.4455 177.997C-20.5349 193.908 -37.7176 211.091 -21.8098 226.999C-5.90208 242.906 11.2835 225.726 27.1941 241.637C43.1047 257.548 25.922 274.73 41.8327 290.641C57.7433 306.552 74.926 289.369 90.8366 305.28" stroke="white" stroke-opacity="0.08" stroke-width="2" stroke-miterlimit="10"/>
<path d="M-86.4367 -26.5631C-70.5289 -10.6553 -87.7116 6.52738 -71.801 22.438C-55.8904 38.3486 -38.7077 21.1659 -22.8 37.0737C-6.89221 52.9814 -24.072 70.167 -8.16141 86.0776C7.74921 101.988 24.929 84.8027 40.8397 100.713C56.7503 116.624 39.5676 133.807 55.4753 149.714C71.3831 165.622 88.5686 148.442 104.479 164.353C120.39 180.264 103.207 197.446 119.118 213.357C135.028 229.267 152.211 212.085 168.122 227.995" stroke="white" stroke-opacity="0.08" stroke-width="2" stroke-miterlimit="10"/>
<path d="M-215.243 102.244C-199.336 118.151 -216.518 135.334 -200.608 151.245C-184.697 167.155 -167.514 149.973 -151.607 165.88C-135.699 181.788 -152.879 198.974 -136.968 214.884C-121.057 230.795 -103.878 213.609 -87.967 229.52C-72.0564 245.431 -89.2391 262.613 -73.3313 278.521C-57.4236 294.429 -40.238 277.249 -24.3274 293.16C-8.41676 309.07 -25.5995 326.253 -9.68883 342.163C6.22179 358.074 23.4045 340.891 39.3151 356.802" stroke="white" stroke-opacity="0.08" stroke-width="2" stroke-miterlimit="10"/>
<path d="M-112.198 -0.801835C-96.2907 15.1059 -113.473 32.2886 -97.5627 48.1992C-81.6521 64.1098 -64.4694 46.9272 -48.5617 62.8349C-32.6539 78.7426 -49.8337 95.9282 -33.9231 111.839C-18.0125 127.749 -0.832685 110.564 15.0779 126.475C30.9886 142.385 13.8059 159.568 29.7136 175.476C45.6214 191.383 62.8069 174.203 78.7175 190.114C94.6282 206.025 77.4455 223.207 93.3561 239.118C109.267 255.029 126.449 237.846 142.36 253.757" stroke="white" stroke-opacity="0.08" stroke-width="2" stroke-miterlimit="10"/>
<path d="M-34.9152 -78.0855C-19.0075 -62.1778 -36.1902 -44.9951 -20.2795 -29.0845C-4.36891 -13.1738 12.8138 -30.3565 28.7215 -14.4488C44.6293 1.45896 27.4495 18.6445 43.3601 34.5551C59.2707 50.4658 76.4505 33.2802 92.3611 49.1908C108.272 65.1014 91.0891 82.2841 106.997 98.1919C122.905 114.1 140.09 96.9198 156.001 112.83C171.911 128.741 154.729 145.924 170.639 161.834C186.55 177.745 203.733 160.562 219.643 176.473" stroke="white" stroke-opacity="0.08" stroke-width="2" stroke-miterlimit="10"/>
<path d="M-180.905 67.9037C-164.998 83.8115 -182.18 100.994 -166.27 116.905C-150.359 132.815 -133.176 115.633 -117.269 131.54C-101.361 147.448 -118.541 164.634 -102.63 180.544C-86.7195 196.455 -69.5397 179.269 -53.6291 195.18C-37.7185 211.091 -54.9012 228.273 -38.9934 244.181C-23.0857 260.089 -5.90011 242.909 10.0105 258.82C25.9211 274.73 8.73844 291.913 24.6491 307.824C40.5597 323.734 57.7424 306.552 73.653 322.462" stroke="white" stroke-opacity="0.08" stroke-width="2" stroke-miterlimit="10"/>
<path d="M-232.427 119.426C-216.519 135.334 -233.702 152.517 -217.791 168.427C-201.881 184.338 -184.698 167.155 -168.79 183.063C-152.882 198.971 -170.062 216.156 -154.152 232.067C-138.241 247.977 -121.061 230.792 -105.151 246.703C-89.24 262.613 -106.423 279.796 -90.5149 295.704C-74.6072 311.611 -57.4216 294.432 -41.511 310.342C-25.6004 326.253 -42.783 343.435 -26.8724 359.346C-10.9618 375.257 6.22089 358.074 22.1315 373.985" stroke="white" stroke-opacity="0.08" stroke-width="2" stroke-miterlimit="10"/>
<path d="M-129.382 16.3808C-113.474 32.2885 -130.657 49.4712 -114.746 65.3818C-98.8357 81.2925 -81.653 64.1098 -65.7453 80.0175C-49.8375 95.9253 -67.0173 113.111 -51.1067 129.021C-35.1961 144.932 -18.0163 127.747 -2.10566 143.657C13.805 159.568 -3.37774 176.75 12.53 192.658C28.4378 208.566 45.6233 191.386 61.5339 207.297C77.4446 223.207 60.2619 240.39 76.1725 256.301C92.0831 272.211 109.266 255.029 125.176 270.939" stroke="white" stroke-opacity="0.08" stroke-width="2" stroke-miterlimit="10"/>
<path d="M-52.0988 -60.9029C-36.191 -44.9952 -53.3737 -27.8125 -37.4631 -11.9018C-21.5525 4.00877 -4.36981 -13.1739 11.5379 2.73383C27.4457 18.6416 10.2659 35.8271 26.1765 51.7378C42.0871 67.6484 59.2669 50.4628 75.1775 66.3734C91.0882 82.2841 73.9055 99.4667 89.8132 115.374C105.721 131.282 122.907 114.102 138.817 130.013C154.728 145.924 137.545 163.106 153.456 179.017C169.366 194.928 186.549 177.745 202.46 193.656" stroke="white" stroke-opacity="0.08" stroke-width="2" stroke-miterlimit="10"/>
<path d="M-155.144 42.1425C-139.236 58.0503 -156.419 75.2329 -140.508 91.1436C-124.597 107.054 -107.415 89.8715 -91.507 105.779C-75.5992 121.687 -92.7791 138.873 -76.8684 154.783C-60.9578 170.694 -43.778 153.508 -27.8674 169.419C-11.9568 185.329 -29.1395 202.512 -13.2317 218.42C2.67604 234.328 19.8616 217.148 35.7722 233.058C51.6828 248.969 34.5002 266.152 50.4108 282.062C66.3214 297.973 83.5041 280.79 99.4147 296.701" stroke="white" stroke-opacity="0.08" stroke-width="2" stroke-miterlimit="10"/>
<path d="M-77.8586 -35.1417C-61.9508 -19.2339 -79.1335 -2.05124 -63.2229 13.8594C-47.3123 29.77 -30.1296 12.5873 -14.2218 28.4951C1.68592 44.4028 -15.4939 61.5884 0.416716 77.499C16.3273 93.4096 33.5072 76.224 49.4178 92.1347C65.3284 108.045 48.1457 125.228 64.0535 141.136C79.9612 157.043 97.1468 139.864 113.057 155.774C128.968 171.685 111.785 188.868 127.696 204.778C143.607 220.689 160.789 203.506 176.7 219.417" stroke="white" stroke-opacity="0.08" stroke-width="2" stroke-miterlimit="10"/>
<path d="M-206.665 93.665C-190.757 109.573 -207.94 126.755 -192.03 142.666C-176.119 158.577 -158.936 141.394 -143.028 157.302C-127.121 173.209 -144.301 190.395 -128.39 206.306C-112.479 222.216 -95.2995 205.031 -79.3889 220.941C-63.4782 236.852 -80.6609 254.035 -64.7532 269.942C-48.8454 285.85 -31.6599 268.67 -15.7493 284.581C0.161365 300.492 -17.0213 317.674 -1.11071 333.585C14.7999 349.495 31.9826 332.313 47.8932 348.223" stroke="white" stroke-opacity="0.08" stroke-width="2" stroke-miterlimit="10"/>
<path d="M-103.62 -9.38045C-87.7125 6.5273 -104.895 23.71 -88.9846 39.6206C-73.074 55.5312 -55.8913 38.3485 -39.9835 54.2563C-24.0758 70.164 -41.2556 87.3496 -25.345 103.26C-9.43438 119.171 7.74544 101.985 23.6561 117.896C39.5667 133.807 22.384 150.989 38.2917 166.897C54.1995 182.805 71.385 165.625 87.2957 181.536C103.206 197.446 86.0236 214.629 101.934 230.539C117.845 246.45 135.028 229.267 150.938 245.178" stroke="white" stroke-opacity="0.08" stroke-width="2" stroke-miterlimit="10"/>
<path d="M-26.3371 -86.6641C-10.4293 -70.7564 -27.612 -53.5737 -11.7014 -37.6631C4.20921 -21.7525 21.3919 -38.9352 37.2997 -23.0274C53.2074 -7.11965 36.0276 10.0659 51.9382 25.9765C67.8488 41.8871 85.0286 24.7016 100.939 40.6122C116.85 56.5228 99.6672 73.7055 115.575 89.6133C131.483 105.521 148.668 88.3412 164.579 104.252C180.489 120.162 163.307 137.345 179.217 153.256C195.128 169.166 212.311 151.984 228.221 167.894" stroke="white" stroke-opacity="0.08" stroke-width="2" stroke-miterlimit="10"/>
<path d="M-180.905 67.9037C-164.998 83.8115 -182.18 100.994 -166.27 116.905C-150.359 132.815 -133.176 115.633 -117.269 131.54C-101.361 147.448 -118.541 164.634 -102.63 180.544C-86.7195 196.455 -69.5397 179.269 -53.6291 195.18C-37.7185 211.091 -54.9012 228.273 -38.9934 244.181C-23.0857 260.089 -5.90011 242.909 10.0105 258.82C25.9211 274.73 8.73844 291.913 24.6491 307.824C40.5597 323.734 57.7424 306.552 73.653 322.462" stroke="white" stroke-opacity="0.08" stroke-width="2" stroke-miterlimit="10"/>
<path d="M-232.427 119.426C-216.519 135.334 -233.702 152.517 -217.791 168.427C-201.881 184.338 -184.698 167.155 -168.79 183.063C-152.882 198.971 -170.062 216.156 -154.152 232.067C-138.241 247.977 -121.061 230.792 -105.151 246.703C-89.24 262.613 -106.423 279.796 -90.5149 295.704C-74.6072 311.611 -57.4216 294.432 -41.511 310.342C-25.6004 326.253 -42.783 343.435 -26.8724 359.346C-10.9618 375.257 6.22089 358.074 22.1315 373.985" stroke="white" stroke-opacity="0.08" stroke-width="2" stroke-miterlimit="10"/>
<path d="M-129.382 16.3808C-113.474 32.2885 -130.657 49.4712 -114.746 65.3818C-98.8357 81.2925 -81.653 64.1098 -65.7453 80.0175C-49.8375 95.9253 -67.0173 113.111 -51.1067 129.021C-35.1961 144.932 -18.0163 127.747 -2.10566 143.657C13.805 159.568 -3.37774 176.75 12.53 192.658C28.4378 208.566 45.6233 191.386 61.5339 207.297C77.4446 223.207 60.2619 240.39 76.1725 256.301C92.0831 272.211 109.266 255.029 125.176 270.939" stroke="white" stroke-opacity="0.08" stroke-width="2" stroke-miterlimit="10"/>
<path d="M-52.0988 -60.9029C-36.191 -44.9952 -53.3737 -27.8125 -37.4631 -11.9018C-21.5525 4.00877 -4.36981 -13.1739 11.5379 2.73383C27.4457 18.6416 10.2659 35.8271 26.1765 51.7378C42.0871 67.6484 59.2669 50.4628 75.1775 66.3734C91.0882 82.2841 73.9055 99.4667 89.8132 115.374C105.721 131.282 122.907 114.102 138.817 130.013C154.728 145.924 137.545 163.106 153.456 179.017C169.366 194.928 186.549 177.745 202.46 193.656" stroke="white" stroke-opacity="0.08" stroke-width="2" stroke-miterlimit="10"/>
<path d="M-155.144 42.1425C-139.236 58.0503 -156.419 75.2329 -140.508 91.1436C-124.597 107.054 -107.415 89.8715 -91.507 105.779C-75.5992 121.687 -92.7791 138.873 -76.8684 154.783C-60.9578 170.694 -43.778 153.508 -27.8674 169.419C-11.9568 185.329 -29.1395 202.512 -13.2317 218.42C2.67604 234.328 19.8616 217.148 35.7722 233.058C51.6828 248.969 34.5002 266.152 50.4108 282.062C66.3214 297.973 83.5041 280.79 99.4147 296.701" stroke="white" stroke-opacity="0.08" stroke-width="2" stroke-miterlimit="10"/>
<path d="M-77.8586 -35.1417C-61.9508 -19.2339 -79.1335 -2.05124 -63.2229 13.8594C-47.3123 29.77 -30.1296 12.5873 -14.2218 28.4951C1.68592 44.4028 -15.4939 61.5884 0.416716 77.499C16.3273 93.4096 33.5072 76.224 49.4178 92.1347C65.3284 108.045 48.1457 125.228 64.0535 141.136C79.9612 157.043 97.1468 139.864 113.057 155.774C128.968 171.685 111.785 188.868 127.696 204.778C143.607 220.689 160.789 203.506 176.7 219.417" stroke="white" stroke-opacity="0.08" stroke-width="2" stroke-miterlimit="10"/>
<path d="M-206.665 93.665C-190.757 109.573 -207.94 126.755 -192.03 142.666C-176.119 158.577 -158.936 141.394 -143.028 157.302C-127.121 173.209 -144.301 190.395 -128.39 206.306C-112.479 222.216 -95.2995 205.031 -79.3889 220.941C-63.4782 236.852 -80.6609 254.035 -64.7532 269.942C-48.8454 285.85 -31.6599 268.67 -15.7493 284.581C0.161365 300.492 -17.0213 317.674 -1.11071 333.585C14.7999 349.495 31.9826 332.313 47.8932 348.223" stroke="white" stroke-opacity="0.08" stroke-width="2" stroke-miterlimit="10"/>
<path d="M-103.62 -9.38045C-87.7125 6.5273 -104.895 23.71 -88.9846 39.6206C-73.074 55.5312 -55.8913 38.3485 -39.9835 54.2563C-24.0758 70.164 -41.2556 87.3496 -25.345 103.26C-9.43438 119.171 7.74544 101.985 23.6561 117.896C39.5667 133.807 22.384 150.989 38.2917 166.897C54.1995 182.805 71.385 165.625 87.2957 181.536C103.206 197.446 86.0236 214.629 101.934 230.539C117.845 246.45 135.028 229.267 150.938 245.178" stroke="white" stroke-opacity="0.08" stroke-width="2" stroke-miterlimit="10"/>
<path d="M-26.3371 -86.6641C-10.4293 -70.7564 -27.612 -53.5737 -11.7014 -37.6631C4.20921 -21.7525 21.3919 -38.9352 37.2997 -23.0274C53.2074 -7.11965 36.0276 10.0659 51.9382 25.9765C67.8488 41.8871 85.0286 24.7016 100.939 40.6122C116.85 56.5228 99.6672 73.7055 115.575 89.6133C131.483 105.521 148.668 88.3412 164.579 104.252C180.489 120.162 163.307 137.345 179.217 153.256C195.128 169.166 212.311 151.984 228.221 167.894" stroke="white" stroke-opacity="0.08" stroke-width="2" stroke-miterlimit="10"/>
<path d="M-172.325 59.3251C-156.418 75.2329 -173.6 92.4156 -157.69 108.326C-141.779 124.237 -124.596 107.054 -108.689 122.962C-92.7809 138.87 -109.961 156.055 -94.0501 171.966C-78.1395 187.876 -60.9596 170.691 -45.049 186.601C-29.1384 202.512 -46.3211 219.695 -30.4133 235.603C-14.5056 251.51 2.67997 234.33 18.5906 250.241C34.5012 266.152 17.3185 283.334 33.2291 299.245C49.1398 315.156 66.3225 297.973 82.2331 313.884" stroke="white" stroke-opacity="0.08" stroke-width="2" stroke-miterlimit="10"/>
<path d="M-223.849 110.848C-207.941 126.755 -225.124 143.938 -209.213 159.849C-193.303 175.759 -176.12 158.577 -160.212 174.484C-144.304 190.392 -161.484 207.578 -145.574 223.488C-129.663 239.399 -112.483 222.213 -96.5725 238.124C-80.6618 254.035 -97.8445 271.217 -81.9368 287.125C-66.029 303.033 -48.8435 285.853 -32.9328 301.764C-17.0222 317.674 -34.2049 334.857 -18.2943 350.767C-2.38368 366.678 14.799 349.495 30.7096 365.406" stroke="white" stroke-opacity="0.08" stroke-width="2" stroke-miterlimit="10"/>
<path d="M-120.804 7.80217C-104.896 23.7099 -122.079 40.8926 -106.168 56.8032C-90.2576 72.7139 -73.0749 55.5312 -57.1671 71.4389C-41.2594 87.3467 -58.4392 104.532 -42.5286 120.443C-26.618 136.353 -9.43815 119.168 6.47247 135.079C22.3831 150.989 5.20039 168.172 21.1081 184.08C37.0159 199.987 54.2015 182.808 70.1121 198.718C86.0227 214.629 68.84 231.811 84.7506 247.722C100.661 263.633 117.844 246.45 133.755 262.361" stroke="white" stroke-opacity="0.08" stroke-width="2" stroke-miterlimit="10"/>
<path d="M-43.5187 -69.4815C-27.611 -53.5738 -44.7937 -36.3911 -28.883 -20.4805C-12.9724 -4.56984 4.21026 -21.7525 20.118 -5.84479C36.0258 10.063 18.8459 27.2485 34.7566 43.1591C50.6672 59.0698 67.847 41.8842 83.7576 57.7948C99.6682 73.7054 82.4855 90.8881 98.3933 106.796C114.301 122.704 131.487 105.524 147.397 121.434C163.308 137.345 146.125 154.528 162.036 170.438C177.946 186.349 195.129 169.166 211.04 185.077" stroke="white" stroke-opacity="0.08" stroke-width="2" stroke-miterlimit="10"/>
<path d="M-249.609 136.609C-233.701 152.517 -250.884 169.699 -234.973 185.61C-219.062 201.52 -201.88 184.338 -185.972 200.246C-170.064 216.153 -187.244 233.339 -171.333 249.249C-155.423 265.16 -138.243 247.975 -122.332 263.885C-106.422 279.796 -123.604 296.978 -107.697 312.886C-91.7888 328.794 -74.6032 311.614 -58.6926 327.525C-42.782 343.435 -59.9647 360.618 -44.0541 376.529C-28.1434 392.439 -10.9608 375.257 4.94987 391.167" stroke="white" stroke-opacity="0.08" stroke-width="2" stroke-miterlimit="10"/>
<path d="M-146.566 33.5639C-130.658 49.4716 -147.841 66.6543 -131.93 82.5649C-116.019 98.4756 -98.8366 81.2929 -82.9289 97.2006C-67.0211 113.108 -84.2009 130.294 -68.2903 146.205C-52.3797 162.115 -35.1999 144.93 -19.2893 160.84C-3.37863 176.751 -20.5613 193.934 -4.65358 209.841C11.2542 225.749 28.4397 208.569 44.3504 224.48C60.261 240.39 43.0783 257.573 58.9889 273.484C74.8995 289.394 92.0822 272.212 107.993 288.122" stroke="white" stroke-opacity="0.08" stroke-width="2" stroke-miterlimit="10"/>
<path d="M-69.2804 -43.7203C-53.3727 -27.8125 -70.5554 -10.6298 -54.6448 5.28077C-38.7341 21.1914 -21.5515 4.00869 -5.6437 19.9164C10.264 35.8242 -6.91578 53.0098 8.99484 68.9204C24.9055 84.831 42.0853 67.6454 57.9959 83.5561C73.9065 99.4667 56.7238 116.649 72.6316 132.557C88.5393 148.465 105.725 131.285 121.636 147.196C137.546 163.106 120.363 180.289 136.274 196.2C152.185 212.11 169.367 194.928 185.278 210.838" stroke="white" stroke-opacity="0.08" stroke-width="2" stroke-miterlimit="10"/>
<path d="M-198.087 85.0863C-182.179 100.994 -199.362 118.177 -183.451 134.087C-167.541 149.998 -150.358 132.815 -134.45 148.723C-118.543 164.631 -135.722 181.816 -119.812 197.727C-103.901 213.638 -86.7214 196.452 -70.8107 212.363C-54.9001 228.273 -72.0828 245.456 -56.1751 261.364C-40.2673 277.272 -23.0817 260.092 -7.17113 276.002C8.73949 291.913 -8.4432 309.096 7.46742 325.006C23.378 340.917 40.5607 323.734 56.4714 339.645" stroke="white" stroke-opacity="0.08" stroke-width="2" stroke-miterlimit="10"/>
<path d="M-95.0422 -17.9591C-79.1344 -2.05131 -96.3171 15.1314 -80.4065 31.042C-64.4959 46.9526 -47.3132 29.7699 -31.4054 45.6777C-15.4977 61.5854 -32.6775 78.771 -16.7669 94.6816C-0.856259 110.592 16.3236 93.4067 32.2342 109.317C48.1448 125.228 30.9621 142.411 46.8699 158.318C62.7776 174.226 79.9632 157.046 95.8738 172.957C111.784 188.868 94.6017 206.05 110.512 221.961C126.423 237.871 143.606 220.689 159.516 236.599" stroke="white" stroke-opacity="0.08" stroke-width="2" stroke-miterlimit="10"/>
<path d="M-17.759 -95.2428C-1.85121 -79.335 -19.0339 -62.1523 -3.12328 -46.2417C12.7873 -30.3311 29.97 -47.5138 45.8778 -31.606C61.7855 -15.6983 44.6057 1.4873 60.5163 17.3979C76.4269 33.3085 93.6068 16.123 109.517 32.0336C125.428 47.9442 108.245 65.1269 124.153 81.0347C140.061 96.9424 157.246 79.7626 173.157 95.6732C189.068 111.584 171.885 128.767 187.796 144.677C203.706 160.588 220.889 143.405 236.799 159.316" stroke="white" stroke-opacity="0.08" stroke-width="2" stroke-miterlimit="10"/>
</svg>
