<svg width="30" height="30" viewBox="0 0 30 30" fill="none" xmlns="http://www.w3.org/2000/svg">
<path d="M15 0L18.3677 11.4012H29.2658L20.4491 18.4476L23.8168 29.8488L15 22.8024L6.18322 29.8488L9.55093 18.4476L0.734152 11.4012H11.6323L15 0Z" fill="#616161"/>
<path d="M15 0L18.3677 11.4012H29.2658L20.4491 18.4476L23.8168 29.8488L15 22.8024L6.18322 29.8488L9.55093 18.4476L0.734152 11.4012H11.6323L15 0Z" fill="#616161"/>
<path d="M15 0L18.3677 11.4012H29.2658L20.4491 18.4476L23.8168 29.8488L15 22.8024L6.18322 29.8488L9.55093 18.4476L0.734152 11.4012H11.6323L15 0Z" fill="#616161"/>
</svg>
