<svg width="286" height="442" viewBox="0 0 286 442" fill="none" xmlns="http://www.w3.org/2000/svg">
<mask id="mask0_304_1179" style="mask-type:luminance" maskUnits="userSpaceOnUse" x="-112" y="44" width="354" height="354">
<path d="M12.4745 52.5256C-80.5714 81.5346 -132.483 180.48 -103.474 273.526C-74.4653 366.571 24.4797 418.484 117.526 389.474C210.571 360.465 262.484 261.52 233.474 168.474C204.465 75.4286 105.52 23.5165 12.4745 52.5256Z" fill="white"/>
</mask>
<g mask="url(#mask0_304_1179)">
<path d="M117.17 387.231C209.437 358.465 260.916 260.348 232.15 168.08C203.384 75.8121 105.267 24.3336 12.9986 53.0996C-79.2693 81.8656 -130.748 179.983 -101.982 272.251C-73.2158 364.519 24.9016 415.997 117.17 387.231Z" fill="#407BFF"/>
<path d="M-92.8447 307.624C-71.7885 301.059 -64.6974 323.803 -43.6371 317.237C-22.5768 310.671 -29.6679 287.927 -8.61122 281.363C12.4455 274.798 19.5402 297.541 40.6004 290.975C61.6607 284.409 54.566 261.666 75.6263 255.1C96.6865 248.534 103.777 271.279 124.834 264.714C145.89 258.149 138.803 235.404 159.864 228.838C180.924 222.272 188.015 245.016 209.075 238.45C230.135 231.884 223.045 209.14 244.105 202.574" stroke="white" stroke-opacity="0.08" stroke-width="2" stroke-miterlimit="10"/>
<path d="M-71.5797 375.822C-50.5235 369.257 -43.4324 392.002 -22.3721 385.435C-1.31185 378.87 -8.40297 356.125 12.6538 349.561C33.7105 342.997 40.8046 365.739 61.8654 359.174C82.9257 352.607 75.831 329.865 96.8913 323.299C117.952 316.733 125.042 339.477 146.099 332.912C167.155 326.348 160.068 303.602 181.129 297.037C202.189 290.47 209.28 313.215 230.34 306.649C251.4 300.083 244.31 277.339 265.37 270.773" stroke="white" stroke-opacity="0.08" stroke-width="2" stroke-miterlimit="10"/>
<path d="M-114.104 239.426C-93.0475 232.861 -85.9564 255.605 -64.8962 249.039C-43.8359 242.473 -50.927 219.729 -29.8703 213.165C-8.81356 206.6 -1.71943 229.343 19.3413 222.777C40.4016 216.211 33.307 193.468 54.3672 186.902C75.4275 180.336 82.5181 203.08 103.575 196.516C124.631 189.951 117.544 167.206 138.605 160.64C159.665 154.074 166.756 176.818 187.816 170.252C208.876 163.686 201.785 140.942 222.846 134.376" stroke="white" stroke-opacity="0.08" stroke-width="2" stroke-miterlimit="10"/>
<path d="M-145.999 137.127C-124.942 130.563 -117.851 153.307 -96.7912 146.741C-75.7309 140.175 -82.8215 117.431 -61.7648 110.866C-40.7086 104.301 -33.6139 127.045 -12.5537 120.478C8.50656 113.913 1.41193 91.17 22.4722 84.6037C43.5324 78.038 50.6236 100.782 71.6798 94.2176C92.7365 87.6529 85.6494 64.9076 106.71 58.3414C127.77 51.7757 134.861 74.5199 155.921 67.9542C176.982 61.388 169.89 38.644 190.951 32.0781" stroke="white" stroke-opacity="0.08" stroke-width="2" stroke-miterlimit="10"/>
<path d="M-60.9502 409.922C-39.8934 403.357 -32.8028 426.101 -11.7426 419.535C9.31769 412.969 2.22709 390.225 23.2833 383.66C44.34 377.096 51.4347 399.839 72.4949 393.273C93.5552 386.707 86.4606 363.964 107.521 357.398C128.581 350.832 135.672 373.577 156.728 367.012C177.785 360.447 170.698 337.702 191.758 331.136C212.819 324.57 219.91 347.314 240.97 340.749C262.03 334.182 254.939 311.439 275.999 304.872" stroke="white" stroke-opacity="0.08" stroke-width="2" stroke-miterlimit="10"/>
<path d="M-103.474 273.525C-82.4176 266.96 -75.327 289.705 -54.2667 283.139C-33.2064 276.573 -40.2971 253.829 -19.2408 247.264C1.8159 240.699 8.91053 263.442 29.9708 256.876C51.031 250.311 43.9364 227.567 64.9967 221.002C86.0569 214.436 93.1481 237.18 114.204 230.615C135.261 224.05 128.174 201.305 149.234 194.739C170.294 188.174 177.386 210.917 198.446 204.352C219.506 197.786 212.415 175.042 233.475 168.476" stroke="white" stroke-opacity="0.08" stroke-width="2" stroke-miterlimit="10"/>
<path d="M-135.369 171.227C-114.312 164.663 -107.221 187.407 -86.161 180.841C-65.1008 174.275 -72.1919 151.531 -51.1351 144.966C-30.0784 138.401 -22.9838 161.145 -1.9235 154.578C19.1368 148.013 12.0421 125.27 33.1024 118.704C54.1626 112.138 61.2532 134.882 82.31 128.318C103.366 121.753 96.2791 99.0076 117.34 92.4413C138.4 85.8756 145.491 108.62 166.551 102.054C187.611 95.4879 180.521 72.7437 201.581 66.178" stroke="white" stroke-opacity="0.08" stroke-width="2" stroke-miterlimit="10"/>
<path d="M-82.2124 341.724C-61.1557 335.159 -54.0651 357.903 -33.0048 351.337C-11.9446 344.771 -19.0352 322.027 2.02105 315.462C23.0778 308.898 30.1724 331.64 51.2327 325.075C72.2929 318.509 65.1983 295.766 86.2586 289.2C107.319 282.634 114.41 305.379 135.466 298.814C156.523 292.249 149.436 269.504 170.496 262.938C191.556 256.372 198.647 279.116 219.708 272.55C240.768 265.984 233.677 243.24 254.737 236.674" stroke="white" stroke-opacity="0.08" stroke-width="2" stroke-miterlimit="10"/>
<path d="M-124.736 205.326C-103.68 198.761 -96.5891 221.505 -75.5289 214.94C-54.4686 208.373 -61.5592 185.63 -40.503 179.065C-19.4463 172.5 -12.3516 195.243 8.70862 188.677C29.7689 182.111 22.6742 159.368 43.7345 152.803C64.7947 146.236 71.8859 168.981 92.9421 162.416C113.999 155.851 106.912 133.106 127.972 126.54C149.032 119.974 156.123 142.718 177.184 136.153C198.244 129.586 191.153 106.843 212.213 100.276" stroke="white" stroke-opacity="0.08" stroke-width="2" stroke-miterlimit="10"/>
<path d="M-156.628 103.029C-135.571 96.4643 -128.481 119.208 -107.42 112.642C-86.3599 106.077 -93.451 83.3324 -72.3943 76.7677C-51.3375 70.2029 -44.2429 92.9457 -23.1826 86.38C-2.12238 79.8143 -9.21701 57.071 11.8432 50.5053C32.9035 43.9394 39.9941 66.6833 61.0508 60.1186C82.1071 53.5539 75.02 30.8089 96.0807 24.243C117.141 17.6771 124.232 40.4212 145.292 33.8553C166.352 27.2895 159.262 4.54537 180.322 -2.02051" stroke="white" stroke-opacity="0.08" stroke-width="2" stroke-miterlimit="10"/>
<path d="M-96.3841 296.269C-75.3274 289.704 -68.2368 312.448 -47.1765 305.882C-26.1158 299.316 -33.2069 276.572 -12.1502 270.008C8.90608 263.443 16.0007 286.186 37.061 279.62C58.1212 273.054 51.0266 250.311 72.0868 243.745C93.1471 237.179 100.238 259.924 121.294 253.359C142.351 246.794 135.264 224.049 156.324 217.483C177.385 210.917 184.476 233.661 205.536 227.095C226.596 220.529 219.505 197.785 240.566 191.219" stroke="white" stroke-opacity="0.08" stroke-width="2" stroke-miterlimit="10"/>
<path d="M-75.1219 364.467C-54.0652 357.902 -46.9746 380.647 -25.9143 374.08C-4.85358 367.515 -11.9447 344.77 9.11203 338.206C30.1683 331.642 37.2629 354.384 58.3231 347.819C79.3834 341.252 72.2888 318.51 93.349 311.944C114.41 305.378 121.5 328.122 142.557 321.557C163.613 314.993 156.526 292.247 177.587 285.682C198.647 279.115 205.738 301.86 226.798 295.294C247.858 288.728 240.767 265.984 261.828 259.418" stroke="white" stroke-opacity="0.08" stroke-width="2" stroke-miterlimit="10"/>
<path d="M-117.646 228.071C-96.5896 221.506 -89.4989 244.25 -68.4387 237.684C-47.3779 231.118 -54.469 208.374 -33.4123 201.809C-12.3561 195.245 -5.26144 217.988 15.7988 211.422C36.8591 204.856 29.7644 182.113 50.8247 175.547C71.8855 168.981 78.9761 191.725 100.032 185.161C121.089 178.596 114.002 155.851 135.062 149.285C156.122 142.719 163.214 165.463 184.274 158.897C205.334 152.331 198.243 129.587 219.304 123.021" stroke="white" stroke-opacity="0.08" stroke-width="2" stroke-miterlimit="10"/>
<path d="M-149.538 125.772C-128.481 119.207 -121.39 141.952 -100.33 135.386C-79.2698 128.82 -86.3604 106.076 -65.3042 99.5109C-44.2475 92.9462 -37.1528 115.689 -16.0926 109.123C4.96769 102.557 -2.12694 79.8147 18.9333 73.2485C39.9936 66.6828 47.0842 89.427 68.1409 82.8623C89.1976 76.2976 82.1106 53.5524 103.171 46.9864C124.231 40.4205 131.322 63.1647 152.382 56.599C173.442 50.0329 166.352 27.2888 187.412 20.7229" stroke="white" stroke-opacity="0.08" stroke-width="2" stroke-miterlimit="10"/>
<path d="M-64.4896 398.567C-43.4334 392.002 -36.3423 414.746 -15.282 408.18C5.77826 401.614 -1.31234 378.87 19.7439 372.305C40.8006 365.741 47.8953 388.484 68.9555 381.918C90.0158 375.352 82.9211 352.609 103.981 346.043C125.042 339.477 132.132 362.222 153.189 355.657C174.246 349.092 167.159 326.347 188.219 319.781C209.279 313.215 216.37 335.959 237.43 329.394C258.49 322.827 251.4 300.084 272.46 293.517" stroke="white" stroke-opacity="0.08" stroke-width="2" stroke-miterlimit="10"/>
<path d="M-107.014 262.169C-85.9575 255.604 -78.8663 278.349 -57.8061 271.783C-36.7458 265.217 -43.8364 242.473 -22.7802 235.908C-1.72347 229.343 5.37116 252.086 26.4314 245.52C47.4917 238.955 40.397 216.212 61.4573 209.646C82.5175 203.08 89.6082 225.824 110.665 219.259C131.722 212.694 124.635 189.949 145.695 183.383C166.755 176.818 173.846 199.562 194.906 192.996C215.966 186.43 208.876 163.686 229.936 157.12" stroke="white" stroke-opacity="0.08" stroke-width="2" stroke-miterlimit="10"/>
<path d="M-138.908 159.872C-117.852 153.307 -110.761 176.051 -89.7007 169.485C-68.64 162.919 -75.7311 140.175 -54.6744 133.61C-33.6181 127.046 -26.5235 149.789 -5.46325 143.223C15.597 136.657 8.50237 113.914 29.5626 107.348C50.6234 100.782 57.714 123.527 78.7702 116.962C99.827 110.397 92.7399 87.6518 113.8 81.0856C134.86 74.5199 141.952 97.2642 163.012 90.6979C184.072 84.1322 176.981 61.388 198.042 54.8223" stroke="white" stroke-opacity="0.08" stroke-width="2" stroke-miterlimit="10"/>
<path d="M-85.7516 330.368C-64.6954 323.803 -57.6043 346.547 -36.5441 339.981C-15.4838 333.416 -22.5744 310.671 -1.51818 304.107C19.5386 297.542 26.6332 320.285 47.6934 313.719C68.7537 307.153 61.6591 284.411 82.7193 277.844C103.78 271.279 110.87 294.023 131.927 287.458C152.984 280.893 145.897 258.148 166.957 251.582C188.017 245.016 195.108 267.761 216.168 261.194C237.228 254.629 230.138 231.884 251.198 225.319" stroke="white" stroke-opacity="0.08" stroke-width="2" stroke-miterlimit="10"/>
<path d="M-128.276 193.971C-107.219 187.406 -100.128 210.151 -79.0681 203.585C-58.0078 197.019 -65.0985 174.275 -44.0422 167.71C-22.9855 161.145 -15.8909 183.888 5.16939 177.323C26.2297 170.756 19.135 148.014 40.1953 141.448C61.2555 134.882 68.3461 157.626 89.4029 151.061C110.46 144.496 103.373 121.751 124.433 115.185C145.493 108.619 152.584 131.364 173.644 124.798C194.704 118.232 187.614 95.4878 208.674 88.9216" stroke="white" stroke-opacity="0.08" stroke-width="2" stroke-miterlimit="10"/>
<path d="M-160.17 91.6735C-139.114 85.1088 -132.023 107.853 -110.962 101.287C-89.902 94.7211 -96.9931 71.9769 -75.9364 65.4122C-54.8801 58.8475 -47.7855 81.5902 -26.7252 75.0245C-5.66498 68.4588 -12.7596 45.7157 8.30063 39.1498C29.3614 32.584 36.452 55.3279 57.5082 48.7634C78.565 42.1987 71.4779 19.4534 92.5381 12.8875C113.598 6.32167 120.689 29.0658 141.75 22.4998C162.81 15.934 155.719 -6.81011 176.78 -13.376" stroke="white" stroke-opacity="0.08" stroke-width="2" stroke-miterlimit="10"/>
<path d="M-53.86 432.665C-32.8033 426.101 -25.7127 448.845 -4.65242 442.279C16.4083 435.713 9.31722 412.969 30.3739 406.405C51.4302 399.84 58.5248 422.583 79.5851 416.017C100.645 409.451 93.5507 386.708 114.611 380.142C135.671 373.576 142.762 396.32 163.819 389.756C184.875 383.191 177.788 360.446 198.848 353.88C219.909 347.314 227 370.058 248.06 363.492C269.12 356.926 262.029 334.182 283.09 327.616" stroke="white" stroke-opacity="0.08" stroke-width="2" stroke-miterlimit="10"/>
<path d="M-96.3841 296.269C-75.3274 289.704 -68.2368 312.448 -47.1765 305.882C-26.1158 299.316 -33.2069 276.572 -12.1502 270.008C8.90608 263.443 16.0007 286.186 37.061 279.62C58.1212 273.054 51.0266 250.311 72.0868 243.745C93.1471 237.179 100.238 259.924 121.294 253.359C142.351 246.794 135.264 224.049 156.324 217.483C177.385 210.917 184.476 233.661 205.536 227.095C226.596 220.529 219.505 197.785 240.566 191.219" stroke="white" stroke-opacity="0.08" stroke-width="2" stroke-miterlimit="10"/>
<path d="M-75.1219 364.467C-54.0652 357.902 -46.9746 380.647 -25.9143 374.08C-4.85358 367.515 -11.9447 344.77 9.11203 338.206C30.1683 331.642 37.2629 354.384 58.3231 347.819C79.3834 341.252 72.2888 318.51 93.349 311.944C114.41 305.378 121.5 328.122 142.557 321.557C163.613 314.993 156.526 292.247 177.587 285.682C198.647 279.115 205.738 301.86 226.798 295.294C247.858 288.728 240.767 265.984 261.828 259.418" stroke="white" stroke-opacity="0.08" stroke-width="2" stroke-miterlimit="10"/>
<path d="M-117.646 228.071C-96.5896 221.506 -89.4989 244.25 -68.4387 237.684C-47.3779 231.118 -54.469 208.374 -33.4123 201.809C-12.3561 195.245 -5.26144 217.988 15.7988 211.422C36.8591 204.856 29.7644 182.113 50.8247 175.547C71.8855 168.981 78.9761 191.725 100.032 185.161C121.089 178.596 114.002 155.851 135.062 149.285C156.122 142.719 163.214 165.463 184.274 158.897C205.334 152.331 198.243 129.587 219.304 123.021" stroke="white" stroke-opacity="0.08" stroke-width="2" stroke-miterlimit="10"/>
<path d="M-149.538 125.772C-128.481 119.207 -121.39 141.952 -100.33 135.386C-79.2698 128.82 -86.3604 106.076 -65.3042 99.5109C-44.2475 92.9462 -37.1528 115.689 -16.0926 109.123C4.96769 102.557 -2.12694 79.8147 18.9333 73.2485C39.9936 66.6828 47.0842 89.427 68.1409 82.8623C89.1976 76.2976 82.1106 53.5524 103.171 46.9864C124.231 40.4205 131.322 63.1647 152.382 56.599C173.442 50.0329 166.352 27.2888 187.412 20.7229" stroke="white" stroke-opacity="0.08" stroke-width="2" stroke-miterlimit="10"/>
<path d="M-64.4896 398.567C-43.4334 392.002 -36.3423 414.746 -15.282 408.18C5.77826 401.614 -1.31234 378.87 19.7439 372.305C40.8006 365.741 47.8953 388.484 68.9555 381.918C90.0158 375.352 82.9211 352.609 103.981 346.043C125.042 339.477 132.132 362.222 153.189 355.657C174.246 349.092 167.159 326.347 188.219 319.781C209.279 313.215 216.37 335.959 237.43 329.394C258.49 322.827 251.4 300.084 272.46 293.517" stroke="white" stroke-opacity="0.08" stroke-width="2" stroke-miterlimit="10"/>
<path d="M-107.014 262.169C-85.9575 255.604 -78.8663 278.349 -57.8061 271.783C-36.7458 265.217 -43.8364 242.473 -22.7802 235.908C-1.72347 229.343 5.37116 252.086 26.4314 245.52C47.4917 238.955 40.397 216.212 61.4573 209.646C82.5175 203.08 89.6082 225.824 110.665 219.259C131.722 212.694 124.635 189.949 145.695 183.383C166.755 176.818 173.846 199.562 194.906 192.996C215.966 186.43 208.876 163.686 229.936 157.12" stroke="white" stroke-opacity="0.08" stroke-width="2" stroke-miterlimit="10"/>
<path d="M-138.908 159.872C-117.852 153.307 -110.761 176.051 -89.7007 169.485C-68.64 162.919 -75.7311 140.175 -54.6744 133.61C-33.6181 127.046 -26.5235 149.789 -5.46325 143.223C15.597 136.657 8.50237 113.914 29.5626 107.348C50.6234 100.782 57.714 123.527 78.7702 116.962C99.827 110.397 92.7399 87.6518 113.8 81.0856C134.86 74.5199 141.952 97.2642 163.012 90.6979C184.072 84.1322 176.981 61.388 198.042 54.8223" stroke="white" stroke-opacity="0.08" stroke-width="2" stroke-miterlimit="10"/>
<path d="M-85.7516 330.368C-64.6954 323.803 -57.6043 346.547 -36.5441 339.981C-15.4838 333.416 -22.5744 310.671 -1.51818 304.107C19.5386 297.542 26.6332 320.285 47.6934 313.719C68.7537 307.153 61.6591 284.411 82.7193 277.844C103.78 271.279 110.87 294.023 131.927 287.458C152.984 280.893 145.897 258.148 166.957 251.582C188.017 245.016 195.108 267.761 216.168 261.194C237.228 254.629 230.138 231.884 251.198 225.319" stroke="white" stroke-opacity="0.08" stroke-width="2" stroke-miterlimit="10"/>
<path d="M-128.276 193.971C-107.219 187.406 -100.128 210.151 -79.0681 203.585C-58.0078 197.019 -65.0985 174.275 -44.0422 167.71C-22.9855 161.145 -15.8909 183.888 5.16939 177.323C26.2297 170.756 19.135 148.014 40.1953 141.448C61.2555 134.882 68.3461 157.626 89.4029 151.061C110.46 144.496 103.373 121.751 124.433 115.185C145.493 108.619 152.584 131.364 173.644 124.798C194.704 118.232 187.614 95.4878 208.674 88.9216" stroke="white" stroke-opacity="0.08" stroke-width="2" stroke-miterlimit="10"/>
<path d="M-160.17 91.6735C-139.114 85.1088 -132.023 107.853 -110.962 101.287C-89.902 94.7211 -96.9931 71.9769 -75.9364 65.4122C-54.8801 58.8475 -47.7855 81.5902 -26.7252 75.0245C-5.66498 68.4588 -12.7596 45.7157 8.30063 39.1498C29.3614 32.584 36.452 55.3279 57.5082 48.7634C78.565 42.1987 71.4779 19.4534 92.5381 12.8875C113.598 6.32167 120.689 29.0658 141.75 22.4998C162.81 15.934 155.719 -6.81011 176.78 -13.376" stroke="white" stroke-opacity="0.08" stroke-width="2" stroke-miterlimit="10"/>
<path d="M-57.3996 421.311C-36.3428 414.746 -29.2522 437.49 -8.19196 430.925C12.8683 424.358 5.77768 401.615 26.8339 395.05C47.8906 388.485 54.9853 411.228 76.0455 404.662C97.1058 398.096 90.0112 375.353 111.071 368.788C132.132 362.222 139.223 384.966 160.279 378.401C181.336 371.836 174.249 349.091 195.309 342.525C216.369 335.96 223.46 358.703 244.52 352.138C265.581 345.572 258.49 322.828 279.55 316.262" stroke="white" stroke-opacity="0.08" stroke-width="2" stroke-miterlimit="10"/>
<path d="M-99.9236 284.913C-78.8669 278.349 -71.7762 301.093 -50.716 294.527C-29.6557 287.961 -36.7463 265.217 -15.6901 258.653C5.36663 252.088 12.4613 274.831 33.5215 268.265C54.5818 261.699 47.4871 238.956 68.5474 232.39C89.6077 225.824 96.6988 248.568 117.755 242.004C138.812 235.439 131.725 212.694 152.785 206.128C173.845 199.562 180.936 222.306 201.996 215.74C223.057 209.174 215.966 186.43 237.026 179.865" stroke="white" stroke-opacity="0.08" stroke-width="2" stroke-miterlimit="10"/>
<path d="M-78.6617 353.112C-57.605 346.547 -50.5144 369.291 -29.4541 362.725C-8.39385 356.159 -15.4845 333.415 5.57176 326.851C26.6285 320.286 33.7232 343.029 54.7834 336.463C75.8437 329.897 68.749 307.154 89.8093 300.588C110.87 294.022 117.961 316.766 139.017 310.202C160.074 303.637 152.987 280.892 174.047 274.326C195.107 267.76 202.198 290.504 223.258 283.938C244.319 277.372 237.228 254.628 258.288 248.062" stroke="white" stroke-opacity="0.08" stroke-width="2" stroke-miterlimit="10"/>
<path d="M-121.186 216.714C-100.129 210.15 -93.0384 232.894 -71.9781 226.328C-50.9179 219.762 -58.0085 197.018 -36.9522 190.453C-15.8955 183.889 -8.80088 206.632 12.2594 200.066C33.3196 193.5 26.225 170.757 47.2852 164.191C68.3455 157.625 75.4366 180.369 96.4928 173.805C117.55 167.24 110.462 144.495 131.523 137.929C152.583 131.363 159.674 154.107 180.734 147.541C201.795 140.975 194.703 118.231 215.764 111.665" stroke="white" stroke-opacity="0.08" stroke-width="2" stroke-miterlimit="10"/>
<path d="M-153.077 114.416C-132.021 107.852 -124.93 130.596 -103.869 124.03C-82.8091 117.464 -89.9002 94.7199 -68.8435 88.1551C-47.7873 81.5904 -40.6926 104.334 -19.6324 97.7675C1.42789 91.2018 -5.66625 68.459 15.394 61.8928C36.4543 55.3271 43.5449 78.0713 64.6016 71.5066C85.6578 64.9419 78.5707 42.1966 99.631 35.6307C120.691 29.0648 127.782 51.809 148.843 45.243C169.903 38.6772 162.812 15.9331 183.872 9.36719" stroke="white" stroke-opacity="0.08" stroke-width="2" stroke-miterlimit="10"/>
<path d="M-68.0319 387.212C-46.9757 380.647 -39.8846 403.391 -18.8243 396.825C2.23594 390.259 -4.85518 367.515 16.2016 360.95C37.2578 354.386 44.3524 377.129 65.4127 370.563C86.4729 363.997 79.3788 341.254 100.439 334.688C121.499 328.122 128.59 350.867 149.647 344.302C170.703 337.737 163.616 314.992 184.676 308.426C205.736 301.86 212.827 324.604 233.888 318.039C254.948 311.472 247.857 288.729 268.918 282.162" stroke="white" stroke-opacity="0.08" stroke-width="2" stroke-miterlimit="10"/>
<path d="M-110.556 250.814C-89.4995 244.249 -82.4084 266.993 -61.3481 260.428C-40.2879 253.862 -47.379 231.118 -26.3223 224.553C-5.26604 217.988 1.82859 240.731 22.8888 234.165C43.9496 227.6 36.855 204.856 57.9152 198.291C78.9755 191.725 86.0661 214.469 107.123 207.904C128.179 201.339 121.092 178.594 142.152 172.028C163.212 165.463 170.304 188.206 191.364 181.641C212.424 175.075 205.333 152.331 226.394 145.765" stroke="white" stroke-opacity="0.08" stroke-width="2" stroke-miterlimit="10"/>
<path d="M-142.448 148.516C-121.391 141.951 -114.301 164.696 -93.2404 158.129C-72.1801 151.564 -79.2707 128.82 -58.2145 122.255C-37.1578 115.69 -30.0631 138.433 -9.00288 131.867C12.0574 125.301 4.96273 102.559 26.023 95.9925C47.0832 89.4267 54.1744 112.171 75.2306 105.606C96.2873 99.0416 89.2002 76.2963 110.26 69.7301C131.321 63.1644 138.411 85.9086 159.472 79.3424C180.532 72.7767 173.441 50.0327 194.501 43.4668" stroke="white" stroke-opacity="0.08" stroke-width="2" stroke-miterlimit="10"/>
<path d="M-89.2912 319.013C-68.235 312.448 -61.1439 335.192 -40.0836 328.626C-19.0233 322.06 -26.1144 299.316 -5.05772 292.751C15.9985 286.186 23.0931 308.929 44.1534 302.364C65.2137 295.798 58.1195 273.055 79.1798 266.489C100.24 259.923 107.331 282.667 128.387 276.103C149.444 269.538 142.357 246.793 163.417 240.226C184.477 233.661 191.568 256.405 212.628 249.839C233.689 243.273 226.598 220.529 247.658 213.963" stroke="white" stroke-opacity="0.08" stroke-width="2" stroke-miterlimit="10"/>
<path d="M-131.818 182.615C-110.762 176.05 -103.67 198.795 -82.6102 192.229C-61.55 185.663 -68.6411 162.919 -47.5843 156.354C-26.5281 149.79 -19.4335 172.532 1.62679 165.967C22.687 159.4 15.5929 136.658 36.6531 130.092C57.7134 123.526 64.804 146.27 85.8607 139.705C106.917 133.141 99.8299 110.395 120.89 103.83C141.95 97.2633 149.041 120.008 170.102 113.442C191.162 106.876 184.071 84.1319 205.132 77.5657" stroke="white" stroke-opacity="0.08" stroke-width="2" stroke-miterlimit="10"/>
<path d="M-163.71 80.3183C-142.653 73.7536 -135.562 96.4973 -114.502 89.9316C-93.4419 83.3659 -100.532 60.6217 -79.4762 54.057C-58.4195 47.4923 -51.3249 70.235 -30.2646 63.6693C-9.20438 57.1036 -16.299 34.3605 4.76123 27.7946C25.8215 21.2287 32.9126 43.9728 53.9688 37.4081C75.0255 30.8435 67.9385 8.09817 88.9987 1.53231C110.059 -5.03357 117.15 17.7105 138.21 11.1446C159.271 4.57877 152.179 -18.1653 173.24 -24.7312" stroke="white" stroke-opacity="0.08" stroke-width="2" stroke-miterlimit="10"/>
<path d="M-50.3206 444.021C-29.2644 437.456 -22.1732 460.201 -1.11298 453.635C19.9473 447.069 12.8562 424.325 33.9129 417.76C54.9696 411.196 62.0637 433.938 83.1245 427.373C104.185 420.806 97.0901 398.064 118.15 391.498C139.211 384.932 146.301 407.676 167.358 401.111C188.414 394.546 181.327 371.801 202.388 365.236C223.448 358.67 230.539 381.414 251.599 374.848C272.659 368.282 265.569 345.538 286.629 338.972" stroke="white" stroke-opacity="0.08" stroke-width="2" stroke-miterlimit="10"/>
<path d="M-53.86 432.665C-32.8033 426.101 -25.7127 448.845 -4.65242 442.279C16.4083 435.713 9.31722 412.969 30.3739 406.405C51.4302 399.84 58.5248 422.583 79.5851 416.017C100.645 409.451 93.5507 386.708 114.611 380.142C135.671 373.576 142.762 396.32 163.819 389.756C184.875 383.191 177.788 360.446 198.848 353.88C219.909 347.314 227 370.058 248.06 363.492C269.12 356.926 262.029 334.182 283.09 327.616" stroke="white" stroke-opacity="0.08" stroke-width="2" stroke-miterlimit="10"/>
</g>
</svg>
