<?xml version="1.0" standalone="no"?>
<!DOCTYPE svg PUBLIC "-//W3C//DTD SVG 20010904//EN"
 "http://www.w3.org/TR/2001/REC-SVG-20010904/DTD/svg10.dtd">
<svg version="1.0" xmlns="http://www.w3.org/2000/svg"
 width="980.000000pt" height="980.000000pt" viewBox="0 0 980.000000 980.000000"
 preserveAspectRatio="xMidYMid meet">

<g transform="translate(0.000000,980.000000) scale(0.100000,-0.100000)"
fill="#000000" stroke="none">
<path d="M4715 9793 c-269 -13 -542 -45 -765 -89 -1143 -229 -2151 -843 -2876
-1750 -948 -1186 -1290 -2740 -929 -4219 267 -1096 903 -2059 1813 -2748 1046
-793 2414 -1133 3703 -922 484 80 894 210 1334 424 296 144 541 291 772 462
105 78 133 119 133 199 0 178 -217 276 -348 158 -20 -18 -96 -72 -167 -120
-1025 -678 -2195 -912 -3370 -673 -1340 272 -2480 1149 -3089 2375 -223 448
-367 934 -432 1450 -21 172 -30 679 -15 863 17 194 47 405 82 571 365 1730
1714 3083 3434 3445 333 70 623 96 1004 88 274 -5 425 -19 652 -57 1465 -249
2719 -1232 3313 -2595 250 -575 366 -1138 366 -1776 0 -279 -10 -428 -45 -673
-65 -446 -180 -817 -387 -1249 l-100 -207 12 -49 c33 -138 196 -205 308 -127
55 38 218 336 336 613 370 870 442 1900 201 2880 -216 875 -652 1650 -1290
2288 -560 561 -1207 959 -1958 1204 -525 172 -1163 260 -1692 234z"/>
<path d="M4710 7379 c-514 -59 -963 -332 -1248 -759 -105 -158 -196 -372 -240
-565 -69 -302 -51 -667 49 -951 127 -364 378 -686 687 -882 69 -44 72 -47 50
-56 -503 -212 -898 -583 -1142 -1072 -67 -135 -136 -309 -136 -343 0 -11 -5
-23 -11 -27 -7 -4 -9 -22 -6 -45 13 -101 124 -163 228 -128 56 19 78 47 148
194 117 243 228 402 401 576 333 334 748 537 1209 590 132 15 435 7 551 -15
331 -62 634 -195 895 -395 90 -68 279 -255 350 -346 127 -163 240 -359 294
-514 33 -93 58 -114 144 -119 52 -3 67 0 96 20 60 40 75 71 79 154 3 44 0 80
-7 87 -5 7 -30 62 -54 123 -180 447 -453 790 -827 1037 -96 64 -321 182 -413
217 l-38 15 93 62 c377 250 638 645 728 1099 28 139 38 393 21 530 -64 520
-340 966 -773 1248 -324 211 -741 309 -1128 265z m454 -414 c500 -113 892
-487 1018 -972 40 -153 50 -391 24 -543 -73 -419 -340 -776 -725 -969 -311
-157 -663 -178 -998 -60 -439 154 -762 506 -874 949 -30 123 -38 372 -14 511
62 372 283 701 611 911 137 88 332 159 513 188 82 13 363 4 445 -15z"/>
</g>
</svg>
