<?xml version="1.0" standalone="no"?>
<!DOCTYPE svg PUBLIC "-//W3C//DTD SVG 20010904//EN"
 "http://www.w3.org/TR/2001/REC-SVG-20010904/DTD/svg10.dtd">
<svg version="1.0" xmlns="http://www.w3.org/2000/svg"
 width="366.000000pt" height="554.000000pt" viewBox="0 0 366.000000 554.000000"
 preserveAspectRatio="xMidYMid meet">

<g transform="translate(0.000000,554.000000) scale(0.100000,-0.100000)"
fill="#000000" stroke="none">
<path d="M1665 5525 c-146 -32 -260 -96 -366 -205 -115 -118 -189 -298 -189
-459 l0 -77 -56 -54 c-154 -152 -260 -358 -294 -572 -18 -112 -8 -331 20 -433
65 -240 193 -427 401 -588 75 -58 255 -146 332 -161 15 -3 39 -8 54 -12 15 -3
30 -7 34 -10 5 -3 52 -9 106 -13 240 -21 477 37 673 163 110 71 310 275 310
315 0 6 3 11 8 11 13 0 106 193 117 243 2 12 12 49 22 82 25 86 25 384 0 470
-10 33 -20 71 -23 85 -8 39 -88 203 -131 267 -21 32 -70 92 -109 133 l-72 75
-5 90 c-6 111 -12 144 -42 218 -56 141 -172 278 -295 350 -142 82 -344 116
-495 82z m205 -135 c104 -15 112 -18 179 -52 173 -89 294 -269 308 -458 11
-149 -55 -321 -165 -427 -219 -214 -562 -214 -776 1 -100 100 -166 252 -166
386 0 132 58 275 151 375 108 115 216 165 394 184 6 0 39 -4 75 -9z"/>
<path d="M1732 5047 c-116 -43 -175 -181 -123 -292 96 -208 410 -140 411 89 0
147 -150 253 -288 203z"/>
<path d="M1140 2845 c-175 -30 -324 -84 -470 -171 -333 -196 -561 -515 -647
-904 -14 -64 -17 -168 -20 -719 -2 -354 0 -648 4 -652 14 -14 258 -85 478
-140 341 -85 696 -143 1047 -170 202 -16 760 -7 938 15 411 51 795 149 1053
269 l88 40 -4 641 c-3 617 -4 644 -25 731 -70 289 -178 485 -376 680 -197 195
-395 303 -681 372 -61 15 -149 17 -690 19 -475 2 -638 -1 -695 -11z m322 -167
c58 -73 95 -132 146 -234 90 -181 133 -338 154 -561 l12 -133 32 0 c32 0 33 1
39 58 45 433 131 727 252 862 l47 53 131 -6 c72 -3 166 -13 210 -22 476 -98
841 -452 951 -925 8 -36 19 -119 24 -185 10 -131 13 -978 4 -1036 -6 -34 -9
-37 -98 -71 -373 -147 -814 -224 -1331 -235 -492 -10 -865 29 -1376 142 -164
37 -471 120 -502 137 -18 9 -19 33 -14 566 4 443 8 573 20 634 114 581 599
986 1193 997 l72 1 34 -42z"/>
<path d="M2587 1554 c-4 -4 -7 -92 -7 -196 l0 -188 -185 0 -185 0 0 -115 0
-115 185 0 185 0 0 -190 0 -190 120 0 120 0 0 190 0 190 195 0 195 0 0 115 0
115 -195 0 -195 0 -2 193 -3 192 -111 3 c-60 1 -113 -1 -117 -4z"/>
</g>
</svg>
