<svg width="15" height="15" viewBox="0 0 15 15" fill="none" xmlns="http://www.w3.org/2000/svg">
<path d="M8.01954 14.6948L14.2281 8.4863C14.5283 8.18927 14.5283 7.70385 14.2281 7.40363L8.01954 1.19831C7.72253 0.89809 7.23708 0.89809 6.93689 1.19831L6.22789 1.90731C5.92131 2.21071 5.92767 2.70573 6.24068 3.00274L10.0891 6.66909H0.910405C0.485651 6.66909 0.143921 7.01082 0.143921 7.43557V8.45755C0.143921 8.8823 0.485651 9.22403 0.910405 9.22403H10.0891L6.24068 12.8904C5.93088 13.1874 5.92449 13.6824 6.22789 13.9858L6.93689 14.6948C7.2339 14.995 7.71935 14.995 8.01954 14.6948Z" fill="white"/>
</svg>
