<svg width="174" height="186" viewBox="0 0 174 186" fill="none" xmlns="http://www.w3.org/2000/svg">
<path d="M108.381 158.965C143.638 147.973 163.308 110.481 152.316 75.2249C141.325 39.9684 103.833 20.298 68.5765 31.2898C33.32 42.2816 13.6496 79.7731 24.6414 115.03C35.6331 150.286 73.1247 169.957 108.381 158.965Z" fill="#161617"/>
<path d="M28.1335 128.546C36.1793 126.038 38.8889 134.729 46.9362 132.22C54.9836 129.711 52.274 121.02 60.32 118.512C68.3659 116.003 71.0769 124.694 79.1242 122.185C87.1715 119.676 84.4606 110.986 92.5079 108.477C100.555 105.968 103.265 114.659 111.311 112.15C119.356 109.642 116.648 100.951 124.696 98.4415C132.743 95.9327 135.453 104.623 143.5 102.114C151.547 99.6056 148.838 90.9148 156.885 88.406" stroke="white" stroke-opacity="0.08" stroke-width="2" stroke-miterlimit="10"/>
<path d="M36.2585 154.605C44.3043 152.097 47.0139 160.788 55.0612 158.279C63.1086 155.77 60.399 147.079 68.445 144.571C76.4909 142.063 79.2017 150.753 87.2492 148.244C95.2965 145.735 92.5856 137.045 100.633 134.536C108.68 132.027 111.39 140.718 119.436 138.209C127.481 135.701 124.773 127.01 132.821 124.501C140.868 121.992 143.578 130.683 151.625 128.174C159.672 125.665 156.963 116.974 165.01 114.465" stroke="white" stroke-opacity="0.08" stroke-width="2" stroke-miterlimit="10"/>
<path d="M20.0105 102.487C28.0563 99.9786 30.7659 108.669 38.8132 106.16C46.8606 103.652 44.151 94.9608 52.197 92.4524C60.2429 89.9439 62.9537 98.6341 71.0012 96.1253C79.0485 93.6165 76.3376 84.9261 84.3849 82.4173C92.4322 79.9084 95.1416 88.599 103.188 86.0906C111.233 83.5822 108.525 74.891 116.573 72.3822C124.62 69.8733 127.33 78.564 135.377 76.0551C143.424 73.5463 140.715 64.8555 148.762 62.3467" stroke="white" stroke-opacity="0.08" stroke-width="2" stroke-miterlimit="10"/>
<path d="M7.823 63.3979C15.8689 60.8895 18.5783 69.5803 26.6256 67.0713C34.673 64.5624 31.9636 55.8716 40.0096 53.3632C48.0553 50.8548 50.7663 59.5452 58.8136 57.0362C66.8609 54.5273 64.15 45.8371 72.1973 43.3281C80.2446 40.8193 82.9542 49.5101 91 47.0016C99.046 44.4932 96.3379 35.802 104.385 33.293C112.433 30.7842 115.142 39.475 123.189 36.9662C131.237 34.4571 128.527 25.7664 136.575 23.2576" stroke="white" stroke-opacity="0.08" stroke-width="2" stroke-miterlimit="10"/>
<path d="M40.321 167.635C48.367 165.127 51.0764 173.818 59.1237 171.309C67.1711 168.8 64.4617 160.109 72.5075 157.601C80.5534 155.092 83.2644 163.783 91.3117 161.274C99.359 158.765 96.6481 150.074 104.695 147.565C112.743 145.057 115.452 153.747 123.498 151.239C131.544 148.731 128.836 140.039 136.883 137.53C144.931 135.022 147.64 143.712 155.688 141.204C163.735 138.694 161.025 130.004 169.073 127.495" stroke="white" stroke-opacity="0.08" stroke-width="2" stroke-miterlimit="10"/>
<path d="M24.071 115.516C32.117 113.008 34.8264 121.699 42.8737 119.19C50.9211 116.681 48.2117 107.99 56.2575 105.482C64.3034 102.973 67.0144 111.664 75.0617 109.155C83.109 106.646 80.3981 97.9556 88.4454 95.4468C96.4928 92.938 99.2023 101.629 107.248 99.1201C115.294 96.6117 112.586 87.9205 120.633 85.4117C128.681 82.9029 131.39 91.5935 139.438 89.0847C147.485 86.5758 144.775 77.885 152.823 75.3762" stroke="white" stroke-opacity="0.08" stroke-width="2" stroke-miterlimit="10"/>
<path d="M11.8855 76.4277C19.9314 73.9193 22.6408 82.6101 30.6882 80.1011C38.7356 77.5923 36.026 68.9015 44.072 66.393C52.1179 63.8846 54.8289 72.575 62.8762 70.066C70.9235 67.5572 68.2126 58.8669 76.2599 56.3579C84.3072 53.8491 87.0166 62.5399 95.0626 60.0315C103.108 57.523 100.4 48.8319 108.448 46.3228C116.495 43.814 119.205 52.5048 127.252 49.9958C135.299 47.487 132.59 38.7962 140.637 36.2874" stroke="white" stroke-opacity="0.08" stroke-width="2" stroke-miterlimit="10"/>
<path d="M32.1963 141.576C40.2423 139.067 42.9517 147.758 50.999 145.249C59.0463 142.74 56.3369 134.05 64.3827 131.541C72.4287 129.033 75.1396 137.723 83.1869 135.214C91.2343 132.705 88.5233 124.015 96.5707 121.506C104.618 118.997 107.328 127.688 115.373 125.18C123.419 122.671 120.711 113.98 128.759 111.471C136.806 108.962 139.516 117.653 147.563 115.144C155.61 112.635 152.901 103.944 160.948 101.436" stroke="white" stroke-opacity="0.08" stroke-width="2" stroke-miterlimit="10"/>
<path d="M15.948 89.4573C23.9939 86.9488 26.7033 95.6396 34.7506 93.1308C42.798 90.6218 40.0886 81.9312 48.1344 79.4228C56.1803 76.9143 58.8913 85.6045 66.9386 83.0957C74.9859 80.5867 72.275 71.8965 80.3223 69.3877C88.3696 66.8787 91.0792 75.5694 99.125 73.061C107.171 70.5526 104.463 61.8614 112.51 59.3526C120.558 56.8436 123.267 65.5344 131.315 63.0255C139.362 60.5165 136.652 51.8259 144.7 49.3169" stroke="white" stroke-opacity="0.08" stroke-width="2" stroke-miterlimit="10"/>
<path d="M3.7605 50.3685C11.8064 47.86 14.5159 56.5506 22.5632 54.0418C30.6106 51.533 27.901 42.8422 35.947 40.3337C43.9929 37.8253 46.7039 46.5155 54.7512 44.0067C62.7985 41.4979 60.0876 32.8075 68.1349 30.2986C76.1822 27.7898 78.8916 36.4804 86.9376 33.972C94.9834 31.4636 92.2754 22.7724 100.323 20.2636C108.37 17.7547 111.08 26.4454 119.127 23.9365C127.174 21.4276 124.465 12.7369 132.512 10.228" stroke="white" stroke-opacity="0.08" stroke-width="2" stroke-miterlimit="10"/>
<path d="M26.782 124.207C34.828 121.699 37.5374 130.39 45.5847 127.881C53.6322 125.372 50.9226 116.681 58.9686 114.173C67.0144 111.664 69.7253 120.355 77.7726 117.846C85.8199 115.337 83.109 106.646 91.1563 104.137C99.2037 101.629 101.913 110.319 109.959 107.811C118.005 105.303 115.297 96.6114 123.344 94.1024C131.392 91.5936 134.101 100.284 142.149 97.7753C150.196 95.2665 147.486 86.5757 155.534 84.0669" stroke="white" stroke-opacity="0.08" stroke-width="2" stroke-miterlimit="10"/>
<path d="M34.905 150.267C42.951 147.758 45.6604 156.449 53.7077 153.94C61.7552 151.431 59.0457 142.74 67.0916 140.232C75.1374 137.724 77.8483 146.414 85.8957 143.905C93.943 141.396 91.2321 132.706 99.2794 130.197C107.327 127.688 110.036 136.379 118.082 133.87C126.128 131.362 123.42 122.671 131.467 120.162C139.515 117.653 142.224 126.344 150.272 123.835C158.319 121.326 155.609 112.635 163.657 110.126" stroke="white" stroke-opacity="0.08" stroke-width="2" stroke-miterlimit="10"/>
<path d="M18.6569 98.148C26.7028 95.6395 29.4122 104.33 37.4595 101.821C45.507 99.3125 42.7974 90.6217 50.8434 88.1132C58.8892 85.605 61.6001 94.2952 69.6474 91.7864C77.6948 89.2774 74.9838 80.5872 83.0312 78.0783C91.0787 75.5693 93.7881 84.2601 101.834 81.7517C109.88 79.2432 107.172 70.5521 115.219 68.0432C123.266 65.5342 125.976 74.225 134.023 71.7162C142.071 69.2072 139.361 60.5166 147.409 58.0076" stroke="white" stroke-opacity="0.08" stroke-width="2" stroke-miterlimit="10"/>
<path d="M6.46948 59.0591C14.5154 56.5506 17.2249 65.2414 25.2722 62.7324C33.3195 60.2236 30.6101 51.5328 38.6559 49.0243C46.7019 46.5159 49.4128 55.2063 57.4602 52.6973C65.5075 50.1885 62.7965 41.4983 70.8439 38.9892C78.8912 36.4804 81.6006 45.1712 89.6466 42.6628C97.6925 40.1543 94.9845 31.4632 103.032 28.9542C111.079 26.4454 113.789 35.1361 121.836 32.6273C129.883 30.1183 127.174 21.4276 135.221 18.9187" stroke="white" stroke-opacity="0.08" stroke-width="2" stroke-miterlimit="10"/>
<path d="M38.9675 163.296C47.0133 160.788 49.7229 169.479 57.7702 166.97C65.8175 164.461 63.1082 155.77 71.1539 153.262C79.1999 150.753 81.9109 159.444 89.9582 156.935C98.0055 154.426 95.2946 145.736 103.342 143.227C111.389 140.718 114.099 149.409 122.145 146.9C130.191 144.392 127.483 135.701 135.53 133.191C143.577 130.683 146.287 139.373 154.334 136.865C162.381 134.356 159.672 125.665 167.719 123.156" stroke="white" stroke-opacity="0.08" stroke-width="2" stroke-miterlimit="10"/>
<path d="M22.7195 111.178C30.7653 108.669 33.4749 117.36 41.5222 114.851C49.5695 112.342 46.8601 103.651 54.9059 101.143C62.9519 98.6346 65.6628 107.325 73.7102 104.816C81.7575 102.307 79.0465 93.6168 87.0939 91.1079C95.1412 88.5991 97.8506 97.2897 105.897 94.7813C113.943 92.2728 111.235 83.5817 119.282 81.0728C127.329 78.564 130.039 87.2546 138.086 84.7458C146.133 82.237 143.424 73.5462 151.471 71.0374" stroke="white" stroke-opacity="0.08" stroke-width="2" stroke-miterlimit="10"/>
<path d="M10.532 72.0886C18.5779 69.5802 21.2874 78.271 29.3346 75.762C37.3821 73.2532 34.6725 64.5624 42.7185 62.0539C50.7643 59.5455 53.4752 68.2359 61.5225 65.7269C69.5699 63.2181 66.8589 54.5278 74.9063 52.0188C82.9538 49.51 85.6632 58.2008 93.709 55.6924C101.755 53.1839 99.0469 44.4927 107.094 41.9837C115.142 39.4749 117.851 48.1657 125.898 45.6567C133.946 43.1479 131.236 34.4571 139.284 31.9482" stroke="white" stroke-opacity="0.08" stroke-width="2" stroke-miterlimit="10"/>
<path d="M30.8425 137.237C38.8883 134.729 41.5979 143.419 49.6452 140.91C57.6925 138.402 54.9832 129.711 63.0289 127.202C71.0749 124.694 73.7858 133.384 81.8332 130.875C89.8805 128.366 87.1696 119.676 95.2169 117.167C103.264 114.658 105.974 123.349 114.02 120.841C122.066 118.332 119.358 109.641 127.405 107.132C135.452 104.623 138.162 113.314 146.209 110.805C154.256 108.296 151.547 99.6055 159.594 97.0967" stroke="white" stroke-opacity="0.08" stroke-width="2" stroke-miterlimit="10"/>
<path d="M14.5946 85.1182C22.6405 82.6097 25.35 91.3005 33.3973 88.7917C41.4446 86.2827 38.7353 77.5921 46.781 75.0836C54.827 72.5752 57.5379 81.2654 65.5853 78.7566C73.6326 76.2476 70.9217 67.5574 78.969 65.0486C87.0163 62.5395 89.7257 71.2303 97.7717 68.7219C105.818 66.2135 103.11 57.5223 111.157 55.0135C119.204 52.5044 121.914 61.1952 129.961 58.6864C138.008 56.1774 135.299 47.4868 143.346 44.9778" stroke="white" stroke-opacity="0.08" stroke-width="2" stroke-miterlimit="10"/>
<path d="M2.40894 46.0293C10.4548 43.5209 13.1643 52.2115 21.2116 49.7027C29.2591 47.1939 26.5495 38.5031 34.5955 35.9946C42.6412 33.4862 45.3522 42.1764 53.3995 39.6676C61.4468 37.1588 58.7359 28.4684 66.7832 25.9595C74.8307 23.4507 77.5401 32.1413 85.5859 29.633C93.6319 27.1245 90.9239 18.4333 98.9712 15.9245C107.019 13.4156 109.728 22.1063 117.775 19.5974C125.823 17.0885 123.113 8.3978 131.161 5.88892" stroke="white" stroke-opacity="0.08" stroke-width="2" stroke-miterlimit="10"/>
<path d="M43.0302 176.326C51.0761 173.818 53.7855 182.508 61.8328 180C69.8804 177.491 67.1708 168.8 75.2168 166.291C83.2625 163.783 85.9735 172.473 94.0208 169.964C102.068 167.455 99.3572 158.765 107.405 156.256C115.452 153.747 118.161 162.438 126.207 159.93C134.253 157.421 131.545 148.73 139.592 146.221C147.64 143.712 150.349 152.403 158.397 149.894C166.444 147.385 163.734 138.695 171.782 136.186" stroke="white" stroke-opacity="0.08" stroke-width="2" stroke-miterlimit="10"/>
<path d="M26.782 124.207C34.828 121.699 37.5374 130.39 45.5847 127.881C53.6322 125.372 50.9226 116.681 58.9686 114.173C67.0144 111.664 69.7253 120.355 77.7726 117.846C85.8199 115.337 83.109 106.646 91.1563 104.137C99.2037 101.629 101.913 110.319 109.959 107.811C118.005 105.303 115.297 96.6114 123.344 94.1024C131.392 91.5936 134.101 100.284 142.149 97.7753C150.196 95.2665 147.486 86.5757 155.534 84.0669" stroke="white" stroke-opacity="0.08" stroke-width="2" stroke-miterlimit="10"/>
<path d="M34.905 150.267C42.951 147.758 45.6604 156.449 53.7077 153.94C61.7552 151.431 59.0457 142.74 67.0916 140.232C75.1374 137.724 77.8483 146.414 85.8957 143.905C93.943 141.396 91.2321 132.706 99.2794 130.197C107.327 127.688 110.036 136.379 118.082 133.87C126.128 131.362 123.42 122.671 131.467 120.162C139.515 117.653 142.224 126.344 150.272 123.835C158.319 121.326 155.609 112.635 163.657 110.126" stroke="white" stroke-opacity="0.08" stroke-width="2" stroke-miterlimit="10"/>
<path d="M18.6569 98.148C26.7028 95.6395 29.4122 104.33 37.4595 101.821C45.507 99.3125 42.7974 90.6217 50.8434 88.1132C58.8892 85.605 61.6001 94.2952 69.6474 91.7864C77.6948 89.2774 74.9838 80.5872 83.0312 78.0783C91.0787 75.5693 93.7881 84.2601 101.834 81.7517C109.88 79.2432 107.172 70.5521 115.219 68.0432C123.266 65.5342 125.976 74.225 134.023 71.7162C142.071 69.2072 139.361 60.5166 147.409 58.0076" stroke="white" stroke-opacity="0.08" stroke-width="2" stroke-miterlimit="10"/>
<path d="M6.46948 59.0591C14.5154 56.5506 17.2249 65.2414 25.2722 62.7324C33.3195 60.2236 30.6101 51.5328 38.6559 49.0243C46.7019 46.5159 49.4128 55.2063 57.4602 52.6973C65.5075 50.1885 62.7965 41.4983 70.8439 38.9892C78.8912 36.4804 81.6006 45.1712 89.6466 42.6628C97.6925 40.1543 94.9845 31.4632 103.032 28.9542C111.079 26.4454 113.789 35.1361 121.836 32.6273C129.883 30.1183 127.174 21.4276 135.221 18.9187" stroke="white" stroke-opacity="0.08" stroke-width="2" stroke-miterlimit="10"/>
<path d="M38.9675 163.296C47.0133 160.788 49.7229 169.479 57.7702 166.97C65.8175 164.461 63.1082 155.77 71.1539 153.262C79.1999 150.753 81.9109 159.444 89.9582 156.935C98.0055 154.426 95.2946 145.736 103.342 143.227C111.389 140.718 114.099 149.409 122.145 146.9C130.191 144.392 127.483 135.701 135.53 133.191C143.577 130.683 146.287 139.373 154.334 136.865C162.381 134.356 159.672 125.665 167.719 123.156" stroke="white" stroke-opacity="0.08" stroke-width="2" stroke-miterlimit="10"/>
<path d="M22.7195 111.178C30.7653 108.669 33.4749 117.36 41.5222 114.851C49.5695 112.342 46.8601 103.651 54.9059 101.143C62.9519 98.6346 65.6628 107.325 73.7102 104.816C81.7575 102.307 79.0465 93.6168 87.0939 91.1079C95.1412 88.5991 97.8506 97.2897 105.897 94.7813C113.943 92.2728 111.235 83.5817 119.282 81.0728C127.329 78.564 130.039 87.2546 138.086 84.7458C146.133 82.237 143.424 73.5462 151.471 71.0374" stroke="white" stroke-opacity="0.08" stroke-width="2" stroke-miterlimit="10"/>
<path d="M10.532 72.0886C18.5779 69.5802 21.2874 78.271 29.3346 75.762C37.3821 73.2532 34.6725 64.5624 42.7185 62.0539C50.7643 59.5455 53.4752 68.2359 61.5225 65.7269C69.5699 63.2181 66.8589 54.5278 74.9063 52.0188C82.9538 49.51 85.6632 58.2008 93.709 55.6924C101.755 53.1839 99.0469 44.4927 107.094 41.9837C115.142 39.4749 117.851 48.1657 125.898 45.6567C133.946 43.1479 131.236 34.4571 139.284 31.9482" stroke="white" stroke-opacity="0.08" stroke-width="2" stroke-miterlimit="10"/>
<path d="M30.8425 137.237C38.8883 134.729 41.5979 143.419 49.6452 140.91C57.6925 138.402 54.9832 129.711 63.0289 127.202C71.0749 124.694 73.7858 133.384 81.8332 130.875C89.8805 128.366 87.1696 119.676 95.2169 117.167C103.264 114.658 105.974 123.349 114.02 120.841C122.066 118.332 119.358 109.641 127.405 107.132C135.452 104.623 138.162 113.314 146.209 110.805C154.256 108.296 151.547 99.6055 159.594 97.0967" stroke="white" stroke-opacity="0.08" stroke-width="2" stroke-miterlimit="10"/>
<path d="M14.5946 85.1182C22.6405 82.6097 25.35 91.3005 33.3973 88.7917C41.4446 86.2827 38.7353 77.5921 46.781 75.0836C54.827 72.5752 57.5379 81.2654 65.5853 78.7566C73.6326 76.2476 70.9217 67.5574 78.969 65.0486C87.0163 62.5395 89.7257 71.2303 97.7717 68.7219C105.818 66.2135 103.11 57.5223 111.157 55.0135C119.204 52.5044 121.914 61.1952 129.961 58.6864C138.008 56.1774 135.299 47.4868 143.346 44.9778" stroke="white" stroke-opacity="0.08" stroke-width="2" stroke-miterlimit="10"/>
<path d="M2.40894 46.0293C10.4548 43.5209 13.1643 52.2115 21.2116 49.7027C29.2591 47.1939 26.5495 38.5031 34.5955 35.9946C42.6412 33.4862 45.3522 42.1764 53.3995 39.6676C61.4468 37.1588 58.7359 28.4684 66.7832 25.9595C74.8307 23.4507 77.5401 32.1413 85.5859 29.633C93.6319 27.1245 90.9239 18.4333 98.9712 15.9245C107.019 13.4156 109.728 22.1063 117.775 19.5974C125.823 17.0885 123.113 8.3978 131.161 5.88892" stroke="white" stroke-opacity="0.08" stroke-width="2" stroke-miterlimit="10"/>
<path d="M41.6765 171.987C49.7225 169.479 52.4319 178.169 60.4792 175.661C68.5265 173.152 65.8171 164.461 73.8629 161.953C81.9089 159.444 84.6198 168.134 92.6672 165.626C100.714 163.117 98.0036 154.426 106.051 151.918C114.098 149.409 116.808 158.099 124.854 155.591C132.9 153.082 130.192 144.391 138.239 141.882C146.286 139.374 148.996 148.064 157.043 145.555C165.09 143.047 162.381 134.356 170.428 131.847" stroke="white" stroke-opacity="0.08" stroke-width="2" stroke-miterlimit="10"/>
<path d="M25.4286 119.868C33.4746 117.36 36.184 126.051 44.2313 123.542C52.2786 121.033 49.5692 112.342 57.615 109.834C65.661 107.326 68.3719 116.016 76.4192 113.507C84.4666 110.998 81.7556 102.308 89.803 99.7988C97.8503 97.2898 100.56 105.981 108.606 103.472C116.652 100.964 113.944 92.2726 121.991 89.7638C130.038 87.2549 132.748 95.9455 140.795 93.4367C148.842 90.9279 146.133 82.2371 154.18 79.7283" stroke="white" stroke-opacity="0.08" stroke-width="2" stroke-miterlimit="10"/>
<path d="M33.5535 145.928C41.5994 143.419 44.3088 152.11 52.3562 149.601C60.4035 147.092 57.6941 138.401 65.7399 135.893C73.7859 133.385 76.4968 142.075 84.5441 139.566C92.5915 137.057 89.8805 128.367 97.9278 125.858C105.975 123.349 108.685 132.04 116.731 129.531C124.777 127.023 122.068 118.332 130.116 115.823C138.163 113.314 140.873 122.005 148.92 119.496C156.967 116.987 154.258 108.296 162.305 105.787" stroke="white" stroke-opacity="0.08" stroke-width="2" stroke-miterlimit="10"/>
<path d="M17.3035 93.8091C25.3494 91.3007 28.0588 99.9915 36.1061 97.4824C44.1535 94.9736 41.4441 86.2828 49.4899 83.7744C57.5358 81.2661 60.2468 89.9564 68.2941 87.4475C76.3414 84.9385 73.6305 76.2483 81.6778 73.7395C89.7251 71.2305 92.4347 79.9213 100.481 77.4128C108.526 74.9044 105.818 66.2132 113.866 63.7044C121.913 61.1954 124.622 69.8862 132.67 67.3773C140.717 64.8683 138.008 56.1777 146.055 53.6687" stroke="white" stroke-opacity="0.08" stroke-width="2" stroke-miterlimit="10"/>
<path d="M5.11792 54.7199C13.1638 52.2115 15.8733 60.9023 23.9207 58.3933C31.968 55.8845 29.2584 47.1937 37.3044 44.6852C45.3502 42.1768 48.0611 50.8672 56.1085 48.3582C64.1558 45.8494 61.445 37.1591 69.4924 34.6501C77.5397 32.1413 80.2491 40.8321 88.2951 38.3237C96.3409 35.8152 93.6328 27.124 101.68 24.6151C109.727 22.1062 112.437 30.797 120.484 28.2881C128.532 25.7792 125.822 17.0885 133.87 14.5796" stroke="white" stroke-opacity="0.08" stroke-width="2" stroke-miterlimit="10"/>
<path d="M37.616 158.958C45.6618 156.449 48.3713 165.14 56.4187 162.631C64.466 160.122 61.7564 151.431 69.8024 148.923C77.8482 146.414 80.5591 155.105 88.6064 152.596C96.6538 150.087 93.943 141.397 101.99 138.888C110.038 136.379 112.747 145.07 120.793 142.561C128.839 140.053 126.131 131.362 134.178 128.853C142.225 126.344 144.935 135.035 152.982 132.526C161.03 130.017 158.32 121.326 166.368 118.817" stroke="white" stroke-opacity="0.08" stroke-width="2" stroke-miterlimit="10"/>
<path d="M21.366 106.839C29.4118 104.33 32.1214 113.021 40.1687 110.512C48.2161 108.003 45.5065 99.3126 53.5525 96.8042C61.5983 94.2957 64.3092 102.986 72.3565 100.477C80.404 97.9683 77.6931 89.2779 85.7404 86.7691C93.7877 84.2602 96.4971 92.9508 104.543 90.4424C112.589 87.934 109.881 79.2428 117.928 76.734C125.976 74.2251 128.685 82.9157 136.732 80.4069C144.78 77.8981 142.07 69.2073 150.118 66.6985" stroke="white" stroke-opacity="0.08" stroke-width="2" stroke-miterlimit="10"/>
<path d="M9.18042 67.7497C17.2263 65.2413 19.9358 73.9321 27.9831 71.4231C36.0304 68.9143 33.321 60.2235 41.3668 57.715C49.4128 55.2066 52.1237 63.897 60.1711 61.388C68.2184 58.8792 65.5074 50.189 73.5548 47.6799C81.6021 45.1711 84.3117 53.8619 92.3575 51.3535C100.403 48.845 97.6954 40.1539 105.743 37.6448C113.79 35.136 116.499 43.8268 124.547 41.3178C132.594 38.809 129.885 30.1183 137.932 27.6094" stroke="white" stroke-opacity="0.08" stroke-width="2" stroke-miterlimit="10"/>
<path d="M29.4908 132.898C37.5366 130.39 40.2462 139.08 48.2935 136.572C56.3409 134.063 53.6313 125.372 61.6773 122.863C69.7231 120.355 72.434 129.045 80.4813 126.536C88.5286 124.028 85.8179 115.337 93.8652 112.828C101.913 110.32 104.622 119.01 112.668 116.502C120.714 113.993 118.006 105.302 126.053 102.793C134.1 100.284 136.81 108.975 144.857 106.466C152.905 103.957 150.195 95.2666 158.242 92.7578" stroke="white" stroke-opacity="0.08" stroke-width="2" stroke-miterlimit="10"/>
<path d="M13.2429 80.7793C21.2888 78.2709 23.9984 86.9617 32.0457 84.4528C40.093 81.9438 37.3834 73.2532 45.4294 70.7448C53.4752 68.2363 56.1861 76.9266 64.2335 74.4177C72.2808 71.9087 69.57 63.2185 77.6174 60.7097C85.6647 58.2007 88.3741 66.8915 96.4201 64.383C104.466 61.8746 101.758 53.1834 109.805 50.6746C117.852 48.1656 120.562 56.8564 128.609 54.3475C136.657 51.8385 133.947 43.1479 141.995 40.6389" stroke="white" stroke-opacity="0.08" stroke-width="2" stroke-miterlimit="10"/>
<path d="M1.05542 41.6905C9.1013 39.182 11.8108 47.8726 19.8581 45.3638C27.9054 42.855 25.196 34.1642 33.2418 31.6558C41.2878 29.1473 43.9987 37.8375 52.0461 35.3287C60.0934 32.8199 57.3824 24.1296 65.4298 21.6207C73.4771 19.1118 76.1867 27.8025 84.2325 25.2941C92.2784 22.7857 89.5704 14.0945 97.6177 11.5856C105.665 9.0767 108.374 17.7674 116.422 15.2585C124.469 12.7497 121.76 4.05893 129.807 1.55005" stroke="white" stroke-opacity="0.08" stroke-width="2" stroke-miterlimit="10"/>
<path d="M44.3835 180.665C52.4293 178.156 55.1389 186.847 63.1862 184.338C71.2336 181.829 68.524 173.139 76.57 170.63C84.6159 168.122 87.3267 176.812 95.3742 174.303C103.422 171.794 100.711 163.104 108.758 160.595C116.805 158.086 119.515 166.777 127.561 164.269C135.606 161.76 132.898 153.069 140.946 150.56C148.993 148.051 151.703 156.742 159.75 154.233C167.797 151.724 165.088 143.033 173.135 140.525" stroke="white" stroke-opacity="0.08" stroke-width="2" stroke-miterlimit="10"/>
<path d="M43.0302 176.326C51.0761 173.818 53.7855 182.508 61.8328 180C69.8804 177.491 67.1708 168.8 75.2168 166.291C83.2625 163.783 85.9735 172.473 94.0208 169.964C102.068 167.455 99.3572 158.765 107.405 156.256C115.452 153.747 118.161 162.438 126.207 159.93C134.253 157.421 131.545 148.73 139.592 146.221C147.64 143.712 150.349 152.403 158.397 149.894C166.444 147.385 163.734 138.695 171.782 136.186" stroke="white" stroke-opacity="0.08" stroke-width="2" stroke-miterlimit="10"/>
</svg>
