<svg width="80" height="80" viewBox="0 0 80 80" fill="none" xmlns="http://www.w3.org/2000/svg">
<path d="M44.3369 12.0746L29.0185 27.393C27.717 28.6945 27.717 30.8047 29.0185 32.1063L36.0885 39.1763C37.3901 40.4779 39.5003 40.4779 40.8019 39.1763L56.1202 23.858C57.4218 22.5564 57.4218 20.4462 56.1202 19.1446L49.0502 12.0746C47.7486 10.7731 45.6384 10.7731 44.3369 12.0746Z" fill="#407BFF"/>
<path d="M56.381 16.2966L61.0952 11.5831L62.2737 12.7618C62.5862 13.0744 63.0101 13.25 63.4522 13.25C63.8942 13.25 64.3181 13.0744 64.6307 12.7618L65.8092 11.5831C66.1217 11.2706 66.2973 10.8467 66.2973 10.4046C66.2973 9.96263 66.1217 9.53871 65.8092 9.22615L58.738 2.15465C58.4254 1.84209 58.0015 1.6665 57.5595 1.6665C57.1175 1.6665 56.6936 1.84209 56.381 2.15465L55.2025 3.33315C54.8899 3.64571 54.7144 4.06963 54.7144 4.51165C54.7144 4.95367 54.8899 5.37759 55.2025 5.69015L56.381 6.86865L51.667 11.5831L56.381 16.2966Z" fill="#407BFF"/>
<path d="M66.6673 68.3331H65.631C68.5022 65.151 70.6559 61.3889 71.9463 57.3018C73.2367 53.2147 73.6336 48.8979 73.1101 44.644C72.5866 40.3901 71.1549 36.2984 68.9121 32.6461C66.6693 28.9938 63.6677 25.8662 60.1107 23.4751C59.8009 24.5066 59.2435 25.4466 58.487 26.2131L53.537 31.1631C56.0153 32.6347 58.146 34.625 59.783 36.9974C61.4199 39.3698 62.5244 42.0682 63.0205 44.9075C63.5167 47.7468 63.3929 50.6599 62.6575 53.4469C61.9222 56.2338 60.5927 58.8288 58.7603 61.0537C56.928 63.2786 54.636 65.0809 52.0417 66.3369C49.4474 67.5928 46.6122 68.2728 43.7304 68.3302C40.8486 68.3875 37.9885 67.8209 35.3463 66.6691C32.7041 65.5173 30.3423 63.8077 28.4228 61.6574C28.3925 61.6574 28.3645 61.6664 28.334 61.6664H16.5007C17.694 64.0809 19.2076 66.3234 21.0007 68.3331H20.0007C18.2331 68.335 16.5385 69.038 15.2887 70.2878C14.0389 71.5376 13.3359 73.2322 13.334 74.9998V76.6664C13.334 77.1085 13.5096 77.5324 13.8221 77.8449C14.1347 78.1575 14.5586 78.3331 15.0007 78.3331H71.6673C72.1093 78.3331 72.5333 78.1575 72.8458 77.8449C73.1584 77.5324 73.334 77.1085 73.334 76.6664V74.9998C73.3321 73.2322 72.6291 71.5376 71.3793 70.2878C70.1294 69.038 68.4348 68.335 66.6673 68.3331Z" fill="black"/>
<path d="M66.6673 68.3331H65.631C68.5022 65.151 70.6559 61.3889 71.9463 57.3018C73.2367 53.2147 73.6336 48.8979 73.1101 44.644C72.5866 40.3901 71.1549 36.2984 68.9121 32.6461C66.6693 28.9938 63.6677 25.8662 60.1107 23.4751C59.8009 24.5066 59.2435 25.4466 58.487 26.2131L53.537 31.1631C56.0153 32.6347 58.146 34.625 59.783 36.9974C61.4199 39.3698 62.5244 42.0682 63.0205 44.9075C63.5167 47.7468 63.3929 50.6599 62.6575 53.4469C61.9222 56.2338 60.5927 58.8288 58.7603 61.0537C56.928 63.2786 54.636 65.0809 52.0417 66.3369C49.4474 67.5928 46.6122 68.2728 43.7304 68.3302C40.8486 68.3875 37.9885 67.8209 35.3463 66.6691C32.7041 65.5173 30.3423 63.8077 28.4228 61.6574C28.3925 61.6574 28.3645 61.6664 28.334 61.6664H16.5007C17.694 64.0809 19.2076 66.3234 21.0007 68.3331H20.0007C18.2331 68.335 16.5385 69.038 15.2887 70.2878C14.0389 71.5376 13.3359 73.2322 13.334 74.9998V76.6664C13.334 77.1085 13.5096 77.5324 13.8221 77.8449C14.1347 78.1575 14.5586 78.3331 15.0007 78.3331H71.6673C72.1093 78.3331 72.5333 78.1575 72.8458 77.8449C73.1584 77.5324 73.334 77.1085 73.334 76.6664V74.9998C73.3321 73.2322 72.6291 71.5376 71.3793 70.2878C70.1294 69.038 68.4348 68.335 66.6673 68.3331Z" fill="#151516"/>
<path d="M33.3337 53.3331V51.6664C33.3337 51.2244 33.1581 50.8005 32.8455 50.4879C32.5329 50.1753 32.109 49.9998 31.667 49.9998H8.33366C7.89163 49.9998 7.46771 50.1753 7.15515 50.4879C6.84259 50.8005 6.66699 51.2244 6.66699 51.6664V53.3331C6.66845 54.6587 7.1957 55.9297 8.13307 56.867C9.07043 57.8044 10.3414 58.3316 11.667 58.3331H28.3337C29.6593 58.3316 30.9302 57.8044 31.8676 56.867C32.805 55.9297 33.3322 54.6587 33.3337 53.3331Z" fill="black"/>
<path d="M33.3337 53.3331V51.6664C33.3337 51.2244 33.1581 50.8005 32.8455 50.4879C32.5329 50.1753 32.109 49.9998 31.667 49.9998H8.33366C7.89163 49.9998 7.46771 50.1753 7.15515 50.4879C6.84259 50.8005 6.66699 51.2244 6.66699 51.6664V53.3331C6.66845 54.6587 7.1957 55.9297 8.13307 56.867C9.07043 57.8044 10.3414 58.3316 11.667 58.3331H28.3337C29.6593 58.3316 30.9302 57.8044 31.8676 56.867C32.805 55.9297 33.3322 54.6587 33.3337 53.3331Z" fill="#151516"/>
<path d="M30.2025 42.7122C30.5151 43.0247 30.939 43.2003 31.381 43.2003C31.823 43.2003 32.2469 43.0247 32.5595 42.7122L33.7385 41.5333L26.667 34.4635L25.489 35.6415C25.1764 35.9541 25.0009 36.378 25.0009 36.82C25.0009 37.262 25.1764 37.6859 25.489 37.9985L30.2025 42.7122Z" fill="#407BFF"/>
</svg>
