<svg width="80" height="80" viewBox="0 0 80 80" fill="none" xmlns="http://www.w3.org/2000/svg">
<path d="M43.9172 6C33.0717 6 23.4727 11.3825 17.6625 19.5964C18.865 20.3763 20.0371 21.4458 21.1707 22.8206C25.5053 16.3773 32.5139 11.8566 40.623 10.8848L43.9167 16.4259L47.2105 10.8847C59.6754 12.3781 69.5834 22.2276 71.0864 34.6195L65.5117 37.8945L71.0865 41.1695C70.0818 49.4544 65.3091 56.5871 58.5381 60.862C58.9694 61.8395 59.2124 62.8389 59.2553 63.8693C59.2869 64.6223 59.2088 65.3337 59.0518 66.0092C69.1305 60.6253 76 50.0442 76 37.895C76 20.3076 61.6081 6 43.9172 6ZM52.1044 58.528C44.7085 52.6189 42.6404 55.5236 39.2846 58.8593C36.9418 61.1892 31.0131 56.3238 25.8939 51.2344C20.7744 46.1442 15.8813 40.2512 18.2239 37.9217C21.5799 34.5859 24.5008 32.5287 18.5553 25.1781C12.6118 17.8249 8.64966 23.4702 5.39896 26.7021C1.64602 30.4318 5.20119 44.3308 19.0188 58.0697C32.8384 71.8067 46.8191 75.3387 50.5698 71.6104C53.8201 68.3784 59.5004 64.4399 52.1044 58.528ZM29.5795 42.8865C29.5795 36.3508 37.276 35.1865 37.276 32.6361C37.276 31.3986 36.2795 30.879 35.3579 30.879C33.6641 30.879 32.7186 32.7601 32.7186 32.7601L29.4808 30.6063C29.4808 30.6063 31.1247 26.7935 35.7568 26.7935C38.6705 26.7935 41.8333 28.4525 41.8333 32.2157C41.8333 37.737 34.6606 38.802 34.5359 41.0798H42.1077V44.7934H29.7792C29.6544 44.1003 29.5795 43.4817 29.5795 42.8865ZM43.9284 37.8859L50.803 27.0901H56.1325V36.9201H58.2491V40.5096H56.1325V44.7936H51.8233V40.5096H43.9285V37.8859H43.9284ZM51.8232 36.92V32.9585C51.8232 31.9926 51.9728 30.9772 51.9728 30.9772H51.923C51.923 30.9772 51.5499 32.067 51.0512 32.8098L48.3621 36.8706V36.9202L51.8232 36.92Z" fill="black"/>
<path d="M43.9172 6C33.0717 6 23.4727 11.3825 17.6625 19.5964C18.865 20.3763 20.0371 21.4458 21.1707 22.8206C25.5053 16.3773 32.5139 11.8566 40.623 10.8848L43.9167 16.4259L47.2105 10.8847C59.6754 12.3781 69.5834 22.2276 71.0864 34.6195L65.5117 37.8945L71.0865 41.1695C70.0818 49.4544 65.3091 56.5871 58.5381 60.862C58.9694 61.8395 59.2124 62.8389 59.2553 63.8693C59.2869 64.6223 59.2088 65.3337 59.0518 66.0092C69.1305 60.6253 76 50.0442 76 37.895C76 20.3076 61.6081 6 43.9172 6ZM52.1044 58.528C44.7085 52.6189 42.6404 55.5236 39.2846 58.8593C36.9418 61.1892 31.0131 56.3238 25.8939 51.2344C20.7744 46.1442 15.8813 40.2512 18.2239 37.9217C21.5799 34.5859 24.5008 32.5287 18.5553 25.1781C12.6118 17.8249 8.64966 23.4702 5.39896 26.7021C1.64602 30.4318 5.20119 44.3308 19.0188 58.0697C32.8384 71.8067 46.8191 75.3387 50.5698 71.6104C53.8201 68.3784 59.5004 64.4399 52.1044 58.528ZM29.5795 42.8865C29.5795 36.3508 37.276 35.1865 37.276 32.6361C37.276 31.3986 36.2795 30.879 35.3579 30.879C33.6641 30.879 32.7186 32.7601 32.7186 32.7601L29.4808 30.6063C29.4808 30.6063 31.1247 26.7935 35.7568 26.7935C38.6705 26.7935 41.8333 28.4525 41.8333 32.2157C41.8333 37.737 34.6606 38.802 34.5359 41.0798H42.1077V44.7934H29.7792C29.6544 44.1003 29.5795 43.4817 29.5795 42.8865ZM43.9284 37.8859L50.803 27.0901H56.1325V36.9201H58.2491V40.5096H56.1325V44.7936H51.8233V40.5096H43.9285V37.8859H43.9284ZM51.8232 36.92V32.9585C51.8232 31.9926 51.9728 30.9772 51.9728 30.9772H51.923C51.923 30.9772 51.5499 32.067 51.0512 32.8098L48.3621 36.8706V36.9202L51.8232 36.92Z" fill="#151516"/>
<rect x="27" y="23" width="33" height="26" fill="white"/>
<path d="M40.4727 48.481H36.6406V36.0122H36.4766C35.4219 36.7036 34.0156 37.606 32.8672 38.4028V34.9927C34.0977 34.1255 35.4336 33.27 36.6875 32.4849H40.4727V48.481ZM46.6719 37.4888H43.0508V37.2661C43.0508 34.4302 45.418 32.2036 48.9219 32.2036C52.3086 32.2036 54.5586 34.0669 54.5586 36.7388C54.5586 38.5552 53.7031 39.7856 51.6992 41.8599L48.5234 45.2817V45.4106H54.8398V48.481H43.3086V46.0903L49.0039 40.1724C50.1289 39.0239 50.75 38.1685 50.75 37.1255C50.75 35.9771 49.9062 35.2153 48.7344 35.2153C47.5039 35.2153 46.6719 36.1294 46.6719 37.2427V37.4888Z" fill="#407BFF"/>
</svg>
