<svg width="248" height="159" viewBox="0 0 248 159" fill="none" xmlns="http://www.w3.org/2000/svg">
<path d="M417.429 28.7589C401.461 47.0874 384.213 27.2899 368.241 45.6217C352.27 63.9535 369.518 83.751 353.55 102.079C337.582 120.408 320.331 100.614 304.359 118.946C288.388 137.277 305.639 157.072 289.668 175.403C273.697 193.735 256.448 173.938 240.48 192.266C224.512 210.595 241.757 230.395 225.786 248.727C209.814 267.059 192.566 247.262 176.595 265.593C160.624 283.925 177.872 303.723 161.901 322.054" stroke="white" stroke-opacity="0.08" stroke-width="2" stroke-miterlimit="10"/>
<path d="M365.709 -30.6051C349.741 -12.2766 332.493 -32.0741 316.522 -13.7423C300.55 4.58951 317.798 24.387 301.83 42.7155C285.862 61.044 268.611 41.2498 252.639 59.5816C236.668 77.9134 253.919 97.7076 237.948 116.039C221.977 134.371 204.729 114.574 188.76 132.902C172.792 151.231 190.037 171.031 174.066 189.363C158.095 207.695 140.846 187.898 124.875 206.229C108.904 224.561 126.152 244.359 110.181 262.69" stroke="white" stroke-opacity="0.08" stroke-width="2" stroke-miterlimit="10"/>
<path d="M469.149 88.1212C453.181 106.45 435.933 86.6522 419.961 104.984C403.99 123.316 421.238 143.113 405.27 161.442C389.301 179.77 372.05 159.976 356.079 178.308C340.108 196.64 357.359 216.434 341.388 234.766C325.416 253.097 308.168 233.3 292.2 251.629C276.231 269.957 293.477 289.758 277.506 308.09C261.534 326.421 244.286 306.624 228.315 324.956C212.344 343.288 229.592 363.085 213.62 381.417" stroke="white" stroke-opacity="0.08" stroke-width="2" stroke-miterlimit="10"/>
<path d="M339.851 -60.2865C323.883 -41.958 306.635 -61.7555 290.664 -43.4237C274.692 -25.0919 291.941 -5.29444 275.972 13.0341C260.004 31.3626 242.753 11.5684 226.782 29.9002C210.81 48.232 228.061 68.0262 212.09 86.358C196.119 104.69 178.871 84.8923 162.902 103.221C146.934 121.549 164.179 141.35 148.208 159.682C132.237 178.014 114.988 158.216 99.0172 176.548C83.046 194.88 100.294 214.677 84.3229 233.009" stroke="white" stroke-opacity="0.08" stroke-width="2" stroke-miterlimit="10"/>
<path d="M443.289 58.4393C427.321 76.7678 410.073 56.9703 394.101 75.3021C378.13 93.6339 395.378 113.431 379.41 131.76C363.441 150.088 346.19 130.294 330.219 148.626C314.248 166.958 331.499 186.752 315.528 205.084C299.556 223.416 282.308 203.618 266.34 221.947C250.371 240.275 267.617 260.076 251.646 278.408C235.674 296.739 218.426 276.942 202.455 295.274C186.484 313.606 203.732 333.403 187.761 351.735" stroke="white" stroke-opacity="0.08" stroke-width="2" stroke-miterlimit="10"/>
<path d="M520.867 147.485C504.898 165.813 487.65 146.016 471.679 164.348C455.708 182.679 472.956 202.477 456.988 220.805C441.019 239.134 423.768 219.34 407.797 237.671C391.826 256.003 409.077 275.797 393.105 294.129C377.134 312.461 359.886 292.664 343.918 310.992C327.949 329.321 345.195 349.121 329.223 367.453C313.252 385.785 296.004 365.987 280.033 384.319C264.061 402.651 281.31 422.449 265.338 440.78" stroke="white" stroke-opacity="0.08" stroke-width="2" stroke-miterlimit="10"/>
<path d="M391.569 -0.923007C375.601 17.4055 358.353 -2.39196 342.382 15.9398C326.41 34.2716 343.658 54.0691 327.69 72.3976C311.722 90.7261 294.471 70.9319 278.499 89.2637C262.528 107.596 279.779 127.39 263.808 145.721C247.837 164.053 230.589 144.256 214.62 162.584C198.652 180.913 215.897 200.714 199.926 219.045C183.955 237.377 166.706 217.58 150.735 235.912C134.764 254.243 152.012 274.041 136.041 292.373" stroke="white" stroke-opacity="0.08" stroke-width="2" stroke-miterlimit="10"/>
<path d="M495.007 117.803C479.039 136.131 461.79 116.334 445.819 134.665C429.848 152.997 447.096 172.795 431.128 191.123C415.159 209.452 397.908 189.658 381.937 207.989C365.966 226.321 383.217 246.115 367.246 264.447C351.274 282.779 334.026 262.981 318.058 281.31C302.089 299.638 319.335 319.439 303.363 337.771C287.392 356.103 270.144 336.305 254.173 354.637C238.201 372.969 255.45 392.766 239.478 411.098" stroke="white" stroke-opacity="0.08" stroke-width="2" stroke-miterlimit="10"/>
<path d="M426.04 38.6424C410.072 56.9709 392.823 37.1735 376.852 55.5053C360.881 73.8371 378.129 93.6345 362.161 111.963C346.192 130.292 328.941 110.497 312.97 128.829C296.999 147.161 314.25 166.955 298.279 185.287C282.307 203.619 265.059 183.821 249.091 202.15C233.122 220.478 250.368 240.279 234.397 258.611C218.425 276.943 201.177 257.145 185.206 275.477C169.235 293.809 186.483 313.606 170.511 331.938" stroke="white" stroke-opacity="0.08" stroke-width="2" stroke-miterlimit="10"/>
<path d="M374.322 -20.7209C358.354 -2.39236 341.106 -22.1898 325.134 -3.85802C309.163 14.4738 326.411 34.2712 310.443 52.5997C294.475 70.9282 277.223 51.1341 261.252 69.4659C245.281 87.7977 262.532 107.592 246.561 125.924C230.59 144.255 213.341 124.458 197.373 142.786C181.405 161.115 198.65 180.916 182.679 199.248C166.707 217.579 149.459 197.782 133.488 216.114C117.517 234.445 134.765 254.243 118.794 272.575" stroke="white" stroke-opacity="0.08" stroke-width="2" stroke-miterlimit="10"/>
<path d="M477.76 98.0047C461.791 116.333 444.543 96.5358 428.572 114.868C412.601 133.199 429.849 152.997 413.881 171.325C397.912 189.654 380.661 169.86 364.69 188.191C348.719 206.523 365.97 226.317 349.998 244.649C334.027 262.981 316.779 243.184 300.811 261.512C284.842 279.841 302.087 299.641 286.116 317.973C270.145 336.305 252.897 316.507 236.926 334.839C220.954 353.171 238.202 372.969 222.231 391.3" stroke="white" stroke-opacity="0.08" stroke-width="2" stroke-miterlimit="10"/>
<path d="M348.462 -50.403C332.494 -32.0745 315.246 -51.8719 299.274 -33.5401C283.303 -15.2083 300.551 4.58911 284.583 22.9176C268.615 41.2461 251.364 21.452 235.392 39.7838C219.421 58.1156 236.672 77.9097 220.701 96.2415C204.73 114.573 187.481 94.7759 171.513 113.104C155.545 131.433 172.79 151.234 156.819 169.565C140.847 187.897 123.599 168.1 107.628 186.432C91.6568 204.763 108.905 224.561 92.9337 242.893" stroke="white" stroke-opacity="0.08" stroke-width="2" stroke-miterlimit="10"/>
<path d="M451.9 68.3243C435.932 86.6528 418.683 66.8553 402.712 85.1872C386.741 103.519 403.989 123.316 388.021 141.645C372.052 159.973 354.801 140.179 338.83 158.511C322.859 176.843 340.11 196.637 324.139 214.969C308.167 233.301 290.919 213.503 274.951 231.832C258.982 250.16 276.228 269.961 260.256 288.293C244.285 306.625 227.037 286.827 211.066 305.159C195.094 323.491 212.343 343.288 196.371 361.62" stroke="white" stroke-opacity="0.08" stroke-width="2" stroke-miterlimit="10"/>
<path d="M400.18 8.96103C384.212 27.2895 366.964 7.49207 350.992 25.8239C335.021 44.1557 352.269 63.9531 336.301 82.2816C320.333 100.61 303.081 80.816 287.11 99.1478C271.139 117.48 288.39 137.274 272.419 155.606C256.448 173.937 239.199 154.14 223.231 172.468C207.263 190.797 224.508 210.598 208.537 228.929C192.565 247.261 175.317 227.464 159.346 245.796C143.375 264.127 160.623 283.925 144.652 302.257" stroke="white" stroke-opacity="0.08" stroke-width="2" stroke-miterlimit="10"/>
<path d="M503.62 127.686C487.651 146.015 470.403 126.217 454.432 144.549C438.461 162.881 455.709 182.678 439.74 201.007C423.772 219.335 406.521 199.541 390.55 217.873C374.578 236.205 391.829 255.999 375.858 274.331C359.887 292.662 342.639 272.865 326.67 291.193C310.702 309.522 327.947 329.323 311.976 347.655C296.005 365.986 278.757 346.189 262.785 364.521C246.814 382.852 264.062 402.65 248.091 420.982" stroke="white" stroke-opacity="0.08" stroke-width="2" stroke-miterlimit="10"/>
<path d="M322.602 -80.0844C306.634 -61.7559 289.386 -81.5533 273.415 -63.2215C257.443 -44.8897 274.692 -25.0923 258.723 -6.76379C242.755 11.5647 225.504 -8.22944 209.532 10.1024C193.561 28.4342 210.812 48.2283 194.841 66.5601C178.87 84.8919 161.622 65.0945 145.653 83.423C129.685 101.751 146.93 121.552 130.959 139.884C114.988 158.216 97.7395 138.418 81.7682 156.75C65.7969 175.082 83.0451 194.879 67.0739 213.211" stroke="white" stroke-opacity="0.08" stroke-width="2" stroke-miterlimit="10"/>
<path d="M426.04 38.6424C410.072 56.9709 392.823 37.1735 376.852 55.5053C360.881 73.8371 378.129 93.6345 362.161 111.963C346.192 130.292 328.941 110.497 312.97 128.829C296.999 147.161 314.25 166.955 298.279 185.287C282.307 203.619 265.059 183.821 249.091 202.15C233.122 220.478 250.368 240.279 234.397 258.611C218.425 276.943 201.177 257.145 185.206 275.477C169.235 293.809 186.483 313.606 170.511 331.938" stroke="white" stroke-opacity="0.08" stroke-width="2" stroke-miterlimit="10"/>
<path d="M374.322 -20.7209C358.354 -2.39236 341.106 -22.1898 325.134 -3.85802C309.163 14.4738 326.411 34.2712 310.443 52.5997C294.475 70.9282 277.223 51.1341 261.252 69.4659C245.281 87.7977 262.532 107.592 246.561 125.924C230.59 144.255 213.341 124.458 197.373 142.786C181.405 161.115 198.65 180.916 182.679 199.248C166.707 217.579 149.459 197.782 133.488 216.114C117.517 234.445 134.765 254.243 118.794 272.575" stroke="white" stroke-opacity="0.08" stroke-width="2" stroke-miterlimit="10"/>
<path d="M477.76 98.0047C461.791 116.333 444.543 96.5358 428.572 114.868C412.601 133.199 429.849 152.997 413.881 171.325C397.912 189.654 380.661 169.86 364.69 188.191C348.719 206.523 365.97 226.317 349.998 244.649C334.027 262.981 316.779 243.184 300.811 261.512C284.842 279.841 302.087 299.641 286.116 317.973C270.145 336.305 252.897 316.507 236.926 334.839C220.954 353.171 238.202 372.969 222.231 391.3" stroke="white" stroke-opacity="0.08" stroke-width="2" stroke-miterlimit="10"/>
<path d="M348.462 -50.403C332.494 -32.0745 315.246 -51.8719 299.274 -33.5401C283.303 -15.2083 300.551 4.58911 284.583 22.9176C268.615 41.2461 251.364 21.452 235.392 39.7838C219.421 58.1156 236.672 77.9097 220.701 96.2415C204.73 114.573 187.481 94.7759 171.513 113.104C155.545 131.433 172.79 151.234 156.819 169.565C140.847 187.897 123.599 168.1 107.628 186.432C91.6568 204.763 108.905 224.561 92.9337 242.893" stroke="white" stroke-opacity="0.08" stroke-width="2" stroke-miterlimit="10"/>
<path d="M451.9 68.3243C435.932 86.6528 418.683 66.8553 402.712 85.1872C386.741 103.519 403.989 123.316 388.021 141.645C372.052 159.973 354.801 140.179 338.83 158.511C322.859 176.843 340.11 196.637 324.139 214.969C308.167 233.301 290.919 213.503 274.951 231.832C258.982 250.16 276.228 269.961 260.256 288.293C244.285 306.625 227.037 286.827 211.066 305.159C195.094 323.491 212.343 343.288 196.371 361.62" stroke="white" stroke-opacity="0.08" stroke-width="2" stroke-miterlimit="10"/>
<path d="M400.18 8.96103C384.212 27.2895 366.964 7.49207 350.992 25.8239C335.021 44.1557 352.269 63.9531 336.301 82.2816C320.333 100.61 303.081 80.816 287.11 99.1478C271.139 117.48 288.39 137.274 272.419 155.606C256.448 173.937 239.199 154.14 223.231 172.468C207.263 190.797 224.508 210.598 208.537 228.929C192.565 247.261 175.317 227.464 159.346 245.796C143.375 264.127 160.623 283.925 144.652 302.257" stroke="white" stroke-opacity="0.08" stroke-width="2" stroke-miterlimit="10"/>
<path d="M503.62 127.686C487.651 146.015 470.403 126.217 454.432 144.549C438.461 162.881 455.709 182.678 439.74 201.007C423.772 219.335 406.521 199.541 390.55 217.873C374.578 236.205 391.829 255.999 375.858 274.331C359.887 292.662 342.639 272.865 326.67 291.193C310.702 309.522 327.947 329.323 311.976 347.655C296.005 365.986 278.757 346.189 262.785 364.521C246.814 382.852 264.062 402.65 248.091 420.982" stroke="white" stroke-opacity="0.08" stroke-width="2" stroke-miterlimit="10"/>
<path d="M331.213 -70.2004C315.245 -51.8719 297.997 -71.6693 282.025 -53.3375C266.054 -35.0057 283.302 -15.2083 267.334 3.12024C251.366 21.4487 234.115 1.65459 218.143 19.9864C202.172 38.3182 219.423 58.1123 203.452 76.4441C187.481 94.7759 170.232 74.9785 154.264 93.307C138.296 111.635 155.541 131.436 139.57 149.768C123.598 168.1 106.35 148.302 90.379 166.634C74.4078 184.966 91.656 204.763 75.6847 223.095" stroke="white" stroke-opacity="0.08" stroke-width="2" stroke-miterlimit="10"/>
<path d="M434.651 48.526C418.683 66.8545 401.434 47.057 385.463 65.3888C369.492 83.7206 386.74 103.518 370.772 121.847C354.803 140.175 337.552 120.381 321.581 138.713C305.61 157.045 322.861 176.839 306.889 195.17C290.918 213.502 273.67 193.705 257.702 212.033C241.733 230.362 258.979 250.163 243.007 268.494C227.036 286.826 209.788 267.029 193.817 285.361C177.845 303.692 195.094 323.49 179.122 341.822" stroke="white" stroke-opacity="0.08" stroke-width="2" stroke-miterlimit="10"/>
<path d="M382.933 -10.8376C366.965 7.49094 349.716 -12.3065 333.745 6.02529C317.774 24.3571 335.022 44.1545 319.054 62.483C303.085 80.8115 285.834 61.0174 269.863 79.3492C253.892 97.681 271.143 117.475 255.172 135.807C239.2 154.139 221.952 134.341 205.984 152.67C190.015 170.998 207.261 190.799 191.289 209.131C175.318 227.463 158.07 207.665 142.099 225.997C126.128 244.329 143.376 264.126 127.404 282.458" stroke="white" stroke-opacity="0.08" stroke-width="2" stroke-miterlimit="10"/>
<path d="M486.371 107.89C470.402 126.218 453.154 106.421 437.183 124.753C421.212 143.085 438.46 162.882 422.491 181.211C406.523 199.539 389.272 179.745 373.301 198.077C357.329 216.409 374.58 236.203 358.609 254.534C342.638 272.866 325.39 253.069 309.421 271.397C293.453 289.726 310.698 309.527 294.727 327.858C278.756 346.19 261.508 326.393 245.536 344.725C229.565 363.056 246.813 382.854 230.842 401.186" stroke="white" stroke-opacity="0.08" stroke-width="2" stroke-miterlimit="10"/>
<path d="M357.073 -40.519C341.105 -22.1905 323.857 -41.9879 307.885 -23.6561C291.914 -5.32431 309.162 14.4731 293.194 32.8016C277.225 51.1301 259.974 31.336 244.003 49.6678C228.032 67.9996 245.283 87.7937 229.312 106.126C213.34 124.457 196.092 104.66 180.124 122.988C164.156 141.317 181.401 161.118 165.43 179.449C149.458 197.781 132.21 177.984 116.239 196.316C100.268 214.647 117.516 234.445 101.545 252.777" stroke="white" stroke-opacity="0.08" stroke-width="2" stroke-miterlimit="10"/>
<path d="M460.511 78.2079C444.542 96.5363 427.294 76.7389 411.323 95.0707C395.352 113.402 412.6 133.2 396.631 151.528C380.663 169.857 363.412 150.063 347.441 168.395C331.47 186.726 348.721 206.521 332.749 224.852C316.778 243.184 299.53 223.387 283.562 241.715C267.593 260.044 284.838 279.844 268.867 298.176C252.896 316.508 235.648 296.711 219.677 315.042C203.705 333.374 220.953 353.172 204.982 371.503" stroke="white" stroke-opacity="0.08" stroke-width="2" stroke-miterlimit="10"/>
<path d="M408.793 18.8446C392.824 37.1731 375.576 17.3756 359.605 35.7074C343.634 54.0392 360.882 73.8367 344.914 92.1652C328.945 110.494 311.694 90.6995 295.723 109.031C279.752 127.363 297.003 147.157 281.031 165.489C265.06 183.821 247.812 164.023 231.844 182.352C215.875 200.68 233.121 220.481 217.149 238.813C201.178 257.145 183.93 237.347 167.959 255.679C151.987 274.011 169.236 293.808 153.264 312.14" stroke="white" stroke-opacity="0.08" stroke-width="2" stroke-miterlimit="10"/>
<path d="M512.23 137.57C496.262 155.899 479.014 136.101 463.043 154.433C447.071 172.765 464.32 192.562 448.351 210.891C432.383 229.219 415.132 209.425 399.161 227.757C383.189 246.089 400.44 265.883 384.469 284.215C368.498 302.546 351.25 282.749 335.281 301.077C319.313 319.406 336.558 339.207 320.587 357.539C304.616 375.87 287.368 356.073 271.396 374.405C255.425 392.737 272.673 412.534 256.702 430.866" stroke="white" stroke-opacity="0.08" stroke-width="2" stroke-miterlimit="10"/>
<path d="M313.992 -89.9684C298.023 -71.6399 280.775 -91.4374 264.804 -73.1056C248.833 -54.7738 266.081 -34.9763 250.112 -16.6478C234.144 1.68067 216.893 -18.1135 200.922 0.218327C184.95 18.5501 202.201 38.3443 186.23 56.6761C170.259 75.0079 153.011 55.2104 137.042 73.5389C121.074 91.8674 138.319 111.668 122.348 130C106.377 148.332 89.1286 128.534 73.1574 146.866C57.1861 165.198 74.4343 184.995 58.463 203.327" stroke="white" stroke-opacity="0.08" stroke-width="2" stroke-miterlimit="10"/>
<path d="M322.602 -80.0844C306.634 -61.7559 289.386 -81.5533 273.415 -63.2215C257.443 -44.8897 274.692 -25.0923 258.723 -6.76379C242.755 11.5647 225.504 -8.22944 209.532 10.1024C193.561 28.4342 210.812 48.2283 194.841 66.5601C178.87 84.8919 161.622 65.0945 145.653 83.423C129.685 101.751 146.93 121.552 130.959 139.884C114.988 158.216 97.7395 138.418 81.7682 156.75C65.7969 175.082 83.0451 194.879 67.0739 213.211" stroke="white" stroke-opacity="0.08" stroke-width="2" stroke-miterlimit="10"/>
</svg>
