<svg width="80" height="80" viewBox="0 0 80 80" fill="none" xmlns="http://www.w3.org/2000/svg">
<path d="M5.02493 22.9943L5.09016 23.0437C5.9404 23.6663 6.96804 24.0542 8.08137 24.1146L8.38711 24.1229H67.0969L67.2959 24.1288C69.008 24.2295 70.379 25.6222 70.4781 27.3615L70.484 27.5637L70.4828 39.0329H64.8389C60.5649 39.0329 57.0834 42.4793 56.9402 46.7854L56.9355 47.0613C56.9355 51.4031 60.3281 54.9398 64.567 55.0852L64.8387 55.09H70.4826L70.4838 66.5592L70.4779 66.7614C70.3788 68.5007 69.0079 69.8934 67.2957 69.9941L67.0967 70H8.65507L8.45683 69.9943C6.75129 69.8942 5.38286 68.5119 5.27478 66.78L5.26796 66.5786L5.02493 22.9943ZM72.742 41.3269C73.9891 41.3269 75 42.3539 75 43.6207V50.5024C75 51.7692 73.9891 52.7962 72.742 52.7962H64.8387C61.7209 52.7962 59.1936 50.2288 59.1936 47.0615C59.1936 43.8943 61.7209 41.3269 64.8387 41.3269H72.742ZM64.8387 44.7677C63.5916 44.7677 62.5807 45.7947 62.5807 47.0615C62.5807 48.3284 63.5916 49.3554 64.8387 49.3554C66.0858 49.3554 67.0967 48.3284 67.0967 47.0615C67.0967 45.7947 66.0858 44.7677 64.8387 44.7677ZM29.6784 14.9473L22.903 21.8289L8.38711 21.8291L8.18809 21.8231C6.41011 21.7187 5 20.2207 5 18.3883C5 16.5558 6.41011 15.058 8.18809 14.9534L8.38711 14.9475L29.6784 14.9473ZM59.1936 14.9475L59.3926 14.9534C61.1047 15.0541 62.4757 16.4468 62.5748 18.1861L62.5807 18.3883V21.8291L52.5796 21.8289L45.8054 14.9473L59.1936 14.9475ZM37.742 10L49.3857 21.8283H26.0983L37.742 10Z" fill="black"/>
<path d="M5.02493 22.9943L5.09016 23.0437C5.9404 23.6663 6.96804 24.0542 8.08137 24.1146L8.38711 24.1229H67.0969L67.2959 24.1288C69.008 24.2295 70.379 25.6222 70.4781 27.3615L70.484 27.5637L70.4828 39.0329H64.8389C60.5649 39.0329 57.0834 42.4793 56.9402 46.7854L56.9355 47.0613C56.9355 51.4031 60.3281 54.9398 64.567 55.0852L64.8387 55.09H70.4826L70.4838 66.5592L70.4779 66.7614C70.3788 68.5007 69.0079 69.8934 67.2957 69.9941L67.0967 70H8.65507L8.45683 69.9943C6.75129 69.8942 5.38286 68.5119 5.27478 66.78L5.26796 66.5786L5.02493 22.9943ZM72.742 41.3269C73.9891 41.3269 75 42.3539 75 43.6207V50.5024C75 51.7692 73.9891 52.7962 72.742 52.7962H64.8387C61.7209 52.7962 59.1936 50.2288 59.1936 47.0615C59.1936 43.8943 61.7209 41.3269 64.8387 41.3269H72.742ZM64.8387 44.7677C63.5916 44.7677 62.5807 45.7947 62.5807 47.0615C62.5807 48.3284 63.5916 49.3554 64.8387 49.3554C66.0858 49.3554 67.0967 48.3284 67.0967 47.0615C67.0967 45.7947 66.0858 44.7677 64.8387 44.7677ZM29.6784 14.9473L22.903 21.8289L8.38711 21.8291L8.18809 21.8231C6.41011 21.7187 5 20.2207 5 18.3883C5 16.5558 6.41011 15.058 8.18809 14.9534L8.38711 14.9475L29.6784 14.9473ZM59.1936 14.9475L59.3926 14.9534C61.1047 15.0541 62.4757 16.4468 62.5748 18.1861L62.5807 18.3883V21.8291L52.5796 21.8289L45.8054 14.9473L59.1936 14.9475ZM37.742 10L49.3857 21.8283H26.0983L37.742 10Z" fill="#151516"/>
<path d="M37.766 9L50 22H25L37.766 9Z" fill="#407BFF"/>
</svg>
