<svg width="100" height="165" viewBox="0 0 100 165" fill="none" xmlns="http://www.w3.org/2000/svg">
<mask id="mask0_304_1081" style="mask-type:luminance" maskUnits="userSpaceOnUse" x="-49" y="16" width="133" height="133">
<path d="M-2.18317 19.5848C-36.876 30.401 -56.2318 67.2934 -45.4156 101.986C-34.5993 136.679 2.29308 156.035 36.9859 145.219C71.6788 134.402 91.0346 97.51 80.2183 62.8172C69.4021 28.1243 32.5097 8.76851 -2.18317 19.5848Z" fill="white"/>
</mask>
<g mask="url(#mask0_304_1081)">
<path d="M36.8532 144.382C71.256 133.657 90.4501 97.0729 79.7245 62.6701C68.9989 28.2673 32.4151 9.07317 -1.98771 19.7988C-36.3905 30.5244 -55.5846 67.1082 -44.859 101.511C-34.1334 135.914 2.4504 155.108 36.8532 144.382Z" fill="#407BFF"/>
<path d="M-41.4522 114.7C-33.6012 112.252 -30.9572 120.733 -23.1048 118.285C-15.2523 115.837 -17.8963 107.356 -10.0451 104.908C-2.19394 102.461 0.451352 110.941 8.30383 108.492C16.1563 106.044 13.511 97.5646 21.3635 95.1163C29.216 92.6683 31.8597 101.149 39.7109 98.7009C47.5619 96.2532 44.9194 87.7725 52.7721 85.3242C60.6245 82.8762 63.2683 91.3565 71.1208 88.9083C78.9733 86.4602 76.3295 77.9798 84.182 75.5317" stroke="white" stroke-opacity="0.08" stroke-width="2" stroke-miterlimit="10"/>
<path d="M-33.5234 140.128C-25.6724 137.681 -23.0285 146.161 -15.176 143.713C-7.32351 141.265 -9.96749 132.784 -2.11633 130.337C5.73483 127.889 8.37994 136.369 16.2326 133.921C24.0851 131.473 21.4398 122.993 29.2923 120.545C37.1447 118.096 39.7885 126.577 47.6397 124.129C55.4907 121.681 52.8482 113.201 60.7008 110.753C68.5533 108.304 71.1971 116.785 79.0496 114.337C86.9021 111.888 84.2583 103.408 92.1107 100.96" stroke="white" stroke-opacity="0.08" stroke-width="2" stroke-miterlimit="10"/>
<path d="M-49.3788 89.272C-41.5278 86.8243 -38.8838 95.3045 -31.0314 92.8564C-23.1789 90.4083 -25.8229 81.9279 -17.9717 79.4802C-10.1205 77.0325 -7.47544 85.5123 0.377217 83.0643C8.22969 80.6162 5.5844 72.1362 13.4369 69.6881C21.2894 67.24 23.9331 75.7202 31.7843 73.2725C39.6353 70.8248 36.9928 62.3441 44.8455 59.896C52.6979 57.4479 55.3417 65.9281 63.1942 63.48C71.0467 61.032 68.4029 52.5516 76.2553 50.1035" stroke="white" stroke-opacity="0.08" stroke-width="2" stroke-miterlimit="10"/>
<path d="M-61.2711 51.1294C-53.42 48.6817 -50.7761 57.162 -42.9237 54.7138C-35.0712 52.2657 -37.715 43.7853 -29.8638 41.3376C-22.0129 38.8899 -19.3676 47.3699 -11.5151 44.9216C-3.66264 42.4736 -6.30793 33.9938 1.54454 31.5455C9.39702 29.0974 12.041 37.5778 19.892 35.1301C27.7431 32.6824 25.1006 24.2017 32.9531 21.7534C40.8056 19.3053 43.4496 27.7857 51.302 25.3376C59.1545 22.8893 56.5105 14.4091 64.363 11.9609" stroke="white" stroke-opacity="0.08" stroke-width="2" stroke-miterlimit="10"/>
<path d="M-29.5601 152.843C-21.7089 150.395 -19.0651 158.875 -11.2127 156.427C-3.36019 153.979 -6.00398 145.499 1.84699 143.051C9.69815 140.603 12.3434 149.083 20.1959 146.635C28.0484 144.187 25.4031 135.707 33.2556 133.259C41.108 130.811 43.752 139.291 51.603 136.844C59.4542 134.396 56.8117 125.915 64.6642 123.467C72.5166 121.019 75.1606 129.499 83.0131 127.051C90.8656 124.603 88.2216 116.123 96.0741 113.674" stroke="white" stroke-opacity="0.08" stroke-width="2" stroke-miterlimit="10"/>
<path d="M-45.4155 101.986C-37.5643 99.5384 -34.9206 108.019 -27.0681 105.571C-19.2156 103.123 -21.8594 94.6423 -14.0084 92.1946C-6.15726 89.7469 -3.51197 98.2267 4.3405 95.7786C12.193 93.3305 9.5477 84.8505 17.4002 82.4025C25.2526 79.9544 27.8966 88.4346 35.7476 85.9869C43.5988 83.5392 40.9563 75.0584 48.8088 72.6104C56.6612 70.1623 59.3052 78.6425 67.1577 76.1944C75.0102 73.7463 72.3662 65.2659 80.2187 62.8179" stroke="white" stroke-opacity="0.08" stroke-width="2" stroke-miterlimit="10"/>
<path d="M-57.3076 63.8437C-49.4565 61.396 -46.8127 69.8764 -38.9601 67.4282C-31.1077 64.9801 -33.7516 56.4997 -25.9005 54.052C-18.0493 51.6043 -15.404 60.0843 -7.55155 57.636C0.300929 55.188 -2.34436 46.7082 5.50811 44.2599C13.3606 41.8118 16.0044 50.2922 23.8555 47.8445C31.7065 45.3968 29.064 36.916 36.9167 34.4678C44.7692 32.0197 47.413 40.5001 55.2654 38.0518C63.1179 35.6037 60.4741 27.1234 68.3266 24.6753" stroke="white" stroke-opacity="0.08" stroke-width="2" stroke-miterlimit="10"/>
<path d="M-37.4879 127.415C-29.6367 124.967 -26.9929 133.447 -19.1405 130.999C-11.288 128.551 -13.9318 120.071 -6.0808 117.623C1.77036 115.175 4.41565 123.655 12.2681 121.207C20.1206 118.759 17.4753 110.279 25.3278 107.831C33.1803 105.383 35.8242 113.863 43.6752 111.415C51.5264 108.968 48.8839 100.487 56.7364 98.0386C64.5888 95.5905 67.2328 104.071 75.0853 101.623C82.9378 99.1745 80.2938 90.6942 88.1463 88.2461" stroke="white" stroke-opacity="0.08" stroke-width="2" stroke-miterlimit="10"/>
<path d="M-53.3433 76.5576C-45.4922 74.1099 -42.8484 82.5903 -34.9959 80.1422C-27.1434 77.6939 -29.7872 69.2138 -21.9362 66.7661C-14.0851 64.3184 -11.4398 72.7982 -3.58732 70.3501C4.26516 67.9018 1.61986 59.422 9.47234 56.974C17.3248 54.5257 19.9688 63.0061 27.8198 60.5584C35.6709 58.1107 33.0285 49.6299 40.8809 47.1818C48.7334 44.7336 51.3774 53.2139 59.2299 50.7659C67.0823 48.3176 64.4384 39.8374 72.2908 37.3892" stroke="white" stroke-opacity="0.08" stroke-width="2" stroke-miterlimit="10"/>
<path d="M-65.2343 38.4153C-57.3832 35.9676 -54.7393 44.4478 -46.8868 41.9997C-39.0343 39.5516 -41.6783 31.0713 -33.8271 28.6236C-25.976 26.1759 -23.3307 34.6557 -15.4782 32.2076C-7.62573 29.7595 -10.271 21.2795 -2.41854 18.8315C5.43393 16.3833 8.07772 24.8636 15.9289 22.4159C23.7798 19.9682 21.1374 11.4875 28.99 9.03937C36.8425 6.59124 39.4863 15.0715 47.3388 12.6234C55.1912 10.1753 52.5475 1.69496 60.3999 -0.753174" stroke="white" stroke-opacity="0.08" stroke-width="2" stroke-miterlimit="10"/>
<path d="M-42.7719 110.466C-34.9207 108.019 -32.2769 116.499 -24.4245 114.051C-16.5718 111.603 -19.2158 103.122 -11.3646 100.675C-3.51364 98.2269 -0.86835 106.707 6.98412 104.259C14.8366 101.811 12.1913 93.3307 20.0438 90.8825C27.8963 88.4344 30.5402 96.9147 38.3912 94.467C46.2424 92.0193 43.5999 83.5386 51.4524 81.0903C59.3048 78.6423 61.9488 87.1226 69.8013 84.6744C77.6538 82.2263 75.0098 73.7459 82.8624 71.2979" stroke="white" stroke-opacity="0.08" stroke-width="2" stroke-miterlimit="10"/>
<path d="M-34.8441 135.895C-26.993 133.447 -24.3492 141.927 -16.4967 139.479C-8.64403 137.031 -11.288 128.55 -3.43685 126.103C4.41413 123.655 7.05941 132.135 14.9119 129.687C22.7644 127.239 20.1191 118.759 27.9716 116.311C35.8242 113.863 38.468 122.343 46.319 119.895C54.1701 117.448 51.5277 108.967 59.3801 106.519C67.2326 104.07 69.8766 112.551 77.7291 110.103C85.5815 107.655 82.9375 99.1743 90.7902 96.7261" stroke="white" stroke-opacity="0.08" stroke-width="2" stroke-miterlimit="10"/>
<path d="M-50.6996 85.0381C-42.8485 82.5904 -40.2047 91.0707 -32.3522 88.6225C-24.4996 86.1744 -27.1436 77.694 -19.2924 75.2463C-11.4414 72.7988 -8.79613 81.2786 -0.943658 78.8306C6.90882 76.3823 4.26353 67.9025 12.116 65.4544C19.9687 63.0062 22.6125 71.4865 30.4634 69.0388C38.3146 66.5911 35.6721 58.1104 43.5246 55.6623C51.3771 53.214 54.021 61.6944 61.8735 59.2463C69.726 56.7981 67.082 48.3179 74.9347 45.8696" stroke="white" stroke-opacity="0.08" stroke-width="2" stroke-miterlimit="10"/>
<path d="M-62.5906 46.8955C-54.7396 44.4478 -52.0957 52.9281 -44.2432 50.4799C-36.3907 48.0318 -39.0345 39.5514 -31.1835 37.1037C-23.3324 34.656 -20.6871 43.136 -12.8346 40.6878C-4.98214 38.2397 -7.62743 29.7599 0.225043 27.3116C8.07752 24.8635 10.7213 33.3439 18.5725 30.8962C26.4236 28.4485 23.7812 19.9678 31.6336 17.5196C39.4861 15.0715 42.1299 23.5518 49.9824 21.1037C57.8348 18.6555 55.191 10.1752 63.0435 7.72705" stroke="white" stroke-opacity="0.08" stroke-width="2" stroke-miterlimit="10"/>
<path d="M-30.8798 148.609C-23.0288 146.161 -20.3848 154.642 -12.5324 152.193C-4.6799 149.745 -7.32368 141.265 0.527292 138.817C8.37845 136.369 11.0237 144.849 18.8762 142.401C26.7287 139.953 24.0834 131.473 31.9359 129.025C39.7884 126.577 42.4321 135.057 50.2833 132.61C58.1345 130.162 55.492 121.681 63.3445 119.233C71.1969 116.785 73.8407 125.265 81.6932 122.817C89.5457 120.369 86.9019 111.889 94.7544 109.44" stroke="white" stroke-opacity="0.08" stroke-width="2" stroke-miterlimit="10"/>
<path d="M-46.7352 97.752C-38.8842 95.3043 -36.2403 103.785 -28.3878 101.337C-20.5353 98.8885 -23.1791 90.4082 -15.3281 87.9605C-7.47697 85.5128 -4.83168 93.9926 3.02079 91.5445C10.8733 89.0964 8.22797 80.6164 16.0804 78.1683C23.9329 75.7203 26.5767 84.2004 34.4279 81.7527C42.279 79.305 39.6366 70.8243 47.489 68.3762C55.3415 65.9282 57.9853 74.4083 65.8378 71.9603C73.6902 69.5122 71.0465 61.0318 78.8989 58.5837" stroke="white" stroke-opacity="0.08" stroke-width="2" stroke-miterlimit="10"/>
<path d="M-58.6273 59.6096C-50.7762 57.1619 -48.1323 65.6423 -40.2799 63.194C-32.4273 60.7459 -35.0713 52.2656 -27.2201 49.8179C-19.3691 47.3702 -16.7238 55.8502 -8.87137 53.4019C-1.01889 50.9538 -3.66418 42.474 4.18829 40.0258C12.041 37.5777 14.6847 46.0581 22.5357 43.6104C30.3869 41.1627 27.7444 32.6819 35.5969 30.2337C43.4493 27.7856 46.0933 36.2659 53.9458 33.8177C61.7983 31.3696 59.1543 22.8892 67.007 20.4412" stroke="white" stroke-opacity="0.08" stroke-width="2" stroke-miterlimit="10"/>
<path d="M-38.8075 123.18C-30.9566 120.733 -28.3126 129.213 -20.4601 126.765C-12.6076 124.317 -15.2514 115.836 -7.40045 113.389C0.450714 110.941 3.096 119.421 10.9485 116.973C18.8009 114.525 16.1557 106.045 24.0081 103.597C31.8606 101.148 34.5044 109.629 42.3556 107.181C50.2067 104.733 47.5642 96.2527 55.4167 93.8045C63.2692 91.3564 65.913 99.8367 73.7655 97.3885C81.6179 94.9404 78.9741 86.46 86.8266 84.012" stroke="white" stroke-opacity="0.08" stroke-width="2" stroke-miterlimit="10"/>
<path d="M-54.6629 72.3237C-46.8118 69.876 -44.168 78.3564 -36.3155 75.9083C-28.463 73.4601 -31.1068 64.9799 -23.2558 62.5322C-15.4047 60.0845 -12.7594 68.5643 -4.90691 66.1162C2.94556 63.6679 0.300273 55.1881 8.15275 52.7401C16.0052 50.2918 18.649 58.7722 26.5002 56.3245C34.3513 53.8768 31.7089 45.396 39.5613 42.948C47.4138 40.4997 50.0576 48.9801 57.9101 46.532C65.7625 44.0837 63.1188 35.6035 70.9712 33.1553" stroke="white" stroke-opacity="0.08" stroke-width="2" stroke-miterlimit="10"/>
<path d="M-66.555 34.1814C-58.7039 31.7337 -56.0601 40.2139 -48.2076 37.7658C-40.355 35.3178 -42.999 26.8374 -35.1478 24.3897C-27.2968 21.942 -24.6515 30.4218 -16.7991 27.9737C-8.9466 25.5256 -11.5919 17.0457 -3.73942 14.5976C4.11324 12.1494 6.75703 20.6297 14.608 18.1821C22.4592 15.7344 19.8167 7.25362 27.6692 4.80549C35.5216 2.35735 38.1656 10.8377 46.0181 8.38951C53.8706 5.94138 51.2266 -2.53893 59.0792 -4.98706" stroke="white" stroke-opacity="0.08" stroke-width="2" stroke-miterlimit="10"/>
<path d="M-26.9165 161.323C-19.0653 158.875 -16.4215 167.355 -8.56906 164.907C-0.716395 162.459 -3.36037 153.979 4.49079 151.531C12.3418 149.084 14.9871 157.563 22.8395 155.115C30.692 152.667 28.0467 144.187 35.8992 141.739C43.7517 139.291 46.3956 147.771 54.2466 145.324C62.0978 142.876 59.4553 134.395 67.3078 131.947C75.1602 129.499 77.8042 137.979 85.6567 135.531C93.5092 133.083 90.8652 124.603 98.7178 122.155" stroke="white" stroke-opacity="0.08" stroke-width="2" stroke-miterlimit="10"/>
<path d="M-42.7719 110.466C-34.9207 108.019 -32.2769 116.499 -24.4245 114.051C-16.5718 111.603 -19.2158 103.122 -11.3646 100.675C-3.51364 98.2269 -0.86835 106.707 6.98412 104.259C14.8366 101.811 12.1913 93.3307 20.0438 90.8825C27.8963 88.4344 30.5402 96.9147 38.3912 94.467C46.2424 92.0193 43.5999 83.5386 51.4524 81.0903C59.3048 78.6423 61.9488 87.1226 69.8013 84.6744C77.6538 82.2263 75.0098 73.7459 82.8624 71.2979" stroke="white" stroke-opacity="0.08" stroke-width="2" stroke-miterlimit="10"/>
<path d="M-34.8441 135.895C-26.993 133.447 -24.3492 141.927 -16.4967 139.479C-8.64403 137.031 -11.288 128.55 -3.43685 126.103C4.41413 123.655 7.05941 132.135 14.9119 129.687C22.7644 127.239 20.1191 118.759 27.9716 116.311C35.8242 113.863 38.468 122.343 46.319 119.895C54.1701 117.448 51.5277 108.967 59.3801 106.519C67.2326 104.07 69.8766 112.551 77.7291 110.103C85.5815 107.655 82.9375 99.1743 90.7902 96.7261" stroke="white" stroke-opacity="0.08" stroke-width="2" stroke-miterlimit="10"/>
<path d="M-50.6996 85.0381C-42.8485 82.5904 -40.2047 91.0707 -32.3522 88.6225C-24.4996 86.1744 -27.1436 77.694 -19.2924 75.2463C-11.4414 72.7988 -8.79613 81.2786 -0.943658 78.8306C6.90882 76.3823 4.26353 67.9025 12.116 65.4544C19.9687 63.0062 22.6125 71.4865 30.4634 69.0388C38.3146 66.5911 35.6721 58.1104 43.5246 55.6623C51.3771 53.214 54.021 61.6944 61.8735 59.2463C69.726 56.7981 67.082 48.3179 74.9347 45.8696" stroke="white" stroke-opacity="0.08" stroke-width="2" stroke-miterlimit="10"/>
<path d="M-62.5906 46.8955C-54.7396 44.4478 -52.0957 52.9281 -44.2432 50.4799C-36.3907 48.0318 -39.0345 39.5514 -31.1835 37.1037C-23.3324 34.656 -20.6871 43.136 -12.8346 40.6878C-4.98214 38.2397 -7.62743 29.7599 0.225043 27.3116C8.07752 24.8635 10.7213 33.3439 18.5725 30.8962C26.4236 28.4485 23.7812 19.9678 31.6336 17.5196C39.4861 15.0715 42.1299 23.5518 49.9824 21.1037C57.8348 18.6555 55.191 10.1752 63.0435 7.72705" stroke="white" stroke-opacity="0.08" stroke-width="2" stroke-miterlimit="10"/>
<path d="M-30.8798 148.609C-23.0288 146.161 -20.3848 154.642 -12.5324 152.193C-4.6799 149.745 -7.32368 141.265 0.527292 138.817C8.37845 136.369 11.0237 144.849 18.8762 142.401C26.7287 139.953 24.0834 131.473 31.9359 129.025C39.7884 126.577 42.4321 135.057 50.2833 132.61C58.1345 130.162 55.492 121.681 63.3445 119.233C71.1969 116.785 73.8407 125.265 81.6932 122.817C89.5457 120.369 86.9019 111.889 94.7544 109.44" stroke="white" stroke-opacity="0.08" stroke-width="2" stroke-miterlimit="10"/>
<path d="M-46.7352 97.752C-38.8842 95.3043 -36.2403 103.785 -28.3878 101.337C-20.5353 98.8885 -23.1791 90.4082 -15.3281 87.9605C-7.47697 85.5128 -4.83168 93.9926 3.02079 91.5445C10.8733 89.0964 8.22797 80.6164 16.0804 78.1683C23.9329 75.7203 26.5767 84.2004 34.4279 81.7527C42.279 79.305 39.6366 70.8243 47.489 68.3762C55.3415 65.9282 57.9853 74.4083 65.8378 71.9603C73.6902 69.5122 71.0465 61.0318 78.8989 58.5837" stroke="white" stroke-opacity="0.08" stroke-width="2" stroke-miterlimit="10"/>
<path d="M-58.6273 59.6096C-50.7762 57.1619 -48.1323 65.6423 -40.2799 63.194C-32.4273 60.7459 -35.0713 52.2656 -27.2201 49.8179C-19.3691 47.3702 -16.7238 55.8502 -8.87137 53.4019C-1.01889 50.9538 -3.66418 42.474 4.18829 40.0258C12.041 37.5777 14.6847 46.0581 22.5357 43.6104C30.3869 41.1627 27.7444 32.6819 35.5969 30.2337C43.4493 27.7856 46.0933 36.2659 53.9458 33.8177C61.7983 31.3696 59.1543 22.8892 67.007 20.4412" stroke="white" stroke-opacity="0.08" stroke-width="2" stroke-miterlimit="10"/>
<path d="M-38.8075 123.18C-30.9566 120.733 -28.3126 129.213 -20.4601 126.765C-12.6076 124.317 -15.2514 115.836 -7.40045 113.389C0.450714 110.941 3.096 119.421 10.9485 116.973C18.8009 114.525 16.1557 106.045 24.0081 103.597C31.8606 101.148 34.5044 109.629 42.3556 107.181C50.2067 104.733 47.5642 96.2527 55.4167 93.8045C63.2692 91.3564 65.913 99.8367 73.7655 97.3885C81.6179 94.9404 78.9741 86.46 86.8266 84.012" stroke="white" stroke-opacity="0.08" stroke-width="2" stroke-miterlimit="10"/>
<path d="M-54.6629 72.3237C-46.8118 69.876 -44.168 78.3564 -36.3155 75.9083C-28.463 73.4601 -31.1068 64.9799 -23.2558 62.5322C-15.4047 60.0845 -12.7594 68.5643 -4.90691 66.1162C2.94556 63.6679 0.300273 55.1881 8.15275 52.7401C16.0052 50.2918 18.649 58.7722 26.5002 56.3245C34.3513 53.8768 31.7089 45.396 39.5613 42.948C47.4138 40.4997 50.0576 48.9801 57.9101 46.532C65.7625 44.0837 63.1188 35.6035 70.9712 33.1553" stroke="white" stroke-opacity="0.08" stroke-width="2" stroke-miterlimit="10"/>
<path d="M-66.555 34.1814C-58.7039 31.7337 -56.0601 40.2139 -48.2076 37.7658C-40.355 35.3178 -42.999 26.8374 -35.1478 24.3897C-27.2968 21.942 -24.6515 30.4218 -16.7991 27.9737C-8.9466 25.5256 -11.5919 17.0457 -3.73942 14.5976C4.11324 12.1494 6.75703 20.6297 14.608 18.1821C22.4592 15.7344 19.8167 7.25362 27.6692 4.80549C35.5216 2.35735 38.1656 10.8377 46.0181 8.38951C53.8706 5.94138 51.2266 -2.53893 59.0792 -4.98706" stroke="white" stroke-opacity="0.08" stroke-width="2" stroke-miterlimit="10"/>
<path d="M-28.2362 157.089C-20.385 154.641 -17.7413 163.122 -9.88878 160.674C-2.03631 158.225 -4.6801 149.745 3.17087 147.298C11.022 144.85 13.6673 153.33 21.5198 150.882C29.3723 148.433 26.727 139.954 34.5795 137.506C42.4319 135.057 45.0759 143.538 52.9269 141.09C60.778 138.642 58.1356 130.161 65.988 127.713C73.8405 125.265 76.4843 133.745 84.3368 131.297C92.1894 128.849 89.5455 120.369 97.3979 117.921" stroke="white" stroke-opacity="0.08" stroke-width="2" stroke-miterlimit="10"/>
<path d="M-44.0916 106.232C-36.2405 103.785 -33.5967 112.265 -25.7442 109.817C-17.8917 107.369 -20.5355 98.8886 -12.6845 96.4409C-4.83337 93.9932 -2.18808 102.473 5.66439 100.025C13.5169 97.5767 10.8716 89.0969 18.7241 86.6488C26.5765 84.2005 29.2205 92.6809 37.0715 90.2332C44.9226 87.7855 42.2802 79.3048 50.1326 76.8567C57.9851 74.4086 60.6289 82.8888 68.4814 80.4407C76.334 77.9927 73.6901 69.5123 81.5425 67.0642" stroke="white" stroke-opacity="0.08" stroke-width="2" stroke-miterlimit="10"/>
<path d="M-36.164 131.661C-28.3128 129.213 -25.669 137.693 -17.8165 135.245C-9.96407 132.797 -12.6079 124.317 -4.75689 121.869C3.09427 119.421 5.73957 127.901 13.592 125.453C21.4445 123.005 18.7992 114.525 26.6517 112.077C34.5042 109.629 37.1481 118.109 44.9991 115.661C52.8503 113.214 50.2078 104.733 58.0603 102.285C65.9128 99.8366 68.5565 108.317 76.409 105.869C84.2617 103.421 81.6177 94.9405 89.4702 92.4922" stroke="white" stroke-opacity="0.08" stroke-width="2" stroke-miterlimit="10"/>
<path d="M-52.0193 80.804C-44.1682 78.3563 -41.5244 86.8366 -33.6719 84.3884C-25.8194 81.9403 -28.4632 73.4599 -20.6123 71.0122C-12.7611 68.5647 -10.1158 77.0445 -2.26334 74.5964C5.58913 72.1482 2.94384 63.6684 10.7963 61.2203C18.6488 58.772 21.2928 67.2524 29.1437 64.8047C36.9949 62.357 34.3524 53.8763 42.2049 51.4282C50.0574 48.9799 52.7012 57.4603 60.5536 55.0122C68.4063 52.5639 65.7623 44.0838 73.6148 41.6355" stroke="white" stroke-opacity="0.08" stroke-width="2" stroke-miterlimit="10"/>
<path d="M-63.9103 42.6613C-56.0593 40.2136 -53.4154 48.694 -45.5628 46.2457C-37.7104 43.7977 -40.3543 35.3173 -32.5032 32.8696C-24.6522 30.4219 -22.0069 38.9019 -14.1545 36.4536C-6.30198 34.0056 -8.94708 25.5258 -1.09461 23.0775C6.75787 20.6294 9.40165 29.1098 17.2528 26.6621C25.1038 24.2144 22.4613 15.7336 30.3138 13.2855C38.1663 10.8373 40.8102 19.3177 48.6627 16.8695C56.5152 14.4214 53.8714 5.94105 61.7239 3.49292" stroke="white" stroke-opacity="0.08" stroke-width="2" stroke-miterlimit="10"/>
<path d="M-32.2006 144.375C-24.3496 141.927 -21.7056 150.408 -13.8531 147.959C-6.00066 145.511 -8.64464 137.031 -0.793481 134.583C7.05749 132.136 9.70278 140.616 17.5553 138.167C25.4077 135.719 22.7626 127.239 30.6151 124.791C38.4676 122.343 41.1114 130.823 48.9625 128.376C56.8135 125.928 54.171 117.447 62.0235 114.999C69.876 112.551 72.52 121.031 80.3724 118.583C88.2249 116.135 85.5811 107.655 93.4336 105.207" stroke="white" stroke-opacity="0.08" stroke-width="2" stroke-miterlimit="10"/>
<path d="M-48.056 93.5181C-40.2049 91.0704 -37.5609 99.5508 -29.7085 97.1027C-21.856 94.6546 -24.5 86.1743 -16.6488 83.7266C-8.79784 81.2789 -6.15256 89.7587 1.69992 87.3106C9.55258 84.8625 6.90729 76.3825 14.7598 73.9345C22.6122 71.4864 25.256 79.9666 33.1072 77.5189C40.9582 75.0712 38.3157 66.5904 46.1682 64.1423C54.0206 61.6943 56.6646 70.1744 64.5171 67.7264C72.3696 65.2783 69.7258 56.7979 77.5782 54.3499" stroke="white" stroke-opacity="0.08" stroke-width="2" stroke-miterlimit="10"/>
<path d="M-59.9471 55.3757C-52.096 52.928 -49.4522 61.4084 -41.5997 58.9601C-33.7472 56.512 -36.391 48.0317 -28.5401 45.584C-20.6889 43.1363 -18.0436 51.6163 -10.1911 49.168C-2.33866 46.7199 -4.98395 38.2401 2.86852 35.7919C10.721 33.3438 13.365 41.8242 21.2159 39.3765C29.0671 36.9288 26.4246 28.448 34.2771 25.9997C42.1296 23.5517 44.7734 32.032 52.6258 29.5838C60.4785 27.1357 57.8345 18.6554 65.687 16.2073" stroke="white" stroke-opacity="0.08" stroke-width="2" stroke-miterlimit="10"/>
<path d="M-40.1272 118.947C-32.2763 116.499 -29.6323 124.979 -21.7798 122.531C-13.9273 120.083 -16.5713 111.602 -8.72014 109.155C-0.869173 106.707 1.77611 115.187 9.62859 112.739C17.4811 110.291 14.836 101.811 22.6884 99.3627C30.5409 96.9146 33.1847 105.395 41.0359 102.947C48.8868 100.5 46.2444 92.0188 54.0968 89.5706C61.9493 87.1225 64.5933 95.6029 72.4458 93.1546C80.2982 90.7065 77.6545 82.2262 85.5069 79.7781" stroke="white" stroke-opacity="0.08" stroke-width="2" stroke-miterlimit="10"/>
<path d="M-55.9837 68.0898C-48.1326 65.6421 -45.4887 74.1225 -37.6362 71.6744C-29.7837 69.2262 -32.4277 60.746 -24.5766 58.2983C-16.7256 55.8506 -14.0803 64.3304 -6.22781 61.8823C1.62466 59.4341 -1.02045 50.9543 6.83202 48.5062C14.6845 46.0579 17.3283 54.5383 25.1794 52.0906C33.0304 49.6429 30.3879 41.1621 38.2404 38.7141C46.0929 36.2658 48.7369 44.7462 56.5893 42.2981C64.4418 39.8498 61.798 31.3697 69.6505 28.9214" stroke="white" stroke-opacity="0.08" stroke-width="2" stroke-miterlimit="10"/>
<path d="M-67.8747 29.9475C-60.0237 27.4998 -57.3798 35.98 -49.5273 33.5319C-41.6749 31.0839 -44.3186 22.6035 -36.4677 20.1558C-28.6165 17.7081 -25.9712 26.1879 -18.1187 23.7398C-10.2663 21.2918 -12.9116 12.8118 -5.05909 10.3637C2.79338 7.91556 5.43736 16.3959 13.2883 13.9482C21.1395 11.5005 18.497 3.01973 26.3495 0.571599C34.202 -1.87654 36.8457 6.60377 44.6982 4.15562C52.5509 1.7075 49.9069 -6.77282 57.7594 -9.22095" stroke="white" stroke-opacity="0.08" stroke-width="2" stroke-miterlimit="10"/>
<path d="M-25.5968 165.557C-17.7458 163.109 -15.1018 171.59 -7.24935 169.142C0.603127 166.693 -2.04085 158.213 5.81031 155.765C13.6615 153.318 16.3066 161.797 24.1592 159.349C32.0117 156.901 29.3664 148.421 37.2189 145.973C45.0714 143.525 47.7152 152.005 55.5663 149.558C63.4173 147.11 60.7748 138.629 68.6275 136.181C76.48 133.733 79.1237 142.213 86.9762 139.765C94.8287 137.317 92.1849 128.837 100.037 126.389" stroke="white" stroke-opacity="0.08" stroke-width="2" stroke-miterlimit="10"/>
<path d="M-26.9165 161.323C-19.0653 158.875 -16.4215 167.355 -8.56906 164.907C-0.716395 162.459 -3.36037 153.979 4.49079 151.531C12.3418 149.084 14.9871 157.563 22.8395 155.115C30.692 152.667 28.0467 144.187 35.8992 141.739C43.7517 139.291 46.3956 147.771 54.2466 145.324C62.0978 142.876 59.4553 134.395 67.3078 131.947C75.1602 129.499 77.8042 137.979 85.6567 135.531C93.5092 133.083 90.8652 124.603 98.7178 122.155" stroke="white" stroke-opacity="0.08" stroke-width="2" stroke-miterlimit="10"/>
</g>
</svg>
