<svg width="54" height="70" viewBox="0 0 54 70" fill="none" xmlns="http://www.w3.org/2000/svg">
<path d="M45.4459 9.58903C46.0213 11.8132 46.4537 13.7879 46.9469 15.6943C48.4765 22.3142 47.9268 28.6719 44.8514 34.859C42.5832 39.3194 39.1395 42.3663 34.2881 43.3035C29.4366 44.2408 24.4351 44.7999 19.5694 45.4799C17.0722 45.8237 14.6286 45.9708 12.1993 46.3751C7.92306 47.2132 6.28341 49.0544 5.49066 53.3615C4.5515 58.5165 5.99523 63.5926 9.88255 68.5217C7.66058 70.3334 5.90992 69.0189 4.78802 67.4084C3.38742 65.4275 2.10114 63.1815 1.4579 60.8969C0.73246 58.2945 0.378544 55.4116 0.553382 52.7551C0.952957 46.0191 4.22508 42.2082 10.7949 40.8448C14.6853 40.0299 18.6115 39.8582 22.5162 39.3006C26.103 38.8266 29.7505 38.2845 33.3909 37.6137C36.1381 37.1257 38.11 35.4582 39.5924 33.1102C41.8429 29.4897 42.7249 25.629 42.4209 21.3233C42.3708 20.4227 42.26 19.5904 42.0813 18.6977C41.3522 14.8693 40.6231 11.0409 39.8118 6.89477C37.0114 12.2263 34.4467 17.1563 31.8213 22.1546C31.7606 22.2228 31.239 22.1251 30.7852 22.0879C30.7566 21.5733 30.4636 20.9455 30.5708 20.5519C32.1387 15.1009 33.5708 9.52908 35.5996 4.24403C37.1783 0.147717 39.7683 -0.847097 43.6196 1.11545C47.003 2.78347 50.0363 5.11793 52.9409 7.46012C53.6805 7.99646 53.9164 9.91839 53.5807 10.8421C53.42 11.4326 51.5123 11.9346 50.5977 11.7315C48.9043 11.4462 47.4323 10.5021 45.4459 9.58903Z" fill="white"/>
<path d="M45.4459 9.58903C46.0213 11.8132 46.4537 13.7879 46.9469 15.6943C48.4765 22.3142 47.9268 28.6719 44.8514 34.859C42.5832 39.3194 39.1395 42.3663 34.2881 43.3035C29.4366 44.2408 24.4351 44.7999 19.5694 45.4799C17.0722 45.8237 14.6286 45.9708 12.1993 46.3751C7.92306 47.2132 6.28341 49.0544 5.49066 53.3615C4.5515 58.5165 5.99523 63.5926 9.88255 68.5217C7.66058 70.3334 5.90992 69.0189 4.78802 67.4084C3.38742 65.4275 2.10114 63.1815 1.4579 60.8969C0.73246 58.2945 0.378544 55.4116 0.553382 52.7551C0.952957 46.0191 4.22508 42.2082 10.7949 40.8448C14.6853 40.0299 18.6115 39.8582 22.5162 39.3006C26.103 38.8266 29.7505 38.2845 33.3909 37.6137C36.1381 37.1257 38.11 35.4582 39.5924 33.1102C41.8429 29.4897 42.7249 25.629 42.4209 21.3233C42.3708 20.4227 42.26 19.5904 42.0813 18.6977C41.3522 14.8693 40.6231 11.0409 39.8118 6.89477C37.0114 12.2263 34.4467 17.1563 31.8213 22.1546C31.7606 22.2228 31.239 22.1251 30.7852 22.0879C30.7566 21.5733 30.4636 20.9455 30.5708 20.5519C32.1387 15.1009 33.5708 9.52908 35.5996 4.24403C37.1783 0.147717 39.7683 -0.847097 43.6196 1.11545C47.003 2.78347 50.0363 5.11793 52.9409 7.46012C53.6805 7.99646 53.9164 9.91839 53.5807 10.8421C53.42 11.4326 51.5123 11.9346 50.5977 11.7315C48.9043 11.4462 47.4323 10.5021 45.4459 9.58903Z" fill="#151516"/>
</svg>
