<svg width="79" height="65" viewBox="0 0 79 65" fill="none" xmlns="http://www.w3.org/2000/svg">
<path d="M74.4013 64.5265C74.3097 63.2217 73.9712 61.9473 74.0031 60.6274C74.5119 49.0346 69.8028 39.3978 62.9589 30.7748C60.6036 27.805 57.2354 25.2729 53.7768 23.5665C43.9787 18.5644 33.4702 16.0308 22.4186 16.321C19.2336 16.3984 15.998 17.1086 12.8208 18.3129C13.798 18.6317 14.8442 19.0047 15.8758 19.2542C18.8471 20.0177 21.8729 20.7119 24.8043 21.6683C26.0431 22.0803 27.2167 23.0017 28.2669 23.9382C28.6811 24.2634 28.8125 25.3752 28.5549 25.8455C28.2974 26.3157 27.2843 26.7533 26.8847 26.5517C19.6011 23.7478 11.7705 23.2043 4.11386 22.0128C1.4333 21.5896 0.477393 20.3909 1.11872 17.8683C2.76385 11.6506 5.73134 6.02278 9.84327 1.06919C9.95214 0.93051 10.3916 0.939273 11.1324 0.848403C14.0081 5.57157 9.28147 9.03393 8.50732 14.1421C9.64382 13.6894 10.5334 13.2669 11.3831 13.0374C28.5195 9.11821 44.5126 12.4831 59.539 20.9171C61.8133 22.1421 63.9136 24.0151 65.7126 25.9878C72.2724 33.267 76.5341 41.7681 77.9345 51.4974C78.3686 54.6401 77.8839 57.9581 77.5081 61.1375C77.4072 62.4032 76.4818 63.582 75.9268 64.7154C75.4183 64.6524 74.9098 64.5894 74.4013 64.5265Z" fill="white"/>
<path d="M74.4013 64.5265C74.3097 63.2217 73.9712 61.9473 74.0031 60.6274C74.5119 49.0346 69.8028 39.3978 62.9589 30.7748C60.6036 27.805 57.2354 25.2729 53.7768 23.5665C43.9787 18.5644 33.4702 16.0308 22.4186 16.321C19.2336 16.3984 15.998 17.1086 12.8208 18.3129C13.798 18.6317 14.8442 19.0047 15.8758 19.2542C18.8471 20.0177 21.8729 20.7119 24.8043 21.6683C26.0431 22.0803 27.2167 23.0017 28.2669 23.9382C28.6811 24.2634 28.8125 25.3752 28.5549 25.8455C28.2974 26.3157 27.2843 26.7533 26.8847 26.5517C19.6011 23.7478 11.7705 23.2043 4.11386 22.0128C1.4333 21.5896 0.477393 20.3909 1.11872 17.8683C2.76385 11.6506 5.73134 6.02278 9.84327 1.06919C9.95214 0.93051 10.3916 0.939273 11.1324 0.848403C14.0081 5.57157 9.28147 9.03393 8.50732 14.1421C9.64382 13.6894 10.5334 13.2669 11.3831 13.0374C28.5195 9.11821 44.5126 12.4831 59.539 20.9171C61.8133 22.1421 63.9136 24.0151 65.7126 25.9878C72.2724 33.267 76.5341 41.7681 77.9345 51.4974C78.3686 54.6401 77.8839 57.9581 77.5081 61.1375C77.4072 62.4032 76.4818 63.582 75.9268 64.7154C75.4183 64.6524 74.9098 64.5894 74.4013 64.5265Z" fill="#407BFF"/>
</svg>
