<svg width="51" height="51" viewBox="0 0 51 51" fill="none" xmlns="http://www.w3.org/2000/svg">
<path d="M28.3294 14.8936L28.3321 14.8943C29.8702 15.3037 32.0855 15.2569 34.4193 15.0167C36.7912 14.7726 39.4227 14.3119 41.8657 13.8103C43.9236 13.3877 45.8597 12.9335 47.4118 12.5493C46.3 13.6978 44.935 15.143 43.5365 16.7097C41.876 18.5699 40.1567 20.6143 38.7558 22.544C37.3775 24.4426 36.2264 26.3375 35.8119 27.8779C35.3974 29.4183 35.4421 31.6347 35.6817 33.9682C35.9251 36.3399 36.3865 38.9704 36.8893 41.4122C37.3122 43.4655 37.7669 45.3972 38.152 46.9469C37.0048 45.8366 35.5621 44.4744 33.9983 43.0787C32.1385 41.4187 30.0944 39.6998 28.1648 38.299C26.2663 36.9206 24.3715 35.7694 22.831 35.3538C21.2898 34.938 19.0727 34.9821 16.7386 35.2211C14.3663 35.464 11.7351 35.9252 9.29285 36.4279C7.24204 36.8501 5.31244 37.3042 3.76355 37.6889C4.87396 36.5437 6.23519 35.1043 7.62957 33.5438C9.29065 31.6848 11.0104 29.6408 12.4112 27.7098C13.7894 25.8098 14.9399 23.9117 15.3524 22.365C15.7643 20.8204 15.7189 18.6026 15.479 16.2677C15.2352 13.8951 14.7741 11.2653 14.2717 8.82485C13.8497 6.77507 13.3961 4.84698 13.0118 3.29965C14.1587 4.41034 15.6009 5.77282 17.1641 7.1687C19.0236 8.82921 21.0673 10.5486 22.9964 11.9495C24.8945 13.3278 26.789 14.479 28.3294 14.8936Z" stroke="white" stroke-width="2"/>
</svg>
