<svg width="528" height="471" viewBox="0 0 528 471" fill="none" xmlns="http://www.w3.org/2000/svg">
<path d="M390.475 763.143C415.282 727.064 454.253 753.86 479.065 717.775C503.878 681.689 464.907 654.894 489.715 618.815C514.522 582.736 553.497 609.525 578.31 573.44C603.122 537.354 564.147 510.565 588.959 474.479C613.771 438.394 652.742 465.19 677.55 429.111C702.357 393.032 663.391 366.229 688.204 330.144C713.016 294.058 751.986 320.854 776.799 284.769C801.611 248.683 762.64 221.887 787.452 185.802" stroke="white" stroke-opacity="0.08" stroke-width="2" stroke-miterlimit="10"/>
<path d="M507.328 843.491C532.136 807.412 571.107 834.208 595.919 798.123C620.731 762.037 581.76 735.241 606.568 699.162C631.376 663.083 670.351 689.873 695.163 653.787C719.975 617.702 681 590.912 705.813 554.827C730.625 518.741 769.595 545.537 794.403 509.458C819.211 473.379 780.245 446.577 805.057 410.491C829.869 374.406 868.84 401.202 893.652 365.116C918.464 329.031 879.494 302.235 904.306 266.149" stroke="white" stroke-opacity="0.08" stroke-width="2" stroke-miterlimit="10"/>
<path d="M273.621 682.795C298.429 646.716 337.4 673.512 362.212 637.426C387.024 601.341 348.053 574.545 372.861 538.466C397.669 502.387 436.644 529.176 461.456 493.091C486.268 457.005 447.293 430.216 472.106 394.13C496.918 358.045 535.888 384.841 560.696 348.762C585.504 312.683 546.538 285.88 571.35 249.795C596.162 213.71 635.133 240.506 659.945 204.42C684.757 168.335 645.787 141.539 670.599 105.453" stroke="white" stroke-opacity="0.08" stroke-width="2" stroke-miterlimit="10"/>
<path d="M98.34 562.271C123.148 526.192 162.118 552.988 186.931 516.903C211.743 480.817 172.772 454.021 197.58 417.942C222.388 381.863 261.363 408.653 286.175 372.567C310.987 336.482 272.012 309.692 296.824 273.607C321.637 237.521 360.607 264.317 385.415 228.238C410.223 192.159 371.257 165.357 396.069 129.271C420.881 93.186 459.852 119.982 484.664 83.8965C509.476 47.811 470.505 21.015 495.318 -15.0705" stroke="white" stroke-opacity="0.08" stroke-width="2" stroke-miterlimit="10"/>
<path d="M332.047 722.969C356.855 686.89 395.825 713.686 420.638 677.6C445.45 641.515 406.479 614.719 431.287 578.64C456.095 542.561 495.07 569.35 519.882 533.265C544.694 497.179 505.719 470.39 530.531 434.304C555.344 398.219 594.314 425.015 619.122 388.936C643.93 352.857 604.964 326.054 629.776 289.969C654.588 253.883 693.559 280.679 718.371 244.594C743.183 208.508 704.212 181.712 729.025 145.627" stroke="white" stroke-opacity="0.08" stroke-width="2" stroke-miterlimit="10"/>
<path d="M156.766 602.445C181.574 566.366 220.544 593.162 245.356 557.077C270.169 520.991 231.198 494.195 256.006 458.116C280.813 422.037 319.788 448.827 344.601 412.741C369.413 376.656 330.438 349.866 355.25 313.781C380.062 277.695 419.033 304.491 443.841 268.412C468.648 232.333 429.682 205.531 454.495 169.445C479.307 133.36 518.277 160.156 543.09 124.07C567.902 87.9848 528.931 61.1888 553.743 25.1033" stroke="white" stroke-opacity="0.08" stroke-width="2" stroke-miterlimit="10"/>
<path d="M448.901 803.317C473.708 767.238 512.679 794.034 537.491 757.949C562.303 721.863 523.333 695.067 548.14 658.988C572.948 622.909 611.923 649.699 636.735 613.613C661.548 577.528 622.573 550.738 647.385 514.653C672.197 478.567 711.168 505.363 735.975 469.284C760.783 433.205 721.817 406.403 746.629 370.317C771.442 334.232 810.412 361.028 835.224 324.942C860.037 288.857 821.066 262.061 845.878 225.976" stroke="white" stroke-opacity="0.08" stroke-width="2" stroke-miterlimit="10"/>
<path d="M215.193 642.621C240.001 606.542 278.972 633.338 303.784 597.253C328.596 561.167 289.626 534.371 314.433 498.292C339.241 462.213 378.216 489.003 403.028 452.917C427.841 416.832 388.866 390.042 413.678 353.957C438.49 317.871 477.461 344.667 502.268 308.588C527.076 272.509 488.11 245.707 512.922 209.621C537.735 173.536 576.705 200.332 601.517 164.246C626.33 128.161 587.359 101.365 612.171 65.2792" stroke="white" stroke-opacity="0.08" stroke-width="2" stroke-miterlimit="10"/>
<path d="M39.9122 522.097C64.72 486.018 103.691 512.814 128.503 476.729C153.315 440.643 114.344 413.847 139.152 377.768C163.96 341.689 202.935 368.479 227.747 332.393C252.559 296.308 213.584 269.518 238.397 233.433C263.209 197.347 302.179 224.143 326.987 188.064C351.795 151.985 312.829 125.183 337.641 89.0972C362.453 53.0118 401.424 79.8077 426.236 43.7223C451.048 7.63677 412.078 -19.1592 436.89 -55.2447" stroke="white" stroke-opacity="0.08" stroke-width="2" stroke-miterlimit="10"/>
<path d="M371.018 749.765C395.825 713.686 434.796 740.482 459.608 704.396C484.42 668.311 445.45 641.515 470.258 605.436C495.065 569.357 534.04 596.146 558.853 560.061C583.665 523.975 544.69 497.186 569.502 461.1C594.314 425.015 633.285 451.811 658.093 415.732C682.9 379.653 643.934 352.85 668.746 316.765C693.559 280.679 732.529 307.475 757.342 271.39C782.154 235.304 743.183 208.508 767.995 172.423" stroke="white" stroke-opacity="0.08" stroke-width="2" stroke-miterlimit="10"/>
<path d="M487.871 830.113C512.679 794.034 551.65 820.83 576.462 784.745C601.274 748.659 562.303 721.863 587.111 685.784C611.919 649.705 650.894 676.495 675.706 640.409C700.518 604.324 661.543 577.534 686.356 541.449C711.168 505.363 750.138 532.159 774.946 496.08C799.754 460.001 760.788 433.199 785.6 397.113C810.412 361.028 849.383 387.824 874.195 351.738C899.007 315.653 860.037 288.857 884.849 252.771" stroke="white" stroke-opacity="0.08" stroke-width="2" stroke-miterlimit="10"/>
<path d="M254.164 669.417C278.972 633.338 317.943 660.134 342.755 624.048C367.567 587.963 328.596 561.167 353.404 525.088C378.212 489.009 417.187 515.798 441.999 479.713C466.811 443.627 427.836 416.838 452.649 380.753C477.461 344.667 516.431 371.463 541.239 335.384C566.047 299.305 527.081 272.503 551.893 236.417C576.705 200.332 615.676 227.128 640.488 191.042C665.3 154.957 626.33 128.161 651.142 92.0751" stroke="white" stroke-opacity="0.08" stroke-width="2" stroke-miterlimit="10"/>
<path d="M78.8829 548.893C103.691 512.814 142.661 539.61 167.473 503.525C192.286 467.439 153.315 440.644 178.123 404.565C202.931 368.486 241.906 395.275 266.718 359.19C291.53 323.104 252.555 296.315 277.367 260.229C302.18 224.144 341.15 250.94 365.958 214.861C390.766 178.782 351.8 151.979 376.612 115.894C401.424 79.8081 440.395 106.604 465.207 70.5186C490.019 34.4332 451.048 7.63716 475.861 -28.4483" stroke="white" stroke-opacity="0.08" stroke-width="2" stroke-miterlimit="10"/>
<path d="M312.59 709.591C337.398 673.512 376.368 700.308 401.181 664.222C425.993 628.137 387.022 601.341 411.83 565.262C436.638 529.183 475.613 555.972 500.425 519.887C525.237 483.801 486.262 457.012 511.074 420.926C535.887 384.841 574.857 411.637 599.665 375.558C624.473 339.479 585.507 312.676 610.319 276.591C635.131 240.505 674.102 267.301 698.914 231.216C723.726 195.13 684.755 168.334 709.568 132.249" stroke="white" stroke-opacity="0.08" stroke-width="2" stroke-miterlimit="10"/>
<path d="M137.311 589.067C162.118 552.988 201.089 579.784 225.901 543.699C250.713 507.613 211.743 480.817 236.551 444.738C261.358 408.659 300.333 435.449 325.146 399.363C349.958 363.278 310.983 336.488 335.795 300.403C360.607 264.317 399.578 291.113 424.386 255.034C449.193 218.955 410.227 192.153 435.039 156.067C459.852 119.982 498.822 146.778 523.634 110.692C548.447 74.6069 509.476 47.8109 534.288 11.7254" stroke="white" stroke-opacity="0.08" stroke-width="2" stroke-miterlimit="10"/>
<path d="M429.445 789.939C454.253 753.86 493.224 780.656 518.036 744.571C542.848 708.485 503.878 681.689 528.685 645.61C553.493 609.531 592.468 636.321 617.28 600.235C642.093 564.15 603.118 537.36 627.93 501.275C652.742 465.189 691.713 491.985 716.52 455.907C741.328 419.828 702.362 393.025 727.174 356.94C751.986 320.854 790.957 347.65 815.769 311.565C840.581 275.479 801.611 248.683 826.423 212.598" stroke="white" stroke-opacity="0.08" stroke-width="2" stroke-miterlimit="10"/>
<path d="M195.736 629.243C220.544 593.164 259.515 619.96 284.327 583.875C309.139 547.789 270.169 520.993 294.976 484.914C319.784 448.835 358.759 475.625 383.571 439.539C408.384 403.454 369.409 376.664 394.221 340.579C419.033 304.493 458.004 331.289 482.811 295.21C507.619 259.131 468.653 232.329 493.465 196.243C518.277 160.158 557.248 186.954 582.06 150.868C606.872 114.783 567.902 87.9868 592.714 51.9013" stroke="white" stroke-opacity="0.08" stroke-width="2" stroke-miterlimit="10"/>
<path d="M20.4552 508.719C45.263 472.64 84.2335 499.436 109.046 463.351C133.858 427.265 94.8874 400.469 119.695 364.39C144.503 328.311 183.478 355.101 208.29 319.015C233.102 282.93 194.127 256.14 218.94 220.055C243.752 183.969 282.722 210.765 307.53 174.686C332.338 138.607 293.372 111.805 318.184 75.7193C342.996 39.6338 381.967 66.4298 406.779 30.3443C431.591 -5.74122 392.621 -32.5372 417.433 -68.6227" stroke="white" stroke-opacity="0.08" stroke-width="2" stroke-miterlimit="10"/>
<path d="M371.018 749.765C395.825 713.686 434.796 740.482 459.608 704.396C484.42 668.311 445.45 641.515 470.258 605.436C495.065 569.357 534.04 596.146 558.853 560.061C583.665 523.975 544.69 497.186 569.502 461.1C594.314 425.015 633.285 451.811 658.093 415.732C682.9 379.653 643.934 352.85 668.746 316.765C693.559 280.679 732.529 307.475 757.342 271.39C782.154 235.304 743.183 208.508 767.995 172.423" stroke="white" stroke-opacity="0.08" stroke-width="2" stroke-miterlimit="10"/>
<path d="M487.871 830.113C512.679 794.034 551.65 820.83 576.462 784.745C601.274 748.659 562.303 721.863 587.111 685.784C611.919 649.705 650.894 676.495 675.706 640.409C700.518 604.324 661.543 577.534 686.356 541.449C711.168 505.363 750.138 532.159 774.946 496.08C799.754 460.001 760.788 433.199 785.6 397.113C810.412 361.028 849.383 387.824 874.195 351.738C899.007 315.653 860.037 288.857 884.849 252.771" stroke="white" stroke-opacity="0.08" stroke-width="2" stroke-miterlimit="10"/>
<path d="M254.164 669.417C278.972 633.338 317.943 660.134 342.755 624.048C367.567 587.963 328.596 561.167 353.404 525.088C378.212 489.009 417.187 515.798 441.999 479.713C466.811 443.627 427.836 416.838 452.649 380.753C477.461 344.667 516.431 371.463 541.239 335.384C566.047 299.305 527.081 272.503 551.893 236.417C576.705 200.332 615.676 227.128 640.488 191.042C665.3 154.957 626.33 128.161 651.142 92.0751" stroke="white" stroke-opacity="0.08" stroke-width="2" stroke-miterlimit="10"/>
<path d="M78.8829 548.893C103.691 512.814 142.661 539.61 167.473 503.525C192.286 467.439 153.315 440.644 178.123 404.565C202.931 368.486 241.906 395.275 266.718 359.19C291.53 323.104 252.555 296.315 277.367 260.229C302.18 224.144 341.15 250.94 365.958 214.861C390.766 178.782 351.8 151.979 376.612 115.894C401.424 79.8081 440.395 106.604 465.207 70.5186C490.019 34.4332 451.048 7.63716 475.861 -28.4483" stroke="white" stroke-opacity="0.08" stroke-width="2" stroke-miterlimit="10"/>
<path d="M312.59 709.591C337.398 673.512 376.368 700.308 401.181 664.222C425.993 628.137 387.022 601.341 411.83 565.262C436.638 529.183 475.613 555.972 500.425 519.887C525.237 483.801 486.262 457.012 511.074 420.926C535.887 384.841 574.857 411.637 599.665 375.558C624.473 339.479 585.507 312.676 610.319 276.591C635.131 240.505 674.102 267.301 698.914 231.216C723.726 195.13 684.755 168.334 709.568 132.249" stroke="white" stroke-opacity="0.08" stroke-width="2" stroke-miterlimit="10"/>
<path d="M137.311 589.067C162.118 552.988 201.089 579.784 225.901 543.699C250.713 507.613 211.743 480.817 236.551 444.738C261.358 408.659 300.333 435.449 325.146 399.363C349.958 363.278 310.983 336.488 335.795 300.403C360.607 264.317 399.578 291.113 424.386 255.034C449.193 218.955 410.227 192.153 435.039 156.067C459.852 119.982 498.822 146.778 523.634 110.692C548.447 74.6069 509.476 47.8109 534.288 11.7254" stroke="white" stroke-opacity="0.08" stroke-width="2" stroke-miterlimit="10"/>
<path d="M429.445 789.939C454.253 753.86 493.224 780.656 518.036 744.571C542.848 708.485 503.878 681.689 528.685 645.61C553.493 609.531 592.468 636.321 617.28 600.235C642.093 564.15 603.118 537.36 627.93 501.275C652.742 465.189 691.713 491.985 716.52 455.907C741.328 419.828 702.362 393.025 727.174 356.94C751.986 320.854 790.957 347.65 815.769 311.565C840.581 275.479 801.611 248.683 826.423 212.598" stroke="white" stroke-opacity="0.08" stroke-width="2" stroke-miterlimit="10"/>
<path d="M195.736 629.243C220.544 593.164 259.515 619.96 284.327 583.875C309.139 547.789 270.169 520.993 294.976 484.914C319.784 448.835 358.759 475.625 383.571 439.539C408.384 403.454 369.409 376.664 394.221 340.579C419.033 304.493 458.004 331.289 482.811 295.21C507.619 259.131 468.653 232.329 493.465 196.243C518.277 160.158 557.248 186.954 582.06 150.868C606.872 114.783 567.902 87.9868 592.714 51.9013" stroke="white" stroke-opacity="0.08" stroke-width="2" stroke-miterlimit="10"/>
<path d="M20.4552 508.719C45.263 472.64 84.2335 499.436 109.046 463.351C133.858 427.265 94.8874 400.469 119.695 364.39C144.503 328.311 183.478 355.101 208.29 319.015C233.102 282.93 194.127 256.14 218.94 220.055C243.752 183.969 282.722 210.765 307.53 174.686C332.338 138.607 293.372 111.805 318.184 75.7193C342.996 39.6338 381.967 66.4298 406.779 30.3443C431.591 -5.74122 392.621 -32.5372 417.433 -68.6227" stroke="white" stroke-opacity="0.08" stroke-width="2" stroke-miterlimit="10"/>
<path d="M351.561 736.387C376.368 700.308 415.339 727.104 440.151 691.018C464.963 654.933 425.993 628.137 450.801 592.058C475.608 555.979 514.583 582.768 539.396 546.683C564.208 510.597 525.233 483.808 550.045 447.722C574.857 411.637 613.828 438.433 638.636 402.354C663.443 366.275 624.477 339.472 649.289 303.387C674.102 267.301 713.072 294.097 737.884 258.012C762.697 221.926 723.726 195.13 748.538 159.045" stroke="white" stroke-opacity="0.08" stroke-width="2" stroke-miterlimit="10"/>
<path d="M468.416 816.735C493.224 780.656 532.194 807.452 557.007 771.367C581.819 735.281 542.848 708.485 567.656 672.406C592.464 636.327 631.439 663.117 656.251 627.031C681.063 590.946 642.088 564.156 666.901 528.071C691.713 491.985 730.683 518.781 755.491 482.702C780.299 446.623 741.333 419.821 766.145 383.735C790.957 347.65 829.928 374.446 854.74 338.36C879.552 302.275 840.582 275.479 865.394 239.393" stroke="white" stroke-opacity="0.08" stroke-width="2" stroke-miterlimit="10"/>
<path d="M234.707 656.039C259.515 619.96 298.485 646.756 323.298 610.67C348.11 574.585 309.139 547.789 333.947 511.71C358.755 475.631 397.73 502.421 422.542 466.335C447.354 430.25 408.379 403.46 433.192 367.375C458.004 331.289 496.974 358.085 521.782 322.006C546.59 285.927 507.624 259.125 532.436 223.039C557.248 186.954 596.219 213.75 621.031 177.664C645.843 141.579 606.873 114.783 631.685 78.6972" stroke="white" stroke-opacity="0.08" stroke-width="2" stroke-miterlimit="10"/>
<path d="M59.4259 535.515C84.2337 499.436 123.204 526.232 148.016 490.147C172.829 454.061 133.858 427.265 158.666 391.186C183.474 355.107 222.449 381.897 247.261 345.811C272.073 309.726 233.098 282.936 257.91 246.851C282.723 210.765 321.693 237.561 346.501 201.482C371.309 165.403 332.342 138.601 357.155 102.515C381.967 66.4297 420.937 93.2257 445.75 57.1402C470.562 21.0547 431.591 -5.74126 456.404 -41.8267" stroke="white" stroke-opacity="0.08" stroke-width="2" stroke-miterlimit="10"/>
<path d="M526.842 856.909C551.65 820.83 590.62 847.626 615.432 811.541C640.245 775.455 601.274 748.659 626.082 712.58C650.89 676.501 689.865 703.291 714.677 667.205C739.489 631.12 700.514 604.33 725.326 568.245C750.139 532.159 789.109 558.955 813.917 522.876C838.725 486.797 799.758 459.995 824.571 423.909C849.383 387.824 888.354 414.62 913.166 378.534C937.978 342.449 899.007 315.653 923.82 279.567" stroke="white" stroke-opacity="0.08" stroke-width="2" stroke-miterlimit="10"/>
<path d="M293.135 696.213C317.943 660.134 356.913 686.93 381.725 650.844C406.538 614.759 367.567 587.963 392.375 551.884C417.183 515.805 456.158 542.594 480.97 506.509C505.782 470.423 466.807 443.634 491.619 407.548C516.431 371.463 555.402 398.259 580.21 362.18C605.018 326.101 566.051 299.298 590.864 263.213C615.676 227.127 654.646 253.923 679.459 217.838C704.271 181.752 665.3 154.956 690.113 118.871" stroke="white" stroke-opacity="0.08" stroke-width="2" stroke-miterlimit="10"/>
<path d="M117.854 575.689C142.661 539.61 181.632 566.406 206.444 530.321C231.256 494.235 192.286 467.439 217.094 431.36C241.901 395.281 280.876 422.071 305.689 385.985C330.501 349.9 291.526 323.11 316.338 287.025C341.15 250.939 380.121 277.735 404.929 241.657C429.736 205.578 390.77 178.775 415.582 142.69C440.395 106.604 479.365 133.4 504.177 97.3145C528.99 61.2291 490.019 34.4331 514.831 -1.65243" stroke="white" stroke-opacity="0.08" stroke-width="2" stroke-miterlimit="10"/>
<path d="M409.988 776.561C434.796 740.482 473.767 767.278 498.579 731.193C523.391 695.107 484.421 668.311 509.228 632.232C534.036 596.154 573.011 622.943 597.823 586.858C622.636 550.772 583.661 523.983 608.473 487.897C633.285 451.812 672.256 478.608 697.063 442.529C721.871 406.45 682.905 379.647 707.717 343.562C732.529 307.476 771.5 334.272 796.312 298.187C821.124 262.101 782.154 235.305 806.966 199.22" stroke="white" stroke-opacity="0.08" stroke-width="2" stroke-miterlimit="10"/>
<path d="M176.279 615.863C201.087 579.784 240.058 606.58 264.87 570.495C289.682 534.409 250.712 507.613 275.519 471.534C300.327 435.455 339.302 462.245 364.114 426.159C388.927 390.074 349.952 363.284 374.764 327.199C399.576 291.113 438.547 317.909 463.354 281.83C488.162 245.751 449.196 218.949 474.008 182.863C498.82 146.778 537.791 173.574 562.603 137.488C587.415 101.403 548.445 74.6068 573.257 38.5213" stroke="white" stroke-opacity="0.08" stroke-width="2" stroke-miterlimit="10"/>
<path d="M1.00013 495.34C25.8079 459.261 64.7785 486.057 89.5907 449.972C114.403 413.886 75.4323 387.09 100.24 351.011C125.048 314.932 164.023 341.722 188.835 305.636C213.647 269.551 174.672 242.761 199.484 206.676C224.297 170.59 263.267 197.386 288.075 161.307C312.883 125.228 273.917 98.4258 298.729 62.3404C323.541 26.2549 362.512 53.0509 387.324 16.9654C412.136 -19.1201 373.166 -45.9161 397.978 -82.0016" stroke="white" stroke-opacity="0.08" stroke-width="2" stroke-miterlimit="10"/>
</svg>
