<svg width="15" height="15" viewBox="0 0 12 12" fill="none" xmlns="http://www.w3.org/2000/svg">
<path d="M6.60461 11.8063L11.8112 6.4644C12.0629 6.20883 12.0629 5.79117 11.8112 5.53286L6.60461 0.193734C6.35553 -0.0645779 5.94843 -0.0645779 5.69669 0.193734L5.10211 0.803769C4.845 1.06482 4.85034 1.49074 5.11283 1.74629L8.34015 4.90085H0.642785C0.28658 4.90085 0 5.19488 0 5.56034V6.43966C0 6.80512 0.28658 7.09915 0.642785 7.09915H8.34015L5.11283 10.2537C4.85303 10.5093 4.84767 10.9352 5.10211 11.1962L5.69669 11.8063C5.94576 12.0646 6.35286 12.0646 6.60461 11.8063Z" fill="#151516"/>
</svg>
