<svg width="40" height="40" viewBox="0 0 40 40" fill="none" xmlns="http://www.w3.org/2000/svg">
<path d="M21.0943 11.1429L21.0971 11.1432C22.4865 11.2996 24.389 10.9722 26.3474 10.471C28.343 9.96017 30.5308 9.2319 32.5501 8.49356C34.0588 7.94194 35.4825 7.38137 36.6743 6.89547C35.9292 7.94441 35.0587 9.20197 34.1777 10.5445C32.9983 12.3418 31.7907 14.3058 30.8395 16.1332C29.906 17.9264 29.1552 19.7063 28.9946 21.0985C28.834 22.4907 29.1598 24.3945 29.6605 26.3528C30.1707 28.3484 30.8994 30.5353 31.6386 32.5534C32.1898 34.0581 32.7501 35.4779 33.2362 36.6673C32.1888 35.9235 30.9339 35.0551 29.5943 34.1762C27.7974 32.9972 25.8337 31.7899 24.0065 30.8387C22.2132 29.9052 20.4335 29.1543 19.0411 28.9927C17.6481 28.8311 15.7436 29.1565 13.7847 29.6568C11.7885 30.1666 9.60102 30.8953 7.58244 31.6345C6.07996 32.1847 4.66202 32.744 3.47365 33.2296C4.21739 32.1841 5.08519 30.9322 5.9632 29.5956C7.14323 27.7993 8.35134 25.8355 9.30229 24.007C10.2355 22.2125 10.9855 20.4299 11.1435 19.0325C11.3013 17.6373 10.9747 15.7325 10.4736 13.773C9.96303 11.7767 9.23456 9.59037 8.4959 7.57332C7.94594 6.07154 7.38702 4.65462 6.90197 3.46735C7.94911 4.21137 9.20362 5.08005 10.5427 5.95912C12.3394 7.1386 14.3028 8.34635 16.1297 9.29766C17.9225 10.2312 19.7021 10.9822 21.0943 11.1429Z" stroke="black" stroke-width="2"/>
</svg>
