<svg width="80" height="80" viewBox="0 0 80 80" fill="none" xmlns="http://www.w3.org/2000/svg">
<path d="M43.9172 6C33.0717 6 23.4727 11.3825 17.6625 19.5964C18.865 20.3763 20.0371 21.4458 21.1707 22.8206C25.5053 16.3773 32.5139 11.8566 40.623 10.8848L43.9167 16.4259L47.2105 10.8847C59.6754 12.3781 69.5834 22.2276 71.0864 34.6195L65.5117 37.8945L71.0865 41.1695C70.0818 49.4544 65.3091 56.5871 58.5381 60.862C58.9694 61.8395 59.2124 62.8389 59.2553 63.8693C59.2869 64.6223 59.2088 65.3337 59.0518 66.0092C69.1305 60.6253 76 50.0442 76 37.895C76 20.3076 61.6081 6 43.9172 6ZM52.1044 58.528C44.7085 52.6189 42.6404 55.5236 39.2846 58.8593C36.9418 61.1892 31.0131 56.3238 25.8939 51.2344C20.7744 46.1442 15.8813 40.2512 18.2239 37.9217C21.5799 34.5859 24.5008 32.5287 18.5553 25.1781C12.6118 17.8249 8.64966 23.4702 5.39896 26.7021C1.64602 30.4318 5.20119 44.3308 19.0188 58.0697C32.8384 71.8067 46.8191 75.3387 50.5698 71.6104C53.8201 68.3784 59.5004 64.4399 52.1044 58.528ZM29.5795 42.8865C29.5795 36.3508 37.276 35.1865 37.276 32.6361C37.276 31.3986 36.2795 30.879 35.3579 30.879C33.6641 30.879 32.7186 32.7601 32.7186 32.7601L29.4808 30.6063C29.4808 30.6063 31.1247 26.7935 35.7568 26.7935C38.6705 26.7935 41.8333 28.4525 41.8333 32.2157C41.8333 37.737 34.6606 38.802 34.5359 41.0798H42.1077V44.7934H29.7792C29.6544 44.1003 29.5795 43.4817 29.5795 42.8865ZM43.9284 37.8859L50.803 27.0901H56.1325V36.9201H58.2491V40.5096H56.1325V44.7936H51.8233V40.5096H43.9285V37.8859H43.9284ZM51.8232 36.92V32.9585C51.8232 31.9926 51.9728 30.9772 51.9728 30.9772H51.923C51.923 30.9772 51.5499 32.067 51.0512 32.8098L48.3621 36.8706V36.9202L51.8232 36.92Z" fill="black"/>
<path d="M43.9172 6C33.0717 6 23.4727 11.3825 17.6625 19.5964C18.865 20.3763 20.0371 21.4458 21.1707 22.8206C25.5053 16.3773 32.5139 11.8566 40.623 10.8848L43.9167 16.4259L47.2105 10.8847C59.6754 12.3781 69.5834 22.2276 71.0864 34.6195L65.5117 37.8945L71.0865 41.1695C70.0818 49.4544 65.3091 56.5871 58.5381 60.862C58.9694 61.8395 59.2124 62.8389 59.2553 63.8693C59.2869 64.6223 59.2088 65.3337 59.0518 66.0092C69.1305 60.6253 76 50.0442 76 37.895C76 20.3076 61.6081 6 43.9172 6ZM52.1044 58.528C44.7085 52.6189 42.6404 55.5236 39.2846 58.8593C36.9418 61.1892 31.0131 56.3238 25.8939 51.2344C20.7744 46.1442 15.8813 40.2512 18.2239 37.9217C21.5799 34.5859 24.5008 32.5287 18.5553 25.1781C12.6118 17.8249 8.64966 23.4702 5.39896 26.7021C1.64602 30.4318 5.20119 44.3308 19.0188 58.0697C32.8384 71.8067 46.8191 75.3387 50.5698 71.6104C53.8201 68.3784 59.5004 64.4399 52.1044 58.528ZM29.5795 42.8865C29.5795 36.3508 37.276 35.1865 37.276 32.6361C37.276 31.3986 36.2795 30.879 35.3579 30.879C33.6641 30.879 32.7186 32.7601 32.7186 32.7601L29.4808 30.6063C29.4808 30.6063 31.1247 26.7935 35.7568 26.7935C38.6705 26.7935 41.8333 28.4525 41.8333 32.2157C41.8333 37.737 34.6606 38.802 34.5359 41.0798H42.1077V44.7934H29.7792C29.6544 44.1003 29.5795 43.4817 29.5795 42.8865ZM43.9284 37.8859L50.803 27.0901H56.1325V36.9201H58.2491V40.5096H56.1325V44.7936H51.8233V40.5096H43.9285V37.8859H43.9284ZM51.8232 36.92V32.9585C51.8232 31.9926 51.9728 30.9772 51.9728 30.9772H51.923C51.923 30.9772 51.5499 32.067 51.0512 32.8098L48.3621 36.8706V36.9202L51.8232 36.92Z" fill="#151516"/>
<rect x="27" y="23" width="33" height="26" fill="white"/>
<path d="M33.5703 34.0078H29.9492V33.7852C29.9492 30.9492 32.3164 28.7227 35.8203 28.7227C39.207 28.7227 41.457 30.5859 41.457 33.2578C41.457 35.0742 40.6016 36.3047 38.5977 38.3789L35.4219 41.8008V41.9297H41.7383V45H30.207V42.6094L35.9023 36.6914C37.0273 35.543 37.6484 34.6875 37.6484 33.6445C37.6484 32.4961 36.8047 31.7344 35.6328 31.7344C34.4023 31.7344 33.5703 32.6484 33.5703 33.7617V34.0078ZM48.793 29.0039H54.2773V39.2344H56.1523V42.2695H54.2773V45H50.668V42.2695H42.957V39.1992C44.7383 35.7539 46.7773 32.332 48.793 29.0039ZM46.332 39.2344H50.668V31.7812H50.5156C49.0508 34.1484 47.6094 36.6211 46.332 39.1875V39.2344Z" fill="#407BFF"/>
</svg>
