<svg width="351" height="469" viewBox="0 0 351 469" fill="none" xmlns="http://www.w3.org/2000/svg">
<mask id="mask0_1_250" style="mask-type:luminance" maskUnits="userSpaceOnUse" x="47" y="47" width="375" height="375">
<path d="M178.651 55.6974C79.9844 86.4589 24.9363 191.381 55.6978 290.048C86.4593 388.715 191.382 443.763 290.049 413.002C388.715 382.24 443.763 277.318 413.002 178.651C382.24 79.9839 277.318 24.9359 178.651 55.6974Z" fill="white"/>
</mask>
<g mask="url(#mask0_1_250)">
<path d="M289.669 410.624C387.511 380.12 442.1 276.075 411.596 178.233C381.092 80.3912 277.047 25.8028 179.205 56.3066C81.3634 86.8104 26.7751 190.855 57.2789 288.697C87.7826 386.539 191.827 441.127 289.669 410.624Z" fill="#407BFF"/>
<path d="M66.9707 326.207C89.2989 319.246 96.8184 343.364 119.151 336.401C141.483 329.439 133.964 305.321 156.293 298.359C178.622 291.398 186.145 315.515 208.477 308.552C230.81 301.59 223.287 277.473 245.619 270.51C267.952 263.548 275.471 287.666 297.799 280.705C320.128 273.744 312.612 249.624 334.945 242.661C357.278 235.699 364.797 259.817 387.129 252.854C409.462 245.892 401.943 221.774 424.275 214.812" stroke="white" stroke-opacity="0.08" stroke-width="2" stroke-miterlimit="10"/>
<path d="M89.5176 398.525C111.846 391.564 119.365 415.682 141.698 408.719C164.03 401.757 156.511 377.639 178.84 370.678C201.168 363.717 208.691 387.834 231.024 380.871C253.357 373.908 245.833 349.792 268.166 342.829C290.498 335.866 298.017 359.985 320.346 353.023C342.674 346.062 335.159 321.943 357.492 314.98C379.825 308.017 387.344 332.136 409.676 325.173C432.009 318.21 424.49 294.093 446.822 287.13" stroke="white" stroke-opacity="0.08" stroke-width="2" stroke-miterlimit="10"/>
<path d="M44.4258 253.889C66.7541 246.927 74.2736 271.045 96.6061 264.083C118.939 257.12 111.419 233.002 133.748 226.041C156.077 219.08 163.599 243.196 185.932 236.234C208.265 229.272 200.742 205.154 223.074 198.192C245.407 191.23 252.926 215.347 275.255 208.386C297.583 201.425 290.068 177.305 312.401 170.343C334.733 163.381 342.252 187.498 364.585 180.536C386.917 173.574 379.398 149.456 401.731 142.493" stroke="white" stroke-opacity="0.08" stroke-width="2" stroke-miterlimit="10"/>
<path d="M10.6055 145.411C32.934 138.45 40.4532 162.568 62.7856 155.605C85.1181 148.643 77.5991 124.525 99.9279 117.563C122.256 110.602 129.779 134.719 152.112 127.756C174.444 120.794 166.921 96.6772 189.254 89.7143C211.586 82.752 219.106 106.87 241.434 99.9089C263.763 92.9477 256.248 68.8284 278.58 61.8655C300.913 54.9031 308.432 79.0214 330.765 72.059C353.097 65.0961 345.578 40.9781 367.91 34.0156" stroke="white" stroke-opacity="0.08" stroke-width="2" stroke-miterlimit="10"/>
<path d="M100.791 434.685C123.12 427.724 130.639 451.842 152.971 444.879C175.304 437.917 167.785 413.799 190.113 406.837C212.442 399.876 219.965 423.993 242.297 417.03C264.63 410.068 257.107 385.951 279.439 378.988C301.772 372.026 309.291 396.144 331.619 389.183C353.948 382.222 346.433 358.102 368.765 351.14C391.098 344.177 398.617 368.295 420.95 361.333C443.283 354.37 435.763 330.252 458.096 323.29" stroke="white" stroke-opacity="0.08" stroke-width="2" stroke-miterlimit="10"/>
<path d="M55.6973 290.048C78.026 283.087 85.545 307.205 107.878 300.242C130.21 293.28 122.691 269.162 145.019 262.201C167.348 255.239 174.871 279.356 197.204 272.394C219.536 265.431 212.013 241.314 234.346 234.352C256.678 227.389 264.198 251.507 286.526 244.546C308.855 237.584 301.339 213.465 323.672 206.503C346.004 199.54 353.524 223.658 375.857 216.696C398.189 209.733 390.67 185.615 413.002 178.653" stroke="white" stroke-opacity="0.08" stroke-width="2" stroke-miterlimit="10"/>
<path d="M21.8789 181.57C44.2074 174.609 51.7266 198.727 74.0593 191.764C96.3918 184.802 88.8723 160.684 111.201 153.723C133.53 146.761 141.053 170.878 163.386 163.916C185.718 156.953 178.195 132.837 200.527 125.874C222.86 118.911 230.379 143.03 252.708 136.068C275.036 129.107 267.521 104.988 289.854 98.0248C312.186 91.0624 319.705 115.181 342.038 108.218C364.37 101.255 356.851 77.1372 379.184 70.1748" stroke="white" stroke-opacity="0.08" stroke-width="2" stroke-miterlimit="10"/>
<path d="M78.2441 362.367C100.573 355.405 108.092 379.523 130.424 372.561C152.757 365.598 145.238 341.48 167.566 334.519C189.895 327.558 197.418 351.674 219.751 344.712C242.083 337.75 234.56 313.632 256.893 306.67C279.225 299.708 286.745 323.826 309.073 316.865C331.402 309.903 323.886 285.784 346.219 278.821C368.551 271.859 376.071 295.977 398.403 289.014C420.736 282.052 413.216 257.934 435.549 250.971" stroke="white" stroke-opacity="0.08" stroke-width="2" stroke-miterlimit="10"/>
<path d="M33.1523 217.73C55.481 210.768 62.9999 234.886 85.3324 227.924C107.665 220.961 100.146 196.844 122.474 189.882C144.803 182.921 152.326 207.038 174.659 200.075C196.991 193.112 189.468 168.996 211.801 162.033C234.133 155.07 241.653 179.189 263.981 172.227C286.31 165.266 278.794 141.147 301.127 134.184C323.459 127.222 330.979 151.34 353.311 144.377C375.644 137.415 368.124 113.297 390.457 106.334" stroke="white" stroke-opacity="0.08" stroke-width="2" stroke-miterlimit="10"/>
<path d="M-0.667969 109.252C21.6606 102.291 29.1797 126.408 51.5123 119.446C73.8449 112.484 66.3254 88.3655 88.6542 81.4043C110.983 74.443 118.506 98.5596 140.839 91.5973C163.171 84.6349 155.648 60.5177 177.981 53.5554C200.313 46.5929 207.832 70.7107 230.161 63.7495C252.489 56.7882 244.974 32.6691 267.307 25.7066C289.639 18.744 297.158 42.8621 319.491 35.8996C341.823 28.937 334.304 4.81897 356.637 -2.14355" stroke="white" stroke-opacity="0.08" stroke-width="2" stroke-miterlimit="10"/>
<path d="M63.2168 314.166C85.5456 307.205 93.0645 331.323 115.397 324.36C137.73 317.398 130.211 293.28 152.539 286.318C174.868 279.357 182.391 303.474 204.723 296.511C227.056 289.549 219.533 265.432 241.865 258.469C264.198 251.507 271.717 275.625 294.045 268.664C316.374 261.703 308.859 237.583 331.191 230.62C353.524 223.658 361.043 247.776 383.376 240.813C405.709 233.851 398.189 209.733 420.522 202.771" stroke="white" stroke-opacity="0.08" stroke-width="2" stroke-miterlimit="10"/>
<path d="M85.7635 386.484C108.092 379.523 115.611 403.641 137.944 396.678C160.277 389.716 152.757 365.598 175.086 358.637C197.414 351.676 204.938 375.792 227.27 368.83C249.603 361.867 242.079 337.751 264.412 330.788C286.745 323.825 294.264 347.944 316.592 340.982C338.921 334.021 331.406 309.902 353.738 302.939C376.071 295.976 383.59 320.095 405.923 313.132C428.255 306.169 420.736 282.052 443.069 275.089" stroke="white" stroke-opacity="0.08" stroke-width="2" stroke-miterlimit="10"/>
<path d="M40.6699 241.848C62.9985 234.886 70.5174 259.005 92.85 252.042C115.183 245.079 107.664 220.961 129.992 214C152.321 207.039 159.844 231.156 182.176 224.193C204.509 217.231 196.986 193.114 219.318 186.152C241.651 179.189 249.17 203.307 271.498 196.346C293.827 189.384 286.312 165.265 308.644 158.303C330.977 151.34 338.496 175.458 360.829 168.496C383.161 161.533 375.642 137.415 397.975 130.452" stroke="white" stroke-opacity="0.08" stroke-width="2" stroke-miterlimit="10"/>
<path d="M6.85132 133.37C29.1799 126.408 36.6991 150.527 59.0316 143.564C81.3642 136.601 73.8452 112.483 96.1734 105.522C118.502 98.5606 126.025 122.678 148.358 115.715C170.69 108.752 163.167 84.6358 185.5 77.673C207.832 70.7106 215.351 94.8289 237.68 87.8676C260.009 80.9063 252.494 56.787 274.826 49.8243C297.159 42.8618 304.678 66.98 327.01 60.0176C349.343 53.0548 341.824 28.9368 364.156 21.9742" stroke="white" stroke-opacity="0.08" stroke-width="2" stroke-miterlimit="10"/>
<path d="M97.0372 422.644C119.365 415.683 126.885 439.801 149.217 432.838C171.55 425.876 164.031 401.757 186.359 394.796C208.688 387.835 216.211 411.952 238.544 404.989C260.876 398.027 253.353 373.91 275.686 366.947C298.018 359.985 305.537 384.103 327.866 377.142C350.195 370.18 342.679 346.061 365.012 339.098C387.344 332.136 394.863 356.254 417.196 349.292C439.528 342.329 432.01 318.211 454.342 311.248" stroke="white" stroke-opacity="0.08" stroke-width="2" stroke-miterlimit="10"/>
<path d="M51.9434 278.006C74.2717 271.045 81.7912 295.163 104.124 288.201C126.456 281.239 118.937 257.12 141.265 250.159C163.594 243.198 171.117 267.314 193.45 260.352C215.783 253.39 208.259 229.273 230.592 222.31C252.924 215.348 260.443 239.466 282.772 232.504C305.101 225.543 297.586 201.424 319.918 194.461C342.251 187.499 349.77 211.617 372.102 204.654C394.435 197.692 386.916 173.574 409.248 166.611" stroke="white" stroke-opacity="0.08" stroke-width="2" stroke-miterlimit="10"/>
<path d="M18.125 169.529C40.4536 162.568 47.9727 186.686 70.305 179.723C92.6381 172.761 85.1186 148.643 107.447 141.681C129.776 134.72 137.299 158.837 159.631 151.875C181.964 144.912 174.441 120.796 196.773 113.833C219.106 106.87 226.625 130.989 248.953 124.027C271.282 117.066 263.767 92.9466 286.1 85.9837C308.432 79.0214 315.952 103.14 338.284 96.1767C360.617 89.2144 353.097 65.0961 375.43 58.1338" stroke="white" stroke-opacity="0.08" stroke-width="2" stroke-miterlimit="10"/>
<path d="M74.4902 350.326C96.8185 343.364 104.338 367.482 126.67 360.52C149.003 353.557 141.484 329.439 163.812 322.478C186.141 315.517 193.664 339.633 215.997 332.671C238.329 325.709 230.806 301.592 253.139 294.629C275.471 287.667 282.99 311.785 305.319 304.824C327.648 297.862 320.132 273.743 342.465 266.78C364.797 259.818 372.316 283.936 394.649 276.973C416.981 270.011 409.463 245.893 431.795 238.93" stroke="white" stroke-opacity="0.08" stroke-width="2" stroke-miterlimit="10"/>
<path d="M29.3984 205.688C51.727 198.727 59.2462 222.845 81.5788 215.883C103.911 208.92 96.3923 184.802 118.721 177.841C141.049 170.879 148.573 194.996 170.905 188.034C193.238 181.071 185.714 156.954 208.047 149.992C230.379 143.029 237.898 167.147 260.227 160.186C282.556 153.225 275.041 129.105 297.373 122.143C319.706 115.18 327.225 139.298 349.557 132.336C371.89 125.373 364.371 101.255 386.703 94.2925" stroke="white" stroke-opacity="0.08" stroke-width="2" stroke-miterlimit="10"/>
<path d="M-4.422 97.2108C17.9065 90.2495 25.4257 114.367 47.7583 107.405C70.0911 100.443 62.5716 76.3243 84.9004 69.363C107.229 62.4017 114.752 86.5184 137.084 79.556C159.417 72.5936 151.894 48.4767 174.226 41.5141C196.559 34.5516 204.078 58.6695 226.406 51.7084C248.735 44.7472 241.22 20.6278 263.553 13.6653C285.885 6.70278 293.405 30.8209 315.737 23.8583C338.07 16.8958 330.55 -7.2223 352.883 -14.1848" stroke="white" stroke-opacity="0.08" stroke-width="2" stroke-miterlimit="10"/>
<path d="M108.31 458.803C130.639 451.841 138.158 475.96 160.491 468.997C182.824 462.034 175.304 437.917 197.633 430.955C219.961 423.994 227.484 448.111 249.817 441.148C272.149 434.186 264.626 410.069 286.959 403.107C309.291 396.144 316.811 420.262 339.139 413.301C361.468 406.339 353.953 382.22 376.285 375.258C398.618 368.295 406.137 392.413 428.47 385.451C450.802 378.488 443.283 354.37 465.616 347.408" stroke="white" stroke-opacity="0.08" stroke-width="2" stroke-miterlimit="10"/>
<path d="M63.2168 314.166C85.5456 307.205 93.0645 331.323 115.397 324.36C137.73 317.398 130.211 293.28 152.539 286.318C174.868 279.357 182.391 303.474 204.723 296.511C227.056 289.549 219.533 265.432 241.865 258.469C264.198 251.507 271.717 275.625 294.045 268.664C316.374 261.703 308.859 237.583 331.191 230.62C353.524 223.658 361.043 247.776 383.376 240.813C405.709 233.851 398.189 209.733 420.522 202.771" stroke="white" stroke-opacity="0.08" stroke-width="2" stroke-miterlimit="10"/>
<path d="M85.7635 386.484C108.092 379.523 115.611 403.641 137.944 396.678C160.277 389.716 152.757 365.598 175.086 358.637C197.414 351.676 204.938 375.792 227.27 368.83C249.603 361.867 242.079 337.751 264.412 330.788C286.745 323.825 294.264 347.944 316.592 340.982C338.921 334.021 331.406 309.902 353.738 302.939C376.071 295.976 383.59 320.095 405.923 313.132C428.255 306.169 420.736 282.052 443.069 275.089" stroke="white" stroke-opacity="0.08" stroke-width="2" stroke-miterlimit="10"/>
<path d="M40.6699 241.848C62.9985 234.886 70.5174 259.005 92.85 252.042C115.183 245.079 107.664 220.961 129.992 214C152.321 207.039 159.844 231.156 182.176 224.193C204.509 217.231 196.986 193.114 219.318 186.152C241.651 179.189 249.17 203.307 271.498 196.346C293.827 189.384 286.312 165.265 308.644 158.303C330.977 151.34 338.496 175.458 360.829 168.496C383.161 161.533 375.642 137.415 397.975 130.452" stroke="white" stroke-opacity="0.08" stroke-width="2" stroke-miterlimit="10"/>
<path d="M6.85132 133.37C29.1799 126.408 36.6991 150.527 59.0316 143.564C81.3642 136.601 73.8452 112.483 96.1734 105.522C118.502 98.5606 126.025 122.678 148.358 115.715C170.69 108.752 163.167 84.6358 185.5 77.673C207.832 70.7106 215.351 94.8289 237.68 87.8676C260.009 80.9063 252.494 56.787 274.826 49.8243C297.159 42.8618 304.678 66.98 327.01 60.0176C349.343 53.0548 341.824 28.9368 364.156 21.9742" stroke="white" stroke-opacity="0.08" stroke-width="2" stroke-miterlimit="10"/>
<path d="M97.0372 422.644C119.365 415.683 126.885 439.801 149.217 432.838C171.55 425.876 164.031 401.757 186.359 394.796C208.688 387.835 216.211 411.952 238.544 404.989C260.876 398.027 253.353 373.91 275.686 366.947C298.018 359.985 305.537 384.103 327.866 377.142C350.195 370.18 342.679 346.061 365.012 339.098C387.344 332.136 394.863 356.254 417.196 349.292C439.528 342.329 432.01 318.211 454.342 311.248" stroke="white" stroke-opacity="0.08" stroke-width="2" stroke-miterlimit="10"/>
<path d="M51.9434 278.006C74.2717 271.045 81.7912 295.163 104.124 288.201C126.456 281.239 118.937 257.12 141.265 250.159C163.594 243.198 171.117 267.314 193.45 260.352C215.783 253.39 208.259 229.273 230.592 222.31C252.924 215.348 260.443 239.466 282.772 232.504C305.101 225.543 297.586 201.424 319.918 194.461C342.251 187.499 349.77 211.617 372.102 204.654C394.435 197.692 386.916 173.574 409.248 166.611" stroke="white" stroke-opacity="0.08" stroke-width="2" stroke-miterlimit="10"/>
<path d="M18.125 169.529C40.4536 162.568 47.9727 186.686 70.305 179.723C92.6381 172.761 85.1186 148.643 107.447 141.681C129.776 134.72 137.299 158.837 159.631 151.875C181.964 144.912 174.441 120.796 196.773 113.833C219.106 106.87 226.625 130.989 248.953 124.027C271.282 117.066 263.767 92.9466 286.1 85.9837C308.432 79.0214 315.952 103.14 338.284 96.1767C360.617 89.2144 353.097 65.0961 375.43 58.1338" stroke="white" stroke-opacity="0.08" stroke-width="2" stroke-miterlimit="10"/>
<path d="M74.4902 350.326C96.8185 343.364 104.338 367.482 126.67 360.52C149.003 353.557 141.484 329.439 163.812 322.478C186.141 315.517 193.664 339.633 215.997 332.671C238.329 325.709 230.806 301.592 253.139 294.629C275.471 287.667 282.99 311.785 305.319 304.824C327.648 297.862 320.132 273.743 342.465 266.78C364.797 259.818 372.316 283.936 394.649 276.973C416.981 270.011 409.463 245.893 431.795 238.93" stroke="white" stroke-opacity="0.08" stroke-width="2" stroke-miterlimit="10"/>
<path d="M29.3984 205.688C51.727 198.727 59.2462 222.845 81.5788 215.883C103.911 208.92 96.3923 184.802 118.721 177.841C141.049 170.879 148.573 194.996 170.905 188.034C193.238 181.071 185.714 156.954 208.047 149.992C230.379 143.029 237.898 167.147 260.227 160.186C282.556 153.225 275.041 129.105 297.373 122.143C319.706 115.18 327.225 139.298 349.557 132.336C371.89 125.373 364.371 101.255 386.703 94.2925" stroke="white" stroke-opacity="0.08" stroke-width="2" stroke-miterlimit="10"/>
<path d="M-4.422 97.2108C17.9065 90.2495 25.4257 114.367 47.7583 107.405C70.0911 100.443 62.5716 76.3243 84.9004 69.363C107.229 62.4017 114.752 86.5184 137.084 79.556C159.417 72.5936 151.894 48.4767 174.226 41.5141C196.559 34.5516 204.078 58.6695 226.406 51.7084C248.735 44.7472 241.22 20.6278 263.553 13.6653C285.885 6.70278 293.405 30.8209 315.737 23.8583C338.07 16.8958 330.55 -7.2223 352.883 -14.1848" stroke="white" stroke-opacity="0.08" stroke-width="2" stroke-miterlimit="10"/>
<path d="M104.557 446.762C126.885 439.8 134.404 463.919 156.737 456.956C179.069 449.993 171.55 425.876 193.879 418.914C216.207 411.953 223.731 436.07 246.063 429.107C268.396 422.145 260.873 398.028 283.205 391.066C305.538 384.103 313.057 408.221 335.385 401.26C357.714 394.298 350.199 370.179 372.531 363.217C394.864 356.254 402.383 380.372 424.715 373.41C447.048 366.447 439.529 342.329 461.861 335.367" stroke="white" stroke-opacity="0.08" stroke-width="2" stroke-miterlimit="10"/>
<path d="M59.4629 302.125C81.7917 295.164 89.3106 319.282 111.643 312.32C133.976 305.357 126.457 281.239 148.785 274.278C171.114 267.316 178.637 291.433 200.969 284.471C223.302 277.508 215.779 253.391 238.111 246.429C260.444 239.466 267.963 263.584 290.292 256.623C312.62 249.662 305.105 225.542 327.438 218.58C349.77 211.618 357.289 235.735 379.622 228.773C401.955 221.811 394.435 197.692 416.768 190.73" stroke="white" stroke-opacity="0.08" stroke-width="2" stroke-miterlimit="10"/>
<path d="M82.0098 374.443C104.339 367.482 111.858 391.6 134.19 384.637C156.523 377.675 149.004 353.557 171.332 346.596C193.661 339.635 201.184 363.751 223.516 356.789C245.849 349.826 238.326 325.71 260.658 318.747C282.991 311.784 290.51 335.903 312.838 328.941C335.167 321.98 327.652 297.861 349.984 290.898C372.317 283.935 379.836 308.054 402.168 301.091C424.502 294.128 416.982 270.011 439.315 263.048" stroke="white" stroke-opacity="0.08" stroke-width="2" stroke-miterlimit="10"/>
<path d="M36.918 229.806C59.2467 222.845 66.7657 246.963 89.0982 240C111.431 233.038 103.912 208.92 126.24 201.958C148.569 194.998 156.092 219.114 178.424 212.152C200.757 205.189 193.234 181.072 215.566 174.11C237.899 167.147 245.418 191.265 267.747 184.304C290.075 177.343 282.56 153.223 304.893 146.261C327.225 139.298 334.744 163.416 357.077 156.454C379.41 149.491 371.89 125.374 394.223 118.411" stroke="white" stroke-opacity="0.08" stroke-width="2" stroke-miterlimit="10"/>
<path d="M3.09753 121.329C25.4261 114.367 32.9453 138.485 55.278 131.523C77.6105 124.56 70.091 100.442 92.4198 93.4807C114.748 86.5194 122.271 110.637 144.604 103.674C166.936 96.7113 159.414 72.5947 181.746 65.6318C204.079 58.6695 211.598 82.7877 233.926 75.8264C256.255 68.8651 248.739 44.7457 271.072 37.7832C293.405 30.8207 300.924 54.9388 323.257 47.9762C345.589 41.0137 338.07 16.8956 360.403 9.93311" stroke="white" stroke-opacity="0.08" stroke-width="2" stroke-miterlimit="10"/>
<path d="M93.2831 410.603C115.611 403.641 123.131 427.76 145.463 420.797C167.796 413.834 160.276 389.716 182.605 382.755C204.933 375.794 212.457 399.911 234.789 392.948C257.122 385.986 249.599 361.869 271.931 354.906C294.264 347.944 301.783 372.062 324.112 365.101C346.44 358.139 338.925 334.02 361.257 327.057C383.59 320.095 391.109 344.213 413.442 337.251C435.774 330.288 428.255 306.17 450.588 299.207" stroke="white" stroke-opacity="0.08" stroke-width="2" stroke-miterlimit="10"/>
<path d="M48.1895 265.965C70.5179 259.004 78.0374 283.122 100.37 276.16C122.702 269.198 115.183 245.079 137.512 238.118C159.84 231.157 167.363 255.273 189.696 248.311C212.029 241.349 204.506 217.231 226.838 210.269C249.171 203.307 256.69 227.424 279.018 220.463C301.347 213.502 293.831 189.383 316.164 182.42C338.496 175.458 346.016 199.576 368.348 192.613C390.681 185.651 383.162 161.533 405.494 154.57" stroke="white" stroke-opacity="0.08" stroke-width="2" stroke-miterlimit="10"/>
<path d="M14.3711 157.488C36.6996 150.526 44.2188 174.645 66.5513 167.682C88.8838 160.719 81.3649 136.601 103.693 129.64C126.022 122.679 133.545 146.796 155.878 139.833C178.21 132.871 170.687 108.754 193.019 101.791C215.352 94.8287 222.871 118.947 245.2 111.986C267.528 105.024 260.013 80.9051 282.346 73.9422C304.678 66.9798 312.197 91.0981 334.53 84.1352C356.863 77.1728 349.343 53.0548 371.676 46.0923" stroke="white" stroke-opacity="0.08" stroke-width="2" stroke-miterlimit="10"/>
<path d="M70.7363 338.284C93.0646 331.323 100.584 355.441 122.917 348.478C145.249 341.516 137.73 317.398 160.058 310.436C182.387 303.475 189.91 327.592 212.242 320.629C234.575 313.667 227.052 289.55 249.385 282.587C271.717 275.625 279.236 299.743 301.565 292.782C323.893 285.821 316.378 261.702 338.71 254.739C361.043 247.776 368.563 271.895 390.895 264.932C413.228 257.969 405.709 233.851 428.041 226.889" stroke="white" stroke-opacity="0.08" stroke-width="2" stroke-miterlimit="10"/>
<path d="M25.6445 193.647C47.973 186.686 55.4925 210.804 77.825 203.842C100.158 196.879 92.638 172.761 114.967 165.8C137.295 158.838 144.818 182.955 167.151 175.993C189.483 169.03 181.961 144.913 204.293 137.951C226.626 130.988 234.145 155.106 256.473 148.145C278.802 141.184 271.286 117.064 293.619 110.102C315.952 103.139 323.471 127.257 345.804 120.295C368.136 113.332 360.617 89.2144 382.95 82.2515" stroke="white" stroke-opacity="0.08" stroke-width="2" stroke-miterlimit="10"/>
<path d="M-8.17578 85.1695C14.1527 78.2083 21.672 102.326 44.0045 95.3636C66.3369 88.4013 58.818 64.283 81.1462 57.3217C103.475 50.3604 110.998 74.4771 133.331 67.5147C155.663 60.5524 148.14 36.4354 170.473 29.4729C192.805 22.5103 200.325 46.6284 222.653 39.6671C244.982 32.7059 237.466 8.58654 259.799 1.62403C282.131 -5.33849 289.65 18.7796 311.983 11.817C334.316 4.85453 326.796 -19.2636 349.129 -26.2261" stroke="white" stroke-opacity="0.08" stroke-width="2" stroke-miterlimit="10"/>
<path d="M112.064 470.844C134.393 463.883 141.912 488.001 164.245 481.039C186.577 474.076 179.058 449.958 201.387 442.997C223.715 436.035 231.238 460.152 253.571 453.19C275.904 446.227 268.38 422.11 290.713 415.148C313.045 408.185 320.564 432.303 342.893 425.342C365.221 418.381 357.706 394.261 380.039 387.299C402.372 380.337 409.891 404.454 432.223 397.492C454.556 390.53 447.037 366.411 469.369 359.449" stroke="white" stroke-opacity="0.08" stroke-width="2" stroke-miterlimit="10"/>
<path d="M108.31 458.803C130.639 451.841 138.158 475.96 160.491 468.997C182.824 462.034 175.304 437.917 197.633 430.955C219.961 423.994 227.484 448.111 249.817 441.148C272.149 434.186 264.626 410.069 286.959 403.107C309.291 396.144 316.811 420.262 339.139 413.301C361.468 406.339 353.953 382.22 376.285 375.258C398.618 368.295 406.137 392.413 428.47 385.451C450.802 378.488 443.283 354.37 465.616 347.408" stroke="white" stroke-opacity="0.08" stroke-width="2" stroke-miterlimit="10"/>
</g>
</svg>
