<svg width="80" height="80" viewBox="0 0 80 80" fill="none" xmlns="http://www.w3.org/2000/svg">
<path d="M39.9427 7C32.7234 7 26.8516 12.8734 26.8516 20.0928V26.8758C26.8516 34.0957 32.7234 39.9691 39.9427 39.9691C47.1626 39.9691 53.0339 34.0957 53.0339 26.8758V20.0928C53.034 12.8734 47.1626 7 39.9427 7Z" fill="black"/>
<path d="M39.9427 7C32.7234 7 26.8516 12.8734 26.8516 20.0928V26.8758C26.8516 34.0957 32.7234 39.9691 39.9427 39.9691C47.1626 39.9691 53.0339 34.0957 53.0339 26.8758V20.0928C53.034 12.8734 47.1626 7 39.9427 7Z" fill="#151516"/>
<path d="M68.8137 57.0299C64.6217 49.8862 57.9212 44.59 49.9467 42.1169C49.7617 42.0595 49.5618 42.1083 49.4241 42.2445C45.7144 45.9021 41.1049 48.7557 39.9525 49.445C38.7224 48.6587 33.5409 45.2814 30.4605 42.2445C30.3233 42.1083 30.1218 42.0595 29.9379 42.1169C21.9623 44.5905 15.2624 49.8867 11.072 57.0304C10.976 57.1939 10.976 57.3971 11.072 57.5605C17.0226 67.7005 28.085 73.9995 39.9423 73.9995C51.8001 73.9995 62.8631 67.7005 68.8137 57.5605C68.9102 57.3965 68.9102 57.1934 68.8137 57.0299ZM57.7475 60.9352C57.7475 61.2241 57.4726 61.4449 57.1842 61.4449H53.6386C53.3497 61.4449 53.0345 61.6931 53.0345 61.9825V65.6492C53.0345 65.9376 52.8802 66.1579 52.5913 66.1579H49.4069C49.118 66.1579 48.8457 65.9376 48.8457 65.6492V61.9825C48.8447 61.6936 48.6474 61.4449 48.3585 61.4449H44.6601C44.3712 61.4449 44.1322 61.2235 44.1322 60.9352V57.7782C44.1322 57.4892 44.3712 57.2561 44.6601 57.2561H48.3585C48.6474 57.2561 48.8447 57.0203 48.8447 56.7308V53.0598C48.8447 52.7709 49.1169 52.5431 49.4058 52.5431H52.5559C52.8442 52.5431 53.034 52.7709 53.034 53.0598V56.7415C53.034 57.031 53.3138 57.2556 53.6032 57.2556H57.1842C57.4726 57.2556 57.7475 57.5 57.7475 57.7889V60.9352Z" fill="#407BFF"/>
</svg>
