<svg width="80" height="80" viewBox="0 0 80 80" fill="none" xmlns="http://www.w3.org/2000/svg">
<path d="M20.9071 38C21.423 37.9994 21.9126 37.7726 22.2452 37.3797C22.5778 36.9868 22.7194 36.4674 22.6329 35.9608L21.7549 30.8623L25.4699 27.251C25.9473 26.7885 26.1204 26.0953 25.9147 25.4641C25.7096 24.8323 25.1617 24.3717 24.5029 24.2766L19.3659 23.5323L17.0685 18.8944C16.7416 18.3405 16.145 18 15.4997 18C14.855 18 14.2584 18.3405 13.9309 18.8944L11.6341 23.5317L6.49713 24.2759C5.83834 24.3711 5.29042 24.8317 5.08535 25.4629C4.87964 26.0947 5.05267 26.7878 5.53009 27.2503L9.24506 30.861L8.3671 35.9602C8.25432 36.6144 8.52475 37.2756 9.0637 37.6659C9.60265 38.0556 10.3165 38.1073 10.9061 37.7981L15.4997 35.3936L20.0932 37.7988C20.3444 37.931 20.6232 38 20.9071 38Z" fill="black"/>
<path d="M20.9071 38C21.423 37.9994 21.9126 37.7726 22.2452 37.3797C22.5778 36.9868 22.7194 36.4674 22.6329 35.9608L21.7549 30.8623L25.4699 27.251C25.9473 26.7885 26.1204 26.0953 25.9147 25.4641C25.7096 24.8323 25.1617 24.3717 24.5029 24.2766L19.3659 23.5323L17.0685 18.8944C16.7416 18.3405 16.145 18 15.4997 18C14.855 18 14.2584 18.3405 13.9309 18.8944L11.6341 23.5317L6.49713 24.2759C5.83834 24.3711 5.29042 24.8317 5.08535 25.4629C4.87964 26.0947 5.05267 26.7878 5.53009 27.2503L9.24506 30.861L8.3671 35.9602C8.25432 36.6144 8.52475 37.2756 9.0637 37.6659C9.60265 38.0556 10.3165 38.1073 10.9061 37.7981L15.4997 35.3936L20.0932 37.7988C20.3444 37.931 20.6232 38 20.9071 38Z" fill="#151516"/>
<path d="M45.1494 38C45.6407 37.9994 46.107 37.7726 46.4237 37.3797C46.7405 36.9868 46.8753 36.4674 46.7936 35.9608L45.9568 30.8623L49.4948 27.251C49.9501 26.7885 50.1143 26.0953 49.919 25.4635C49.7231 24.8323 49.2013 24.3717 48.5739 24.2766L43.6816 23.5323L41.4942 18.8944C41.1829 18.3399 40.6141 18 40.0001 18C39.3856 18 38.8173 18.3399 38.5061 18.8944L36.3187 23.5317L31.4264 24.2759C30.7984 24.3711 30.2772 24.8317 30.0813 25.4629C29.8854 26.0947 30.0502 26.7878 30.5048 27.2503L34.0435 30.861L33.2067 35.9602C33.0999 36.6144 33.3569 37.2756 33.8701 37.6659C34.3834 38.0562 35.0639 38.1073 35.6254 37.7981L40.0001 35.3936L44.3749 37.7988C44.6135 37.931 44.8796 38 45.1494 38Z" fill="#407BFF"/>
<path d="M74.9145 25.4619C74.7082 24.8313 74.1615 24.3713 73.5027 24.2755L68.3656 23.5312L66.0688 18.8944C65.7419 18.3405 65.1453 18 64.4999 18C63.8552 18 63.258 18.3405 62.9311 18.8944L60.6343 23.5319L55.4972 24.2761C54.8384 24.3713 54.2904 24.832 54.0854 25.4631C53.8796 26.095 54.0527 26.7881 54.5301 27.2507L58.2452 30.8615L57.3672 35.9609C57.2544 36.6151 57.5248 37.2763 58.0638 37.6666C58.6028 38.0563 59.3167 38.1081 59.9063 37.7989L64.4999 35.3942L69.0936 37.7995C69.6832 38.1087 70.3978 38.057 70.9367 37.6673C71.4757 37.2769 71.7455 36.6157 71.6333 35.9615L70.7547 30.8628L74.4698 27.2513C74.9479 26.7881 75.1203 26.0937 74.9145 25.4619Z" fill="black"/>
<path d="M74.9145 25.4619C74.7082 24.8313 74.1615 24.3713 73.5027 24.2755L68.3656 23.5312L66.0688 18.8944C65.7419 18.3405 65.1453 18 64.4999 18C63.8552 18 63.258 18.3405 62.9311 18.8944L60.6343 23.5319L55.4972 24.2761C54.8384 24.3713 54.2904 24.832 54.0854 25.4631C53.8796 26.095 54.0527 26.7881 54.5301 27.2507L58.2452 30.8615L57.3672 35.9609C57.2544 36.6151 57.5248 37.2763 58.0638 37.6666C58.6028 38.0563 59.3167 38.1081 59.9063 37.7989L64.4999 35.3942L69.0936 37.7995C69.6832 38.1087 70.3978 38.057 70.9367 37.6673C71.4757 37.2769 71.7455 36.6157 71.6333 35.9615L70.7547 30.8628L74.4698 27.2513C74.9479 26.7881 75.1203 26.0937 74.9145 25.4619Z" fill="#151516"/>
<path d="M60.5744 48.2723L55.6813 47.5293L53.4938 42.8893C53.1807 42.3373 52.6131 42 51.9997 42C51.3869 42 50.8193 42.3373 50.5056 42.8893L48.3181 47.5293L43.4256 48.2723C42.7982 48.3687 42.2769 48.8294 42.081 49.4618C41.8857 50.0936 42.0499 50.7868 42.5046 51.25L46.0428 54.8614L45.2066 59.962C45.0998 60.6162 45.3573 61.2768 45.8706 61.6671C46.3839 62.0568 47.0639 62.108 47.6248 61.7987L51.9997 59.3903L56.3746 61.7987C56.6133 61.9316 56.8794 62.0013 57.1498 62C57.6405 61.9993 58.1062 61.7732 58.4229 61.3803C58.7397 60.9874 58.8752 60.4693 58.7934 59.9627L57.9572 54.8621L61.4954 51.2506C61.9501 50.7874 62.1143 50.0936 61.919 49.4618C61.7237 48.8294 61.2024 48.3687 60.5744 48.2723Z" fill="black"/>
<path d="M60.5744 48.2723L55.6813 47.5293L53.4938 42.8893C53.1807 42.3373 52.6131 42 51.9997 42C51.3869 42 50.8193 42.3373 50.5056 42.8893L48.3181 47.5293L43.4256 48.2723C42.7982 48.3687 42.2769 48.8294 42.081 49.4618C41.8857 50.0936 42.0499 50.7868 42.5046 51.25L46.0428 54.8614L45.2066 59.962C45.0998 60.6162 45.3573 61.2768 45.8706 61.6671C46.3839 62.0568 47.0639 62.108 47.6248 61.7987L51.9997 59.3903L56.3746 61.7987C56.6133 61.9316 56.8794 62.0013 57.1498 62C57.6405 61.9993 58.1062 61.7732 58.4229 61.3803C58.7397 60.9874 58.8752 60.4693 58.7934 59.9627L57.9572 54.8621L61.4954 51.2506C61.9501 50.7874 62.1143 50.0936 61.919 49.4618C61.7237 48.8294 61.2024 48.3687 60.5744 48.2723Z" fill="#151516"/>
<path d="M36.5738 48.2723L31.6813 47.5293L29.4938 42.8893C29.1801 42.3373 28.6125 42 27.9997 42C27.3869 42 26.8193 42.3373 26.5056 42.8893L24.3181 47.5293L19.4256 48.2723C18.7976 48.3687 18.2763 48.83 18.081 49.4618C17.8857 50.0936 18.0499 50.7868 18.5046 51.25L22.0428 54.8614L21.206 59.962C21.0998 60.6162 21.3567 61.2768 21.87 61.6671C22.3833 62.0568 23.0633 62.108 23.6248 61.7987L27.9997 59.3903L32.3746 61.7987C32.6133 61.9316 32.8794 62.0013 33.1492 62C33.6405 61.9993 34.1062 61.7732 34.4229 61.3803C34.7397 60.9874 34.8752 60.4693 34.7934 59.9627L33.9566 54.8621L37.4948 51.2506C37.9501 50.7874 38.1143 50.0936 37.919 49.4618C37.7231 48.8294 37.2018 48.3687 36.5738 48.2723Z" fill="black"/>
<path d="M36.5738 48.2723L31.6813 47.5293L29.4938 42.8893C29.1801 42.3373 28.6125 42 27.9997 42C27.3869 42 26.8193 42.3373 26.5056 42.8893L24.3181 47.5293L19.4256 48.2723C18.7976 48.3687 18.2763 48.83 18.081 49.4618C17.8857 50.0936 18.0499 50.7868 18.5046 51.25L22.0428 54.8614L21.206 59.962C21.0998 60.6162 21.3567 61.2768 21.87 61.6671C22.3833 62.0568 23.0633 62.108 23.6248 61.7987L27.9997 59.3903L32.3746 61.7987C32.6133 61.9316 32.8794 62.0013 33.1492 62C33.6405 61.9993 34.1062 61.7732 34.4229 61.3803C34.7397 60.9874 34.8752 60.4693 34.7934 59.9627L33.9566 54.8621L37.4948 51.2506C37.9501 50.7874 38.1143 50.0936 37.919 49.4618C37.7231 48.8294 37.2018 48.3687 36.5738 48.2723Z" fill="#151516"/>
</svg>
