<svg width="66" height="66" viewBox="0 0 66 66" fill="none" xmlns="http://www.w3.org/2000/svg">
<path d="M40.8029 24.3635L40.8049 24.3654C42.0973 25.5652 44.301 26.6789 46.7418 27.6696C49.2181 28.6748 52.067 29.6027 54.753 30.3915C57.2002 31.1101 59.5258 31.7171 61.333 32.1652C59.5609 32.7348 57.2827 33.4983 54.8911 34.3819C52.2657 35.3519 49.4874 36.4727 47.0863 37.6465C44.7197 38.8035 42.5978 40.0687 41.3919 41.3606C40.1859 42.6525 39.0697 44.8561 38.0784 47.2962C37.0727 49.7719 36.146 52.6202 35.3591 55.3056C34.6433 57.7485 34.0392 60.0702 33.5933 61.8759C33.024 60.1056 32.2616 57.8314 31.3793 55.4439C30.4093 52.8193 29.2887 50.0415 28.1149 47.6405C26.958 45.2739 25.693 43.1519 24.4015 41.9448C23.1096 40.7372 20.9057 39.6199 18.4652 38.6278C15.9891 37.6213 13.1403 36.694 10.4545 35.9068C8.01428 35.1915 5.69484 34.5879 3.88978 34.142C5.65952 33.5748 7.93122 32.8152 10.3158 31.9354C12.9411 30.9669 15.7197 29.8468 18.1213 28.6716C20.4885 27.5133 22.6114 26.2446 23.8186 24.9455C25.0244 23.648 26.1407 21.4425 27.1323 19.0009C28.1382 16.5241 29.0648 13.6766 29.8514 10.9928C30.5663 8.55382 31.1695 6.23633 31.615 4.43325C32.1838 6.20387 32.9456 8.47814 33.8272 10.8655C34.7965 13.4905 35.9166 16.2685 37.0898 18.6694C38.2462 21.0357 39.5111 23.1574 40.8029 24.3635Z" stroke="#151516" stroke-width="2"/>
</svg>
