<svg width="241" height="241" viewBox="0 0 241 241" fill="none" xmlns="http://www.w3.org/2000/svg">
<mask id="mask0_1_52" style="mask-type:luminance" maskUnits="userSpaceOnUse" x="24" y="24" width="193" height="193">
<path d="M91.7997 28.6204C41.0989 44.4275 12.8119 98.3428 28.619 149.044C44.426 199.745 98.3414 228.032 149.042 212.224C199.743 196.417 228.03 142.502 212.223 91.8011C196.416 41.1003 142.501 12.8133 91.7997 28.6204Z" fill="white"/>
</mask>
<g mask="url(#mask0_1_52)">
<path d="M148.848 211.002C199.125 195.327 227.176 141.863 211.501 91.586C195.827 41.3091 142.362 13.2584 92.0853 28.933C41.8083 44.6076 13.7576 98.072 29.4322 148.349C45.1069 198.626 98.5712 226.677 148.848 211.002Z" fill="#161617"/>
<path d="M34.4121 167.624C45.8857 164.047 49.7496 176.44 61.2254 172.862C72.7012 169.285 68.8372 156.891 80.3111 153.314C91.7849 149.737 95.6508 162.13 107.127 158.552C118.602 154.974 114.736 142.582 126.212 139.004C137.688 135.426 141.552 147.82 153.026 144.242C164.499 140.665 160.637 128.271 172.113 124.693C183.589 121.116 187.453 133.509 198.929 129.931C210.404 126.353 206.541 113.96 218.016 110.382" stroke="white" stroke-opacity="0.08" stroke-width="2" stroke-miterlimit="10"/>
<path d="M45.9978 204.786C57.4714 201.208 61.3353 213.602 72.8111 210.024C84.2869 206.446 80.4229 194.053 91.8968 190.476C103.371 186.899 107.236 199.291 118.712 195.714C130.188 192.136 126.322 179.743 137.798 176.166C149.274 172.588 153.137 184.981 164.611 181.404C176.085 177.827 172.223 165.433 183.699 161.855C195.175 158.277 199.039 170.671 210.514 167.093C221.99 163.515 218.126 151.122 229.602 147.544" stroke="white" stroke-opacity="0.08" stroke-width="2" stroke-miterlimit="10"/>
<path d="M22.8264 130.463C34.3 126.885 38.164 139.279 49.6398 135.701C61.1155 132.123 57.2516 119.73 68.7254 116.153C80.1993 112.576 84.0649 124.968 95.5409 121.39C107.017 117.813 103.151 105.42 114.627 101.842C126.102 98.2646 129.966 110.658 141.44 107.081C152.913 103.504 149.052 91.1096 160.528 87.5319C172.004 83.9542 175.867 96.3474 187.343 92.7697C198.819 89.192 194.955 76.7986 206.431 73.2209" stroke="white" stroke-opacity="0.08" stroke-width="2" stroke-miterlimit="10"/>
<path d="M5.44727 74.7201C16.921 71.143 20.7848 83.5363 32.2605 79.9584C43.7363 76.3807 39.8726 63.9873 51.3464 60.4102C62.82 56.8331 66.6859 69.2259 78.1617 65.648C89.6374 62.0703 85.7716 49.6778 97.2473 46.0998C108.723 42.5222 112.587 54.9155 124.061 51.3384C135.534 47.7613 131.673 35.3674 143.148 31.7894C154.624 28.2117 158.488 40.6051 169.964 37.0275C181.44 33.4495 177.576 21.0563 189.052 17.4785" stroke="white" stroke-opacity="0.08" stroke-width="2" stroke-miterlimit="10"/>
<path d="M51.791 223.367C63.2649 219.79 67.1286 232.183 78.6043 228.605C90.0801 225.027 86.2164 212.634 97.69 209.057C109.164 205.48 113.03 217.872 124.505 214.295C135.981 210.717 132.115 198.324 143.591 194.746C155.067 191.169 158.931 203.562 170.404 199.985C181.878 196.408 178.017 184.014 189.492 180.436C200.968 176.858 204.832 189.252 216.308 185.674C227.784 182.096 223.92 169.703 235.395 166.125" stroke="white" stroke-opacity="0.08" stroke-width="2" stroke-miterlimit="10"/>
<path d="M28.6189 149.043C40.0927 145.466 43.9564 157.859 55.4322 154.282C66.908 150.704 63.0443 138.311 74.5179 134.734C85.9917 131.156 89.8576 143.549 101.333 139.971C112.809 136.394 108.943 124.001 120.419 120.423C131.895 116.846 135.759 129.239 147.232 125.662C158.706 122.084 154.844 109.69 166.32 106.113C177.796 102.535 181.66 114.928 193.136 111.351C204.612 107.773 200.748 95.3795 212.223 91.8018" stroke="white" stroke-opacity="0.08" stroke-width="2" stroke-miterlimit="10"/>
<path d="M11.2402 93.3012C22.7139 89.7241 26.5777 102.117 38.0536 98.5395C49.5294 94.9618 45.6654 82.5685 57.1393 78.9913C68.6131 75.4142 72.479 87.807 83.9548 84.2291C95.4305 80.6514 91.5647 68.2589 103.04 64.6809C114.516 61.1033 118.38 73.4966 129.854 69.9195C141.327 66.3424 137.466 53.9485 148.942 50.3705C160.417 46.7929 164.281 59.1862 175.757 55.6083C187.233 52.0306 183.369 39.6372 194.845 36.0596" stroke="white" stroke-opacity="0.08" stroke-width="2" stroke-miterlimit="10"/>
<path d="M40.2051 186.205C51.6789 182.628 55.5426 195.021 67.0184 191.443C78.4942 187.866 74.6305 175.472 86.1041 171.895C97.5779 168.318 101.444 180.711 112.92 177.133C124.395 173.555 120.529 161.162 132.005 157.585C143.481 154.007 147.345 166.4 158.819 162.823C170.292 159.246 166.431 146.852 177.906 143.274C189.382 139.697 193.246 152.09 204.722 148.512C216.198 144.934 212.334 132.541 223.81 128.963" stroke="white" stroke-opacity="0.08" stroke-width="2" stroke-miterlimit="10"/>
<path d="M17.0332 111.882C28.507 108.305 32.3707 120.698 43.8464 117.12C55.3222 113.542 51.4585 101.149 62.9321 97.5722C74.4059 93.995 78.2718 106.388 89.7476 102.81C101.223 99.232 97.3575 86.8394 108.833 83.2618C120.309 79.6838 124.173 92.0772 135.647 88.5001C147.12 84.923 143.259 72.529 154.734 68.9514C166.21 65.3734 170.074 77.7668 181.55 74.1891C193.026 70.6112 189.162 58.2181 200.638 54.6401" stroke="white" stroke-opacity="0.08" stroke-width="2" stroke-miterlimit="10"/>
<path d="M-0.345703 56.1396C11.128 52.5625 14.9918 64.9556 26.4676 61.3779C37.9434 57.8003 34.0795 45.4069 45.5533 41.8298C57.0272 38.2526 60.8931 50.6452 72.3688 47.0675C83.8446 43.4899 79.9787 31.097 91.4545 27.5194C102.93 23.9416 106.794 36.3348 118.268 32.7577C129.741 29.1806 125.88 16.7867 137.356 13.209C148.831 9.63124 152.695 22.0245 164.171 18.4468C175.647 14.869 171.783 2.47571 183.259 -1.10205" stroke="white" stroke-opacity="0.08" stroke-width="2" stroke-miterlimit="10"/>
<path d="M32.4824 161.436C43.9563 157.859 47.82 170.253 59.2957 166.675C70.7718 163.097 66.9078 150.704 78.3817 147.127C89.8552 143.549 93.7211 155.942 105.197 152.364C116.673 148.787 112.807 136.394 124.283 132.816C135.758 129.239 139.622 141.632 151.096 138.055C162.57 134.478 158.708 122.084 170.184 118.506C181.659 114.928 185.523 127.321 196.999 123.744C208.475 120.166 204.611 107.772 216.087 104.195" stroke="white" stroke-opacity="0.08" stroke-width="2" stroke-miterlimit="10"/>
<path d="M44.0686 198.598C55.5425 195.021 59.4061 207.414 70.8819 203.836C82.358 200.259 78.494 187.865 89.9678 184.288C101.441 180.711 105.307 193.104 116.783 189.526C128.259 185.948 124.393 173.556 135.869 169.978C147.345 166.4 151.208 178.794 162.682 175.216C174.156 171.639 170.294 159.245 181.77 155.668C193.246 152.09 197.11 164.483 208.585 160.905C220.061 157.328 216.197 144.934 227.673 141.356" stroke="white" stroke-opacity="0.08" stroke-width="2" stroke-miterlimit="10"/>
<path d="M20.8965 124.275C32.3702 120.698 36.2339 133.092 47.7097 129.514C59.1857 125.936 55.3218 113.543 66.7956 109.965C78.2692 106.389 82.1351 118.781 93.6109 115.203C105.087 111.626 101.221 99.233 112.697 95.6553C124.173 92.0774 128.036 104.471 139.51 100.894C150.984 97.3165 147.122 84.9226 158.598 81.3449C170.073 77.767 173.937 90.1604 185.413 86.5827C196.889 83.0047 193.025 70.6116 204.501 67.0337" stroke="white" stroke-opacity="0.08" stroke-width="2" stroke-miterlimit="10"/>
<path d="M3.51953 68.5326C14.9933 64.9555 18.8571 77.3488 30.3329 73.7709C41.8086 70.1932 37.945 57.7998 49.4185 54.2227C60.8924 50.6456 64.7583 63.0384 76.234 59.4605C87.7098 55.8828 83.8439 43.4903 95.3197 39.9123C106.795 36.3346 110.659 48.728 122.133 45.1509C133.607 41.5738 129.745 29.1799 141.221 25.6021C152.697 22.0243 156.56 34.4176 168.036 30.84C179.512 27.2621 175.648 14.8688 187.124 11.291" stroke="white" stroke-opacity="0.08" stroke-width="2" stroke-miterlimit="10"/>
<path d="M49.8616 217.179C61.3351 213.602 65.1991 225.995 76.6749 222.417C88.1507 218.84 84.287 206.446 95.7605 202.869C107.234 199.292 111.1 211.685 122.576 208.107C134.052 204.529 130.186 192.137 141.662 188.559C153.137 184.981 157.001 197.374 168.475 193.797C179.949 190.22 176.087 177.826 187.563 174.248C199.039 170.671 202.902 183.064 214.378 179.486C225.854 175.908 221.99 163.515 233.466 159.937" stroke="white" stroke-opacity="0.08" stroke-width="2" stroke-miterlimit="10"/>
<path d="M26.6895 142.856C38.1631 139.278 42.027 151.672 53.5028 148.094C64.9786 144.517 61.1149 132.123 72.5885 128.546C84.0623 124.969 87.9282 137.361 99.404 133.784C110.88 130.206 107.014 117.813 118.49 114.236C129.965 110.658 133.829 123.051 145.303 119.474C156.777 115.897 152.915 103.503 164.391 99.9252C175.867 96.3475 179.73 108.741 191.206 105.163C202.682 101.585 198.818 89.1919 210.294 85.6143" stroke="white" stroke-opacity="0.08" stroke-width="2" stroke-miterlimit="10"/>
<path d="M9.3125 87.1137C20.7862 83.5366 24.65 95.93 36.1257 92.352C47.6017 88.7743 43.7378 76.381 55.2116 72.8038C66.6852 69.2267 70.5511 81.6195 82.0269 78.0416C93.5026 74.4639 89.6368 62.0714 101.113 58.4934C112.589 54.9158 116.452 67.3091 127.926 63.732C139.4 60.1549 135.538 47.761 147.014 44.183C158.489 40.6054 162.353 52.9987 173.829 49.4208C185.305 45.8431 181.441 33.4497 192.917 29.8721" stroke="white" stroke-opacity="0.08" stroke-width="2" stroke-miterlimit="10"/>
<path d="M38.2754 180.017C49.749 176.44 53.6129 188.833 65.0887 185.256C76.5645 181.678 72.7008 169.285 84.1744 165.708C95.6482 162.131 99.5141 174.523 110.99 170.945C122.466 167.368 118.6 154.975 130.076 151.397C141.551 147.82 145.415 160.213 156.889 156.636C168.363 153.059 164.501 140.665 175.977 137.087C187.452 133.509 191.316 145.903 202.792 142.325C214.268 138.747 210.404 126.354 221.88 122.776" stroke="white" stroke-opacity="0.08" stroke-width="2" stroke-miterlimit="10"/>
<path d="M15.1035 105.694C26.5773 102.117 30.4411 114.511 41.9169 110.933C53.3926 107.355 49.5289 94.9618 61.0025 91.3847C72.4764 87.8075 76.3422 100.2 87.818 96.6224C99.2938 93.0445 95.4279 80.6519 106.904 77.0743C118.379 73.4963 122.243 85.8897 133.717 82.3126C145.191 78.7355 141.329 66.3415 152.805 62.7639C164.281 59.1859 168.144 71.5793 179.62 68.0016C191.096 64.4237 187.232 52.0306 198.708 48.4526" stroke="white" stroke-opacity="0.08" stroke-width="2" stroke-miterlimit="10"/>
<path d="M-2.27344 49.9521C9.20029 46.375 13.0641 58.7681 24.5399 55.1904C36.0158 51.6128 32.1518 39.2194 43.6257 35.6423C55.0993 32.0651 58.9652 44.4577 70.4409 40.88C81.9167 37.3024 78.0508 24.9096 89.5266 21.3319C101.003 17.7541 104.866 30.1473 116.34 26.5703C127.814 22.9932 123.952 10.5992 135.428 7.02148C146.904 3.44373 150.767 15.837 162.243 12.2593C173.719 8.6815 169.855 -3.7118 181.331 -7.28955" stroke="white" stroke-opacity="0.08" stroke-width="2" stroke-miterlimit="10"/>
<path d="M55.6543 235.76C67.1281 232.182 70.9918 244.576 82.4676 240.998C93.9437 237.42 90.0797 225.027 101.554 221.45C113.027 217.873 116.893 230.265 128.369 226.688C139.845 223.11 135.979 210.717 147.454 207.14C158.93 203.562 162.794 215.955 174.268 212.378C185.742 208.801 181.88 196.407 193.356 192.829C204.831 189.251 208.695 201.645 220.171 198.067C231.647 194.489 227.783 182.096 239.259 178.518" stroke="white" stroke-opacity="0.08" stroke-width="2" stroke-miterlimit="10"/>
<path d="M32.4824 161.436C43.9563 157.859 47.82 170.253 59.2957 166.675C70.7718 163.097 66.9078 150.704 78.3817 147.127C89.8552 143.549 93.7211 155.942 105.197 152.364C116.673 148.787 112.807 136.394 124.283 132.816C135.758 129.239 139.622 141.632 151.096 138.055C162.57 134.478 158.708 122.084 170.184 118.506C181.659 114.928 185.523 127.321 196.999 123.744C208.475 120.166 204.611 107.772 216.087 104.195" stroke="white" stroke-opacity="0.08" stroke-width="2" stroke-miterlimit="10"/>
<path d="M44.0686 198.598C55.5425 195.021 59.4061 207.414 70.8819 203.836C82.358 200.259 78.494 187.865 89.9678 184.288C101.441 180.711 105.307 193.104 116.783 189.526C128.259 185.948 124.393 173.556 135.869 169.978C147.345 166.4 151.208 178.794 162.682 175.216C174.156 171.639 170.294 159.245 181.77 155.668C193.246 152.09 197.11 164.483 208.585 160.905C220.061 157.328 216.197 144.934 227.673 141.356" stroke="white" stroke-opacity="0.08" stroke-width="2" stroke-miterlimit="10"/>
<path d="M20.8965 124.275C32.3702 120.698 36.2339 133.092 47.7097 129.514C59.1857 125.936 55.3218 113.543 66.7956 109.965C78.2692 106.389 82.1351 118.781 93.6109 115.203C105.087 111.626 101.221 99.233 112.697 95.6553C124.173 92.0774 128.036 104.471 139.51 100.894C150.984 97.3165 147.122 84.9226 158.598 81.3449C170.073 77.767 173.937 90.1604 185.413 86.5827C196.889 83.0047 193.025 70.6116 204.501 67.0337" stroke="white" stroke-opacity="0.08" stroke-width="2" stroke-miterlimit="10"/>
<path d="M3.51953 68.5326C14.9933 64.9555 18.8571 77.3488 30.3329 73.7709C41.8086 70.1932 37.945 57.7998 49.4185 54.2227C60.8924 50.6456 64.7583 63.0384 76.234 59.4605C87.7098 55.8828 83.8439 43.4903 95.3197 39.9123C106.795 36.3346 110.659 48.728 122.133 45.1509C133.607 41.5738 129.745 29.1799 141.221 25.6021C152.697 22.0243 156.56 34.4176 168.036 30.84C179.512 27.2621 175.648 14.8688 187.124 11.291" stroke="white" stroke-opacity="0.08" stroke-width="2" stroke-miterlimit="10"/>
<path d="M49.8616 217.179C61.3351 213.602 65.1991 225.995 76.6749 222.417C88.1507 218.84 84.287 206.446 95.7605 202.869C107.234 199.292 111.1 211.685 122.576 208.107C134.052 204.529 130.186 192.137 141.662 188.559C153.137 184.981 157.001 197.374 168.475 193.797C179.949 190.22 176.087 177.826 187.563 174.248C199.039 170.671 202.902 183.064 214.378 179.486C225.854 175.908 221.99 163.515 233.466 159.937" stroke="white" stroke-opacity="0.08" stroke-width="2" stroke-miterlimit="10"/>
<path d="M26.6895 142.856C38.1631 139.278 42.027 151.672 53.5028 148.094C64.9786 144.517 61.1149 132.123 72.5885 128.546C84.0623 124.969 87.9282 137.361 99.404 133.784C110.88 130.206 107.014 117.813 118.49 114.236C129.965 110.658 133.829 123.051 145.303 119.474C156.777 115.897 152.915 103.503 164.391 99.9252C175.867 96.3475 179.73 108.741 191.206 105.163C202.682 101.585 198.818 89.1919 210.294 85.6143" stroke="white" stroke-opacity="0.08" stroke-width="2" stroke-miterlimit="10"/>
<path d="M9.3125 87.1137C20.7862 83.5366 24.65 95.93 36.1257 92.352C47.6017 88.7743 43.7378 76.381 55.2116 72.8038C66.6852 69.2267 70.5511 81.6195 82.0269 78.0416C93.5026 74.4639 89.6368 62.0714 101.113 58.4934C112.589 54.9158 116.452 67.3091 127.926 63.732C139.4 60.1549 135.538 47.761 147.014 44.183C158.489 40.6054 162.353 52.9987 173.829 49.4208C185.305 45.8431 181.441 33.4497 192.917 29.8721" stroke="white" stroke-opacity="0.08" stroke-width="2" stroke-miterlimit="10"/>
<path d="M38.2754 180.017C49.749 176.44 53.6129 188.833 65.0887 185.256C76.5645 181.678 72.7008 169.285 84.1744 165.708C95.6482 162.131 99.5141 174.523 110.99 170.945C122.466 167.368 118.6 154.975 130.076 151.397C141.551 147.82 145.415 160.213 156.889 156.636C168.363 153.059 164.501 140.665 175.977 137.087C187.452 133.509 191.316 145.903 202.792 142.325C214.268 138.747 210.404 126.354 221.88 122.776" stroke="white" stroke-opacity="0.08" stroke-width="2" stroke-miterlimit="10"/>
<path d="M15.1035 105.694C26.5773 102.117 30.4411 114.511 41.9169 110.933C53.3926 107.355 49.5289 94.9618 61.0025 91.3847C72.4764 87.8075 76.3422 100.2 87.818 96.6224C99.2938 93.0445 95.4279 80.6519 106.904 77.0743C118.379 73.4963 122.243 85.8897 133.717 82.3126C145.191 78.7355 141.329 66.3415 152.805 62.7639C164.281 59.1859 168.144 71.5793 179.62 68.0016C191.096 64.4237 187.232 52.0306 198.708 48.4526" stroke="white" stroke-opacity="0.08" stroke-width="2" stroke-miterlimit="10"/>
<path d="M-2.27344 49.9521C9.20029 46.375 13.0641 58.7681 24.5399 55.1904C36.0158 51.6128 32.1518 39.2194 43.6257 35.6423C55.0993 32.0651 58.9652 44.4577 70.4409 40.88C81.9167 37.3024 78.0508 24.9096 89.5266 21.3319C101.003 17.7541 104.866 30.1473 116.34 26.5703C127.814 22.9932 123.952 10.5992 135.428 7.02148C146.904 3.44373 150.767 15.837 162.243 12.2593C173.719 8.6815 169.855 -3.7118 181.331 -7.28955" stroke="white" stroke-opacity="0.08" stroke-width="2" stroke-miterlimit="10"/>
<path d="M53.7246 229.572C65.1985 225.995 69.0621 238.388 80.5379 234.811C92.0137 231.233 88.15 218.839 99.6236 215.262C111.097 211.685 114.963 224.078 126.439 220.5C137.915 216.922 134.049 204.53 145.525 200.952C157.001 197.374 160.864 209.767 172.338 206.19C183.812 202.613 179.95 190.219 191.426 186.642C202.902 183.064 206.765 195.457 218.241 191.879C229.717 188.302 225.853 175.908 237.329 172.331" stroke="white" stroke-opacity="0.08" stroke-width="2" stroke-miterlimit="10"/>
<path d="M30.5547 155.249C42.0285 151.672 45.8922 164.065 57.368 160.488C68.8438 156.91 64.9801 144.517 76.4537 140.94C87.9275 137.362 91.7934 149.755 103.269 146.177C114.745 142.599 110.879 130.207 122.355 126.629C133.831 123.051 137.695 135.445 149.168 131.867C160.642 128.29 156.78 115.896 168.256 112.319C179.732 108.741 183.595 121.134 195.071 117.557C206.547 113.979 202.683 101.585 214.159 98.0078" stroke="white" stroke-opacity="0.08" stroke-width="2" stroke-miterlimit="10"/>
<path d="M42.1406 192.411C53.6145 188.833 57.4782 201.227 68.9539 197.649C80.4297 194.071 76.566 181.678 88.0396 178.101C99.5135 174.524 103.379 186.916 114.855 183.339C126.331 179.761 122.465 167.368 133.941 163.791C145.417 160.213 149.281 172.606 160.754 169.029C172.228 165.452 168.366 153.058 179.842 149.48C191.318 145.902 195.181 158.296 206.657 154.718C218.133 151.14 214.269 138.747 225.745 135.169" stroke="white" stroke-opacity="0.08" stroke-width="2" stroke-miterlimit="10"/>
<path d="M18.9688 118.088C30.4426 114.511 34.3063 126.904 45.782 123.326C57.2578 119.748 53.3941 107.355 64.8677 103.778C76.3415 100.201 80.2074 112.594 91.6832 109.016C103.159 105.438 99.2931 93.0455 110.769 89.4678C122.245 85.8899 126.109 98.2833 137.582 94.7061C149.056 91.129 145.194 78.7351 156.67 75.1574C168.146 71.5795 172.009 83.9729 183.485 80.3952C194.961 76.8172 191.097 64.4241 202.573 60.8462" stroke="white" stroke-opacity="0.08" stroke-width="2" stroke-miterlimit="10"/>
<path d="M1.58984 62.3452C13.0636 58.7681 16.9274 71.1615 28.4033 67.5835C39.879 64.0059 36.0151 51.6125 47.4889 48.0353C58.9625 44.4582 62.8284 56.8511 74.3042 53.2731C85.7799 49.6954 81.9143 37.3029 93.3901 33.7249C104.866 30.1473 108.73 42.5407 120.203 38.9635C131.677 35.3864 127.815 22.9924 139.291 19.4147C150.767 15.8369 154.631 28.2303 166.106 24.6524C177.582 21.0747 173.719 8.68139 185.194 5.10364" stroke="white" stroke-opacity="0.08" stroke-width="2" stroke-miterlimit="10"/>
<path d="M47.9316 210.992C59.4052 207.415 63.2692 219.808 74.745 216.23C86.2207 212.652 82.3568 200.259 93.8306 196.682C105.304 193.105 109.17 205.497 120.646 201.92C132.122 198.342 128.256 185.949 139.732 182.371C151.208 178.794 155.071 191.187 166.545 187.61C178.019 184.033 174.157 171.639 185.633 168.061C197.108 164.483 200.972 176.877 212.448 173.299C223.924 169.721 220.06 157.328 231.536 153.75" stroke="white" stroke-opacity="0.08" stroke-width="2" stroke-miterlimit="10"/>
<path d="M24.7617 136.668C36.2354 133.091 40.0994 145.484 51.5751 141.907C63.0509 138.329 59.187 125.936 70.6608 122.359C82.1344 118.781 86.0003 131.174 97.476 127.596C108.952 124.019 105.086 111.626 116.562 108.048C128.038 104.47 131.901 116.864 143.375 113.286C154.849 109.709 150.987 97.3154 162.463 93.7377C173.939 90.16 177.803 102.553 189.278 98.9755C200.754 95.3978 196.89 83.0044 208.366 79.4268" stroke="white" stroke-opacity="0.08" stroke-width="2" stroke-miterlimit="10"/>
<path d="M7.38281 80.9262C18.8565 77.349 22.7203 89.7424 34.1961 86.1645C45.6719 82.5868 41.8082 70.1934 53.2818 66.6163C64.7556 63.0392 68.6215 75.432 80.0973 71.8541C91.573 68.2764 87.7071 55.8838 99.1829 52.3059C110.659 48.7282 114.523 61.1216 125.996 57.5445C137.47 53.9674 133.608 41.5734 145.084 37.9955C156.56 34.4178 160.424 46.8112 171.899 43.2333C183.375 39.6556 179.511 27.2623 190.987 23.6846" stroke="white" stroke-opacity="0.08" stroke-width="2" stroke-miterlimit="10"/>
<path d="M36.3477 173.83C47.8212 170.253 51.6852 182.646 63.161 179.068C74.6367 175.491 70.7728 163.097 82.2466 159.52C93.7202 155.943 97.5861 168.336 109.062 164.758C120.538 161.18 116.672 148.788 128.148 145.21C139.624 141.632 143.487 154.025 154.961 150.448C166.435 146.871 162.573 134.477 174.049 130.899C185.524 127.322 189.388 139.715 200.864 136.137C212.34 132.559 208.476 120.166 219.952 116.588" stroke="white" stroke-opacity="0.08" stroke-width="2" stroke-miterlimit="10"/>
<path d="M13.1758 99.5068C24.6495 95.9296 28.5134 108.323 39.9892 104.745C51.465 101.167 47.601 88.7743 59.0749 85.1972C70.5484 81.6201 74.4143 94.0126 85.8901 90.4349C97.3659 86.857 93.5003 74.4644 104.976 70.8868C116.452 67.3088 120.315 79.7022 131.789 76.1251C143.263 72.548 139.401 60.154 150.877 56.5764C162.353 52.9984 166.217 65.3918 177.692 61.8141C189.168 58.2362 185.305 45.8431 196.78 42.2651" stroke="white" stroke-opacity="0.08" stroke-width="2" stroke-miterlimit="10"/>
<path d="M-4.20312 43.7646C7.27059 40.1875 11.1344 52.5806 22.6102 49.0029C34.0859 45.4253 30.2222 33.0319 41.6958 29.4548C53.1697 25.8776 57.0356 38.2702 68.5113 34.6925C79.9871 31.1149 76.1212 18.7221 87.597 15.1444C99.0728 11.5666 102.937 23.9599 114.41 20.3828C125.884 16.8057 122.022 4.41174 133.498 0.833986C144.974 -2.74377 148.838 9.64954 160.313 6.07176C171.789 2.49401 167.925 -9.8993 179.401 -13.4771" stroke="white" stroke-opacity="0.08" stroke-width="2" stroke-miterlimit="10"/>
<path d="M57.584 241.947C69.0576 238.37 72.9215 250.763 84.3973 247.185C95.8731 243.608 92.0091 231.214 103.483 227.637C114.957 224.06 118.822 236.453 130.298 232.875C141.774 229.297 137.908 216.905 149.384 213.327C160.86 209.749 164.724 222.142 176.197 218.565C187.671 214.988 183.809 202.594 195.285 199.017C206.761 195.439 210.625 207.832 222.101 204.254C233.576 200.677 229.713 188.283 241.188 184.706" stroke="white" stroke-opacity="0.08" stroke-width="2" stroke-miterlimit="10"/>
<path d="M55.6543 235.76C67.1281 232.182 70.9918 244.576 82.4676 240.998C93.9437 237.42 90.0797 225.027 101.554 221.45C113.027 217.873 116.893 230.265 128.369 226.688C139.845 223.11 135.979 210.717 147.454 207.14C158.93 203.562 162.794 215.955 174.268 212.378C185.742 208.801 181.88 196.407 193.356 192.829C204.831 189.251 208.695 201.645 220.171 198.067C231.647 194.489 227.783 182.096 239.259 178.518" stroke="white" stroke-opacity="0.08" stroke-width="2" stroke-miterlimit="10"/>
</g>
</svg>
